{
.appVersion = "1357";
DisplayStrings = (
abcdefghijklmnopqrstuvwxyz,
ABCDEFGHIJKLMNOPQRSTUVWXYZ,
"tttt/tcedilla",
"paral/periodcentered.loclCAT lel",
"PARAL/periodcentered.loclCAT.case LEL",
O,
"/OE",
E,
"Ð",
"£",
"/lira",
"¥",
Y,
"non@non",
"½",
"¼",
"/peseta",
"æ",
"/oe",
e
);
classes = (
{
automatic = 1;

glyphs = (
{
glyphname = .notdef;
lastChange = "2021-11-26 10:46:09 +0000";
layers = (
{
layerId = "E9D5C8C2-E643-4C1D-A564-A66CB2499AF2";
paths = (
{
closed = 1;
nodes = (
"489 0 LINE",
"498 8 LINE",
"498 621 LINE",
"489 630 LINE",
"68 630 LINE",
"60 620 LINE",
"60 9 LINE",
"68 0 LINE"
);
},
{
closed = 1;
nodes = (
"164 150 LINE",
"254 316 LINE",
"164 479 LINE",
"183 514 LINE",
"273 350 LINE",
"364 514 LINE",
"383 479 LINE",
"293 314 LINE",
"383 150 LINE",
"364 116 LINE",
"273 279 LINE",
"183 116 LINE"
);
},
{
closed = 1;
nodes = (
"77 613 LINE",
"481 613 LINE",
"481 16 LINE",
"77 16 LINE"
);
},
{
closed = 1;
nodes = (
"447 49 LINE",
"447 577 LINE",
"112 577 LINE",
"112 49 LINE"
);
}
);
width = 558;
},
{
associatedMasterId = "E9D5C8C2-E643-4C1D-A564-A66CB2499AF2";
background = {
paths = (
{
closed = 1;
nodes = (
"378 0 LINE",
"387 8 LINE",
"387 621 LINE",
"378 630 LINE",
"58 630 LINE",
"50 620 LINE",
"50 9 LINE",
"58 0 LINE"
);
},
{
closed = 1;
nodes = (
"86 9 LINE",
"387 621 LINE",
"351 621 LINE",
"50 9 LINE"
);
},
{
closed = 1;
nodes = (
"387 9 LINE",
"86 621 LINE",
"50 621 LINE",
"351 9 LINE"
);
},
{
closed = 1;
nodes = (
"124 541 LINE",
"313 541 LINE",
"313 88 LINE",
"124 88 LINE"
);
}
);
};
layerId = "8A3706BD-364F-4FE3-9C2E-7E87DF0DB4CC";
name = "Regular Backup";
paths = (
{
closed = 1;
nodes = (
"378 0 LINE",
"387 8 LINE",
"387 621 LINE",
"378 630 LINE",
"58 630 LINE",
"50 620 LINE",
"50 9 LINE",
"58 0 LINE"
);
},
{
closed = 1;
nodes = (
"86 9 LINE",
"387 621 LINE",
"351 621 LINE",
"50 9 LINE"
);
},
{
closed = 1;
nodes = (
"387 9 LINE",
"86 621 LINE",
"50 621 LINE",
"351 9 LINE"
);
},
{
closed = 1;
nodes = (
"124 541 LINE",
"313 541 LINE",
"313 88 LINE",
"124 88 LINE"
);
}
);
width = 437;
}
);
note = .notdef;
},
{
glyphname = A;
lastChange = "2021-11-26 04:45:04 +0000";
layers = (
{
anchors = (
{
name = bottom;
position = "{207, 0}";
},
{
name = ogonek;
position = "{381, 10}";
},
{
name = top;
position = "{207, 591}";
}
);
layerId = "E9D5C8C2-E643-4C1D-A564-A66CB2499AF2";
paths = (
{
closed = 1;
nodes = (
"178 0 LINE",
"184 86 LINE",
"221 86 LINE",
"229 0 LINE",
"408 0 LINE",
"325 591 LINE",
"90 591 LINE",
"5 0 LINE"
);
},
{
closed = 1;
nodes = (
"115 301 LINE",
"154 549 LINE",
"206 547 LINE",
"263 549 LINE",
"294 299 LINE",
"318 47 LINE",
"313 47 LINE",
"305 123 LINE",
"203 124 LINE",
"100 123 LINE",
"97 92 LINE SMOOTH",
"96 83 OFFCURVE",
"95 75 OFFCURVE",
"94 68 CURVE SMOOTH",
"91 47 LINE",
"87 47 LINE"
);
},
{
closed = 1;
nodes = (
"203 466 LINE",
"221 163 LINE",
"185 163 LINE"
);
},
{
closed = 1;
nodes = (
"304 127 LINE",
"282 299 LINE",
"259 545 LINE",
"206 546 LINE",
"158 545 LINE",
"126 300 LINE",
"101 127 LINE",
"203 125 LINE"
);
}
);
userData = {
assembly = "SVTCA[0]	/* SetFreedomAndProjectionVectorToAxis */\012PUSHW[ ]	/* 1 value pushed */\0120 \012RCVT[ ]	/* ReadCVT */\012IF[ ]	/* If */\012PUSHW[ ]	/* 1 value pushed */\0121 \012MDAP[1]	/* MoveDirectAbsPt */\012ELSE[ ]	/* Else */\012PUSHW[ ]	/* 2 values pushed */\0121 7 \012MIAP[0]	/* MoveIndirectAbsPt */\012EIF[ ]	/* EndIf */\012PUSHW[ ]	/* 1 value pushed */\0120 \012RCVT[ ]	/* ReadCVT */\012IF[ ]	/* If */\012PUSHW[ ]	/* 1 value pushed */\0125 \012MDAP[1]	/* MoveDirectAbsPt */\012ELSE[ ]	/* Else */\012PUSHW[ ]	/* 2 values pushed */\0125 7 \012MIAP[0]	/* MoveIndirectAbsPt */\012EIF[ ]	/* EndIf */\012PUSHW[ ]	/* 4 values pushed */\0129 2 3 4 \012CALL[ ]	/* CallFunction */\012PUSHW[ ]	/* 1 value pushed */\0125 \012SRP0[ ]	/* SetRefPoint0 */\012PUSHW[ ]	/* 2 values pushed */\0128 4 \012MIRP[10100]	/* MoveIndirectRelPt */\012PUSHW[ ]	/* 3 values pushed */\01219 5 8 \012SRP1[ ]	/* SetRefPoint1 */\012SRP2[ ]	/* SetRefPoint2 */\012IP[ ]	/* InterpolatePts */\012IUP[0]	/* InterpolateUntPts */\012IUP[1]	/* InterpolateUntPts */";
};
width = 413;
},
{
anchors = (
{
name = bottom;
position = "{205, 0}";
},
{
name = ogonek;
position = "{406, 0}";
},
{
name = top;
position = "{205, 591}";
}
);
associatedMasterId = "E9D5C8C2-E643-4C1D-A564-A66CB2499AF2";
background = {
paths = (
{
closed = 1;
nodes = (
"176 0 LINE",
"182 86 LINE",
"219 86 LINE",
"227 0 LINE",
"406 0 LINE",
"323 591 LINE",
"88 591 LINE",
"3 0 LINE"
);
},
{
closed = 1;
nodes = (
"201 466 LINE",
"219 163 LINE",
"183 163 LINE"
);
}
);
};
layerId = "8A3706BD-364F-4FE3-9C2E-7E87DF0DB4CC";
name = "Regular Backup";
paths = (
{
closed = 1;
nodes = (
"176 0 LINE",
"182 86 LINE",
"219 86 LINE",
"227 0 LINE",
"406 0 LINE",
"323 591 LINE",
"88 591 LINE",
"3 0 LINE"
);
},
{
closed = 1;
nodes = (
"201 466 LINE",
"219 163 LINE",
"183 163 LINE"
);
}
);
width = 409;
}
);
note = A;
rightKerningGroup = parenright;
unicode = 0041;
},
{
glyphname = Aring;
lastChange = "2021-11-26 04:45:04 +0000";
layers = (
{
components = (
{
name = A;
},
{
alignment = -1;
name = ringcomb.case;
transform = "{1, 0, 0, 1, 95, -23}";
}
);
layerId = "E9D5C8C2-E643-4C1D-A564-A66CB2499AF2";
userData = {
assembly = "PUSHW[ ]	/* 3 values pushed */\01246 23 3 \012CALL[ ]	/* CallFunction */\012PUSHW[ ]	/* 3 values pushed */\01231 52 3 \012CALL[ ]	/* CallFunction */\012PUSHW[ ]	/* 1 value pushed */\01223 \012SRP0[ ]	/* SetRefPoint0 */\012PUSHW[ ]	/* 1 value pushed */\0124 \012MDRP[10000]	/* MoveDirectRelPt */\012PUSHW[ ]	/* 1 value pushed */\0124 \012MDAP[1]	/* MoveDirectAbsPt */\012PUSHW[ ]	/* 1 value pushed */\01231 \012SRP0[ ]	/* SetRefPoint0 */\012PUSHW[ ]	/* 1 value pushed */\0126 \012MDRP[10000]	/* MoveDirectRelPt */\012PUSHW[ ]	/* 1 value pushed */\0126 \012MDAP[1]	/* MoveDirectAbsPt */\012PUSHW[ ]	/* 1 value pushed */\01231 \012SRP0[ ]	/* SetRefPoint0 */\012PUSHW[ ]	/* 1 value pushed */\0127 \012MDRP[10000]	/* MoveDirectRelPt */\012PUSHW[ ]	/* 1 value pushed */\0127 \012MDAP[1]	/* MoveDirectAbsPt */\012NPUSHW[ ]	/* 27 values pushed */\0126 46 22 46 38 46 54 46 70 46 86 46 102 46 118 46 134 46 150 46 166 46 182 46 198 46 13 \012DELTAP1[ ]	/* DeltaExceptionP1 */\012NPUSHW[ ]	/* 5 values pushed */\012213 46 229 46 2 \012DELTAP1[ ]	/* DeltaExceptionP1 */\012PUSHW[ ]	/* 1 value pushed */\01246 \012SRP0[ ]	/* SetRefPoint0 */\012PUSHW[ ]	/* 1 value pushed */\01212 \012MDRP[10000]	/* MoveDirectRelPt */\012PUSHW[ ]	/* 1 value pushed */\01212 \012MDAP[1]	/* MoveDirectAbsPt */\012PUSHW[ ]	/* 1 value pushed */\01246 \012SRP0[ ]	/* SetRefPoint0 */\012PUSHW[ ]	/* 1 value pushed */\01215 \012MDRP[10000]	/* MoveDirectRelPt */\012PUSHW[ ]	/* 1 value pushed */\01215 \012MDAP[1]	/* MoveDirectAbsPt */\012NPUSHW[ ]	/* 5 values pushed */\012218 52 234 52 2 \012DELTAP1[ ]	/* DeltaExceptionP1 */\012NPUSHW[ ]	/* 27 values pushed */\0129 52 25 52 41 52 57 52 73 52 89 52 105 52 121 52 137 52 153 52 169 52 185 52 201 52 13 \012DELTAP1[ ]	/* DeltaExceptionP1 */\012PUSHW[ ]	/* 1 value pushed */\01252 \012SRP0[ ]	/* SetRefPoint0 */\012PUSHW[ ]	/* 1 value pushed */\01217 \012MDRP[10000]	/* MoveDirectRelPt */\012PUSHW[ ]	/* 1 value pushed */\01217 \012MDAP[1]	/* MoveDirectAbsPt */\012PUSHW[ ]	/* 1 value pushed */\01231 \012SRP0[ ]	/* SetRefPoint0 */\012PUSHW[ ]	/* 1 value pushed */\01219 \012MDRP[10000]	/* MoveDirectRelPt */\012PUSHW[ ]	/* 1 value pushed */\01219 \012MDAP[1]	/* MoveDirectAbsPt */\012PUSHW[ ]	/* 1 value pushed */\01223 \012SRP0[ ]	/* SetRefPoint0 */\012PUSHW[ ]	/* 1 value pushed */\01221 \012MDRP[10000]	/* MoveDirectRelPt */\012PUSHW[ ]	/* 1 value pushed */\01221 \012MDAP[1]	/* MoveDirectAbsPt */\012PUSHW[ ]	/* 3 values pushed */\01234 4 7 \012SRP1[ ]	/* SetRefPoint1 */\012SRP2[ ]	/* SetRefPoint2 */\012IP[ ]	/* InterpolatePts */\012PUSHW[ ]	/* 3 values pushed */\01243 4 7 \012SRP1[ ]	/* SetRefPoint1 */\012SRP2[ ]	/* SetRefPoint2 */\012IP[ ]	/* InterpolatePts */\012PUSHW[ ]	/* 3 values pushed */\01260 4 7 \012SRP1[ ]	/* SetRefPoint1 */\012SRP2[ ]	/* SetRefPoint2 */\012IP[ ]	/* InterpolatePts */\012SVTCA[0]	/* SetFreedomAndProjectionVectorToAxis */\012PUSHW[ ]	/* 1 value pushed */\0120 \012RCVT[ ]	/* ReadCVT */\012IF[ ]	/* If */\012PUSHW[ ]	/* 1 value pushed */\01236 \012MDAP[1]	/* MoveDirectAbsPt */\012ELSE[ ]	/* Else */\012PUSHW[ ]	/* 2 values pushed */\01236 7 \012MIAP[0]	/* MoveIndirectAbsPt */\012EIF[ ]	/* EndIf */\012PUSHW[ ]	/* 1 value pushed */\0120 \012RCVT[ ]	/* ReadCVT */\012IF[ ]	/* If */\012PUSHW[ ]	/* 1 value pushed */\01240 \012MDAP[1]	/* MoveDirectAbsPt */\012ELSE[ ]	/* Else */\012PUSHW[ ]	/* 2 values pushed */\01240 7 \012MIAP[0]	/* MoveIndirectAbsPt */\012EIF[ ]	/* EndIf */\012PUSHW[ ]	/* 4 values pushed */\01259 2 38 4 \012CALL[ ]	/* CallFunction */\012PUSHW[ ]	/* 1 value pushed */\01240 \012SRP0[ ]	/* SetRefPoint0 */\012PUSHW[ ]	/* 2 values pushed */\01258 4 \012MIRP[10100]	/* MoveIndirectRelPt */\012PUSHW[ ]	/* 3 values pushed */\0128 40 58 \012SRP1[ ]	/* SetRefPoint1 */\012SRP2[ ]	/* SetRefPoint2 */\012IP[ ]	/* InterpolatePts */\012IUP[0]	/* InterpolateUntPts */\012IUP[1]	/* InterpolateUntPts */";
};
width = 413;
},
{
associatedMasterId = "E9D5C8C2-E643-4C1D-A564-A66CB2499AF2";
background = {
paths = (
{
closed = 1;
nodes = (
"-324 0 LINE",
"-318 86 LINE",
"-281 86 LINE",
"-273 0 LINE",
"-94 0 LINE",
"-177 591 LINE",
"-412 591 LINE",
"-497 0 LINE"
);
},
{
closed = 1;
nodes = (
"-299 466 LINE",
"-281 163 LINE",
"-317 163 LINE"
);
},
{
closed = 1;
nodes = (
"-232 580 OFFCURVE",
"-186 623 OFFCURVE",
"-186 676 CURVE SMOOTH",
"-186 730 OFFCURVE",
"-232 774 OFFCURVE",
"-288 774 CURVE SMOOTH",
"-348 774 OFFCURVE",
"-390 731 OFFCURVE",
"-390 676 CURVE SMOOTH",
"-390 623 OFFCURVE",
"-348 580 OFFCURVE",
"-288 580 CURVE SMOOTH"
);
},
{
closed = 1;
nodes = (
"-315 632 OFFCURVE",
"-335 652 OFFCURVE",
"-335 676 CURVE SMOOTH",
"-335 703 OFFCURVE",
"-315 723 OFFCURVE",
"-288 723 CURVE SMOOTH",
"-261 723 OFFCURVE",
"-241 703 OFFCURVE",
"-241 676 CURVE SMOOTH",
"-241 652 OFFCURVE",
"-261 632 OFFCURVE",
"-288 632 CURVE SMOOTH"
);
},
{
closed = 1;
nodes = (
"176 0 LINE",
"182 86 LINE",
"219 86 LINE",
"227 0 LINE",
"406 0 LINE",
"323 591 LINE",
"88 591 LINE",
"3 0 LINE"
);
},
{
closed = 1;
nodes = (
"201 466 LINE",
"219 163 LINE",
"183 163 LINE"
);
},
{
closed = 1;
nodes = (
"268 580 OFFCURVE",
"314 623 OFFCURVE",
"314 676 CURVE SMOOTH",
"314 730 OFFCURVE",
"268 774 OFFCURVE",
"212 774 CURVE SMOOTH",
"152 774 OFFCURVE",
"110 731 OFFCURVE",
"110 676 CURVE SMOOTH",
"110 623 OFFCURVE",
"152 580 OFFCURVE",
"212 580 CURVE SMOOTH"
);
},
{
closed = 1;
nodes = (
"185 632 OFFCURVE",
"165 652 OFFCURVE",
"165 676 CURVE SMOOTH",
"165 703 OFFCURVE",
"185 723 OFFCURVE",
"212 723 CURVE SMOOTH",
"239 723 OFFCURVE",
"259 703 OFFCURVE",
"259 676 CURVE SMOOTH",
"259 652 OFFCURVE",
"239 632 OFFCURVE",
"212 632 CURVE SMOOTH"
);
}
);
};
components = (
{
name = A;
},
{
alignment = -1;
name = ringcomb.case;
transform = "{1, 0, 0, 1, 93, -26}";
}
);
layerId = "8A3706BD-364F-4FE3-9C2E-7E87DF0DB4CC";
name = "Regular Backup";
width = 409;
}
);
note = Aring;
unicode = 00C5;
},
{
glyphname = AE;
lastChange = "2021-11-26 04:45:04 +0000";
layers = (
{
anchors = (
{
name = bottom;
position = "{266, 0}";
},
{
name = top;
position = "{326, 591}";
}
);
layerId = "E9D5C8C2-E643-4C1D-A564-A66CB2499AF2";
paths = (
{
closed = 1;
nodes = (
"183 0 LINE",
"189 86 LINE",
"226 86 LINE",
"234 0 LINE",
"521 0 LINE",
"521 108 LINE",
"397 108 LINE",
"379 240 LINE",
"511 240 LINE",
"511 365 LINE",
"361 365 LINE",
"345 480 LINE",
"521 480 LINE",
"521 591 LINE",
"95 591 LINE",
"10 0 LINE"
);
},
{
closed = 1;
nodes = (
"208 466 LINE",
"226 163 LINE",
"190 163 LINE"
);
},
{
closed = 1;
nodes = (
"319 127 LINE",
"297 299 LINE",
"274 545 LINE",
"221 546 LINE",
"173 545 LINE",
"141 300 LINE",
"116 127 LINE",
"218 125 LINE"
);
},
{
closed = 1;
nodes = (
"130 301 LINE",
"169 549 LINE",
"221 547 LINE",
"278 549 LINE",
"479 545 LINE",
"479 544 LINE",
"278 544 LINE",
"309 301 LINE",
"479 297 LINE",
"479 296 LINE",
"309 296 LINE",
"332 52 LINE",
"479 48 LINE",
"479 47 LINE",
"328 47 LINE",
"320 123 LINE",
"218 124 LINE",
"115 123 LINE",
"112 92 LINE SMOOTH",
"111 83 OFFCURVE",
"110 75 OFFCURVE",
"109 68 CURVE SMOOTH",
"106 47 LINE",
"102 47 LINE"
);
}
);
width = 531;
},
{
anchors = (
{
name = bottom;
position = "{284, 0}";
},
{
name = top;
position = "{357, 591}";
}
);
associatedMasterId = "E9D5C8C2-E643-4C1D-A564-A66CB2499AF2";
background = {
paths = (
{
closed = 1;
nodes = (
"168 0 LINE",
"184 86 LINE",
"221 86 LINE",
"219 0 LINE",
"550 0 LINE",
"550 108 LINE",
"395 108 LINE",
"393 240 LINE",
"525 240 LINE",
"525 365 LINE",
"391 365 LINE",
"389 480 LINE",
"538 480 LINE",
"538 591 LINE",
"152 591 LINE",
"-5 0 LINE"
);
},
{
closed = 1;
nodes = (
"245 441 LINE",
"250 466 LINE",
"248 441 LINE",
"231 163 LINE",
"195 163 LINE"
);
}
);
};
layerId = "8A3706BD-364F-4FE3-9C2E-7E87DF0DB4CC";
name = "Regular Backup";
paths = (
{
closed = 1;
nodes = (
"168 0 LINE",
"184 86 LINE",
"221 86 LINE",
"219 0 LINE",
"550 0 LINE",
"550 108 LINE",
"395 108 LINE",
"393 240 LINE",
"525 240 LINE",
"525 365 LINE",
"391 365 LINE",
"389 480 LINE",
"538 480 LINE",
"538 591 LINE",
"152 591 LINE",
"-5 0 LINE"
);
},
{
closed = 1;
nodes = (
"245 441 LINE",
"250 466 LINE",
"248 441 LINE",
"231 163 LINE",
"195 163 LINE"
);
}
);
width = 567;
}
);
note = AE;
unicode = 00C6;
},
{
glyphname = B;
lastChange = "2021-11-26 10:45:51 +0000";
layers = (
{
layerId = "E9D5C8C2-E643-4C1D-A564-A66CB2499AF2";
paths = (
{
closed = 1;
nodes = (
"248 0 LINE SMOOTH",
"341 0 OFFCURVE",
"397 30 OFFCURVE",
"397 125 CURVE SMOOTH",
"397 202 LINE SMOOTH",
"397 281 OFFCURVE",
"351 316 OFFCURVE",
"294 316 CURVE",
"294 318 LINE",
"357 325 OFFCURVE",
"382 370 OFFCURVE",
"382 426 CURVE SMOOTH",
"382 490 LINE SMOOTH",
"382 550 OFFCURVE",
"345 591 OFFCURVE",
"257 591 CURVE SMOOTH",
"25 591 LINE",
"25 0 LINE"
);
},
{
closed = 1;
nodes = (
"191 249 LINE",
"206 249 LINE SMOOTH",
"215 249 OFFCURVE",
"221 241 OFFCURVE",
"222 225 CURVE SMOOTH",
"223 208 OFFCURVE",
"224 188 OFFCURVE",
"224 165 CURVE SMOOTH",
"224 142 OFFCURVE",
"223 122 OFFCURVE",
"221 106 CURVE SMOOTH",
"218 89 OFFCURVE",
"213 81 OFFCURVE",
"206 81 CURVE SMOOTH",
"191 81 LINE"
);
},
{
closed = 1;
nodes = (
"103 305 LINE",
"108 547 LINE",
"112 547 LINE",
"113 305 LINE",
"111 45 LINE",
"108 45 LINE"
);
},
{
closed = 1;
nodes = (
"191 46 LINE",
"191 48 LINE",
"235 49 LINE SMOOTH",
"276 49 OFFCURVE",
"304 88 OFFCURVE",
"304 178 CURVE SMOOTH",
"304 204 LINE SMOOTH",
"304 262 OFFCURVE",
"292 302 OFFCURVE",
"231 302 CURVE SMOOTH",
"191 302 LINE",
"191 304 LINE",
"231 304 LINE SMOOTH",
"278 304 OFFCURVE",
"293 362 OFFCURVE",
"293 438 CURVE SMOOTH",
"293 525 OFFCURVE",
"287 545 OFFCURVE",
"221 545 CURVE SMOOTH",
"189 546 LINE",
"189 548 LINE",
"221 549 LINE SMOOTH",
"291 549 OFFCURVE",
"301 529 OFFCURVE",
"301 438 CURVE SMOOTH",
"301 391 OFFCURVE",
"295 357 OFFCURVE",
"282 336 CURVE SMOOTH",
"269 315 OFFCURVE",
"256 304 OFFCURVE",
"241 304 CURVE SMOOTH",
"294 304 OFFCURVE",
"313 254 OFFCURVE",
"313 204 CURVE SMOOTH",
"313 178 LINE SMOOTH",
"313 86 OFFCURVE",
"278 45 OFFCURVE",
"235 45 CURVE SMOOTH"
);
},
{
closed = 1;
nodes = (
"191 507 LINE",
"206 507 LINE SMOOTH",
"215 507 OFFCURVE",
"221 499 OFFCURVE",
"222 484 CURVE SMOOTH",
"223 469 OFFCURVE",
"224 450 OFFCURVE",
"224 427 CURVE SMOOTH",
"224 405 OFFCURVE",
"222 386 OFFCURVE",
"219 371 CURVE SMOOTH",
"216 356 OFFCURVE",
"210 348 OFFCURVE",
"203 348 CURVE SMOOTH",
"191 348 LINE"
);
}
);
userData = {
assembly = "SVTCA[0]	/* SetFreedomAndProjectionVectorToAxis */\012PUSHW[ ]	/* 1 value pushed */\0120 \012RCVT[ ]	/* ReadCVT */\012IF[ ]	/* If */\012PUSHW[ ]	/* 1 value pushed */\01269 \012MDAP[1]	/* MoveDirectAbsPt */\012ELSE[ ]	/* Else */\012PUSHW[ ]	/* 2 values pushed */\01269 7 \012MIAP[0]	/* MoveIndirectAbsPt */\012EIF[ ]	/* EndIf */\012PUSHW[ ]	/* 4 values pushed */\01281 3 78 4 \012CALL[ ]	/* CallFunction */\012PUSHW[ ]	/* 3 values pushed */\01218 78 81 \012SRP1[ ]	/* SetRefPoint1 */\012SRP2[ ]	/* SetRefPoint2 */\012IP[ ]	/* InterpolatePts */\012PUSHW[ ]	/* 3 values pushed */\01239 78 81 \012SRP1[ ]	/* SetRefPoint1 */\012SRP2[ ]	/* SetRefPoint2 */\012IP[ ]	/* InterpolatePts */\012PUSHW[ ]	/* 3 values pushed */\01262 78 81 \012SRP1[ ]	/* SetRefPoint1 */\012SRP2[ ]	/* SetRefPoint2 */\012IP[ ]	/* InterpolatePts */\012PUSHW[ ]	/* 1 value pushed */\01269 \012SRP0[ ]	/* SetRefPoint0 */\012PUSHW[ ]	/* 2 values pushed */\01271 2 \012MIRP[10100]	/* MoveIndirectRelPt */\012IUP[0]	/* InterpolateUntPts */\012IUP[1]	/* InterpolateUntPts */";
};
width = 417;
},
{
associatedMasterId = "E9D5C8C2-E643-4C1D-A564-A66CB2499AF2";
background = {
paths = (
{
closed = 1;
nodes = (
"243 0 LINE SMOOTH",
"332 0 OFFCURVE",
"386 30 OFFCURVE",
"386 125 CURVE SMOOTH",
"386 202 LINE SMOOTH",
"386 248 OFFCURVE",
"370 279 OFFCURVE",
"346 297 CURVE SMOOTH",
"325 312 OFFCURVE",
"307 316 OFFCURVE",
"289 316 CURVE",
"289 318 LINE",
"312 320 OFFCURVE",
"332 330 OFFCURVE",
"346 343 CURVE SMOOTH",
"367 363 OFFCURVE",
"376 392 OFFCURVE",
"376 426 CURVE SMOOTH",
"376 490 LINE SMOOTH",
"376 549 OFFCURVE",
"339 591 OFFCURVE",
"257 591 CURVE SMOOTH",
"25 591 LINE",
"25 0 LINE"
);
},
{
closed = 1;
nodes = (
"185 249 LINE",
"204 249 LINE SMOOTH",
"219 249 OFFCURVE",
"225 241 OFFCURVE",
"225 197 CURVE SMOOTH",
"225 134 LINE SMOOTH",
"225 92 OFFCURVE",
"218 81 OFFCURVE",
"205 81 CURVE SMOOTH",
"185 81 LINE"
);
},
{
closed = 1;
nodes = (
"185 507 LINE",
"203 507 LINE SMOOTH",
"218 507 OFFCURVE",
"224 496 OFFCURVE",
"224 461 CURVE SMOOTH",
"224 408 LINE SMOOTH",
"224 359 OFFCURVE",
"213 348 OFFCURVE",
"201 348 CURVE SMOOTH",
"185 348 LINE"
);
}
);
};
layerId = "8A3706BD-364F-4FE3-9C2E-7E87DF0DB4CC";
name = "Regular Backup";
paths = (
{
closed = 1;
nodes = (
"243 0 LINE SMOOTH",
"332 0 OFFCURVE",
"386 30 OFFCURVE",
"386 125 CURVE SMOOTH",
"386 202 LINE SMOOTH",
"386 248 OFFCURVE",
"370 279 OFFCURVE",
"346 297 CURVE SMOOTH",
"325 312 OFFCURVE",
"307 316 OFFCURVE",
"289 316 CURVE",
"289 318 LINE",
"312 320 OFFCURVE",
"332 330 OFFCURVE",
"346 343 CURVE SMOOTH",
"367 363 OFFCURVE",
"376 392 OFFCURVE",
"376 426 CURVE SMOOTH",
"376 490 LINE SMOOTH",
"376 549 OFFCURVE",
"339 591 OFFCURVE",
"257 591 CURVE SMOOTH",
"25 591 LINE",
"25 0 LINE"
);
},
{
closed = 1;
nodes = (
"185 249 LINE",
"204 249 LINE SMOOTH",
"219 249 OFFCURVE",
"225 241 OFFCURVE",
"225 197 CURVE SMOOTH",
"225 134 LINE SMOOTH",
"225 92 OFFCURVE",
"218 81 OFFCURVE",
"205 81 CURVE SMOOTH",
"185 81 LINE"
);
},
{
closed = 1;
nodes = (
"185 507 LINE",
"203 507 LINE SMOOTH",
"218 507 OFFCURVE",
"224 496 OFFCURVE",
"224 461 CURVE SMOOTH",
"224 408 LINE SMOOTH",
"224 359 OFFCURVE",
"213 348 OFFCURVE",
"201 348 CURVE SMOOTH",
"185 348 LINE"
);
}
);
width = 401;
}
);
note = B;
rightKerningGroup = parenright;
unicode = 0042;
},
{
glyphname = C;
lastChange = "2021-11-26 10:45:51 +0000";
layers = (
{
anchors = (
{
name = bottom;
position = "{201, 0}";
},
{
name = top;
position = "{201, 591}";
}
);
layerId = "E9D5C8C2-E643-4C1D-A564-A66CB2499AF2";
paths = (
{
closed = 1;
nodes = (
"322 -12 OFFCURVE",
"377 24 OFFCURVE",
"377 174 CURVE SMOOTH",
"377 248 LINE",
"218 248 LINE",
"218 110 LINE SMOOTH",
"218 99 OFFCURVE",
"217 91 OFFCURVE",
"214 87 CURVE SMOOTH",
"211 82 OFFCURVE",
"207 80 OFFCURVE",
"202 80 CURVE SMOOTH",
"197 80 OFFCURVE",
"193 82 OFFCURVE",
"190 87 CURVE SMOOTH",
"187 91 OFFCURVE",
"186 99 OFFCURVE",
"186 110 CURVE SMOOTH",
"186 473 LINE SMOOTH",
"186 484 OFFCURVE",
"187 492 OFFCURVE",
"190 497 CURVE SMOOTH",
"193 501 OFFCURVE",
"197 503 OFFCURVE",
"202 503 CURVE SMOOTH",
"207 503 OFFCURVE",
"211 501 OFFCURVE",
"214 497 CURVE SMOOTH",
"217 492 OFFCURVE",
"218 484 OFFCURVE",
"218 473 CURVE SMOOTH",
"218 327 LINE",
"377 327 LINE",
"377 465 LINE SMOOTH",
"377 564 OFFCURVE",
"311 600 OFFCURVE",
"202 600 CURVE SMOOTH",
"93 600 OFFCURVE",
"20 564 OFFCURVE",
"20 465 CURVE SMOOTH",
"20 173 LINE SMOOTH",
"20 24 OFFCURVE",
"81 -12 OFFCURVE",
"202 -12 CURVE SMOOTH"
);
},
{
closed = 1;
nodes = (
"185 44 OFFCURVE",
"170 44 OFFCURVE",
"158 48 CURVE SMOOTH",
"123 59 OFFCURVE",
"106 88 OFFCURVE",
"106 156 CURVE SMOOTH",
"101 294 LINE",
"106 466 LINE SMOOTH",
"106 509 OFFCURVE",
"122 536 OFFCURVE",
"163 545 CURVE SMOOTH",
"172 548 OFFCURVE",
"187 548 OFFCURVE",
"202 548 CURVE SMOOTH",
"223 548 LINE SMOOTH",
"230 548 OFFCURVE",
"235 547 OFFCURVE",
"239 546 CURVE SMOOTH",
"282 535 OFFCURVE",
"299 510 OFFCURVE",
"299 473 CURVE SMOOTH",
"297 378 LINE",
"295 378 LINE",
"294 473 LINE SMOOTH",
"294 508 OFFCURVE",
"278 533 OFFCURVE",
"238 542 CURVE SMOOTH",
"227 545 OFFCURVE",
"217 546 OFFCURVE",
"202 546 CURVE SMOOTH",
"188 546 OFFCURVE",
"175 544 OFFCURVE",
"163 541 CURVE SMOOTH",
"124 532 OFFCURVE",
"110 506 OFFCURVE",
"110 466 CURVE SMOOTH",
"114 294 LINE",
"110 156 LINE SMOOTH",
"110 92 OFFCURVE",
"125 63 OFFCURVE",
"160 52 CURVE SMOOTH",
"172 48 OFFCURVE",
"186 46 OFFCURVE",
"202 46 CURVE SMOOTH",
"217 46 OFFCURVE",
"231 48 OFFCURVE",
"242 52 CURVE SMOOTH",
"281 64 OFFCURVE",
"295 92 OFFCURVE",
"295 156 CURVE SMOOTH",
"296 216 LINE",
"298 216 LINE",
"300 156 LINE SMOOTH",
"300 87 OFFCURVE",
"284 60 OFFCURVE",
"244 48 CURVE SMOOTH",
"232 44 OFFCURVE",
"218 44 OFFCURVE",
"202 44 CURVE SMOOTH"
);
}
);
width = 402;
},
{
anchors = (
{
name = bottom;
position = "{198, 0}";
},
{
name = top;
position = "{198, 591}";
}
);
associatedMasterId = "E9D5C8C2-E643-4C1D-A564-A66CB2499AF2";
background = {
paths = (
{
closed = 1;
nodes = (
"311 -12 OFFCURVE",
"377 14 OFFCURVE",
"377 174 CURVE SMOOTH",
"377 248 LINE",
"218 248 LINE",
"218 110 LINE SMOOTH",
"218 87 OFFCURVE",
"211 80 OFFCURVE",
"202 80 CURVE SMOOTH",
"192 80 OFFCURVE",
"186 87 OFFCURVE",
"186 110 CURVE SMOOTH",
"186 473 LINE SMOOTH",
"186 496 OFFCURVE",
"192 503 OFFCURVE",
"202 503 CURVE SMOOTH",
"211 503 OFFCURVE",
"218 496 OFFCURVE",
"218 473 CURVE SMOOTH",
"218 327 LINE",
"377 327 LINE",
"377 465 LINE SMOOTH",
"377 564 OFFCURVE",
"311 600 OFFCURVE",
"202 600 CURVE SMOOTH",
"93 600 OFFCURVE",
"20 564 OFFCURVE",
"20 465 CURVE SMOOTH",
"20 173 LINE SMOOTH",
"20 14 OFFCURVE",
"93 -12 OFFCURVE",
"202 -12 CURVE SMOOTH"
);
}
);
};
layerId = "8A3706BD-364F-4FE3-9C2E-7E87DF0DB4CC";
name = "Regular Backup";
paths = (
{
closed = 1;
nodes = (
"311 -12 OFFCURVE",
"377 14 OFFCURVE",
"377 174 CURVE SMOOTH",
"377 248 LINE",
"218 248 LINE",
"218 110 LINE SMOOTH",
"218 87 OFFCURVE",
"211 80 OFFCURVE",
"202 80 CURVE SMOOTH",
"192 80 OFFCURVE",
"186 87 OFFCURVE",
"186 110 CURVE SMOOTH",
"186 473 LINE SMOOTH",
"186 496 OFFCURVE",
"192 503 OFFCURVE",
"202 503 CURVE SMOOTH",
"211 503 OFFCURVE",
"218 496 OFFCURVE",
"218 473 CURVE SMOOTH",
"218 327 LINE",
"377 327 LINE",
"377 465 LINE SMOOTH",
"377 564 OFFCURVE",
"311 600 OFFCURVE",
"202 600 CURVE SMOOTH",
"93 600 OFFCURVE",
"20 564 OFFCURVE",
"20 465 CURVE SMOOTH",
"20 173 LINE SMOOTH",
"20 14 OFFCURVE",
"93 -12 OFFCURVE",
"202 -12 CURVE SMOOTH"
);
}
);
width = 395;
}
);
note = C;
unicode = 0043;
},
{
glyphname = D;
lastChange = "2021-11-26 10:45:51 +0000";
layers = (
{
anchors = (
{
name = bottom;
position = "{201, 0}";
},
{
name = center;
position = "{201, 296}";
},
{
name = top;
position = "{201, 591}";
}
);
layerId = "E9D5C8C2-E643-4C1D-A564-A66CB2499AF2";
paths = (
{
closed = 1;
nodes = (
"233 0 LINE SMOOTH",
"326 0 OFFCURVE",
"382 30 OFFCURVE",
"382 125 CURVE SMOOTH",
"382 490 LINE SMOOTH",
"382 550 OFFCURVE",
"345 591 OFFCURVE",
"257 591 CURVE SMOOTH",
"25 591 LINE",
"25 0 LINE"
);
},
{
closed = 1;
nodes = (
"100 298 LINE",
"103 549 LINE",
"107 549 LINE",
"110 298 LINE",
"107 47 LINE",
"103 47 LINE"
);
},
{
closed = 1;
nodes = (
"191 503 LINE",
"206 503 LINE SMOOTH",
"217 503 OFFCURVE",
"223 496 OFFCURVE",
"223 473 CURVE SMOOTH",
"223 110 LINE SMOOTH",
"223 87 OFFCURVE",
"217 80 OFFCURVE",
"206 80 CURVE SMOOTH",
"191 80 LINE"
);
},
{
closed = 1;
nodes = (
"199 45 OFFCURVE",
"195 45 OFFCURVE",
"191 46 CURVE",
"191 48 LINE",
"204 48 LINE SMOOTH",
"208 48 OFFCURVE",
"213 48 OFFCURVE",
"218 49 CURVE SMOOTH",
"234 49 LINE SMOOTH",
"275 49 OFFCURVE",
"296 71 OFFCURVE",
"296 114 CURVE SMOOTH",
"293 301 LINE",
"296 493 LINE SMOOTH",
"296 532 OFFCURVE",
"269 545 OFFCURVE",
"228 545 CURVE SMOOTH",
"194 546 LINE",
"194 548 LINE",
"228 549 LINE SMOOTH",
"271 549 OFFCURVE",
"300 534 OFFCURVE",
"300 493 CURVE SMOOTH",
"303 300 LINE",
"300 114 LINE SMOOTH",
"300 70 OFFCURVE",
"277 45 OFFCURVE",
"234 45 CURVE SMOOTH",
"204 45 LINE SMOOTH"
);
}
);
userData = {
assembly = "SVTCA[0]	/* SetFreedomAndProjectionVectorToAxis */\012PUSHW[ ]	/* 1 value pushed */\0120 \012RCVT[ ]	/* ReadCVT */\012IF[ ]	/* If */\012PUSHW[ ]	/* 1 value pushed */\01240 \012MDAP[1]	/* MoveDirectAbsPt */\012ELSE[ ]	/* Else */\012PUSHW[ ]	/* 2 values pushed */\01240 7 \012MIAP[0]	/* MoveIndirectAbsPt */\012EIF[ ]	/* EndIf */\012PUSHW[ ]	/* 2 values pushed */\01247 2 \012MIRP[10100]	/* MoveIndirectRelPt */\012PUSHW[ ]	/* 3 values pushed */\0123 40 47 \012SRP1[ ]	/* SetRefPoint1 */\012SRP2[ ]	/* SetRefPoint2 */\012IP[ ]	/* InterpolatePts */\012PUSHW[ ]	/* 3 values pushed */\01219 40 47 \012SRP1[ ]	/* SetRefPoint1 */\012SRP2[ ]	/* SetRefPoint2 */\012IP[ ]	/* InterpolatePts */\012IUP[0]	/* InterpolateUntPts */\012IUP[1]	/* InterpolateUntPts */";
};
width = 402;
},
{
anchors = (
{
name = bottom;
position = "{201, 0}";
},
{
name = center;
position = "{201, 296}";
},
{
name = top;
position = "{201, 591}";
}
);
associatedMasterId = "E9D5C8C2-E643-4C1D-A564-A66CB2499AF2";
background = {
paths = (
{
closed = 1;
nodes = (
"233 0 LINE SMOOTH",
"326 0 OFFCURVE",
"382 30 OFFCURVE",
"382 125 CURVE SMOOTH",
"382 490 LINE SMOOTH",
"382 549 OFFCURVE",
"345 591 OFFCURVE",
"257 591 CURVE SMOOTH",
"25 591 LINE",
"25 0 LINE"
);
},
{
closed = 1;
nodes = (
"191 503 LINE",
"206 503 LINE SMOOTH",
"216 503 OFFCURVE",
"223 496 OFFCURVE",
"223 473 CURVE SMOOTH",
"223 110 LINE SMOOTH",
"223 87 OFFCURVE",
"216 80 OFFCURVE",
"206 80 CURVE SMOOTH",
"191 80 LINE"
);
}
);
};
layerId = "8A3706BD-364F-4FE3-9C2E-7E87DF0DB4CC";
name = "Regular Backup";
paths = (
{
closed = 1;
nodes = (
"233 0 LINE SMOOTH",
"326 0 OFFCURVE",
"382 30 OFFCURVE",
"382 125 CURVE SMOOTH",
"382 490 LINE SMOOTH",
"382 549 OFFCURVE",
"345 591 OFFCURVE",
"257 591 CURVE SMOOTH",
"25 591 LINE",
"25 0 LINE"
);
},
{
closed = 1;
nodes = (
"191 503 LINE",
"206 503 LINE SMOOTH",
"216 503 OFFCURVE",
"223 496 OFFCURVE",
"223 473 CURVE SMOOTH",
"223 110 LINE SMOOTH",
"223 87 OFFCURVE",
"216 80 OFFCURVE",
"206 80 CURVE SMOOTH",
"191 80 LINE"
);
}
);
width = 402;
}
);
note = D;
unicode = 0044;
},
{
glyphname = Eth;
lastChange = "2021-11-26 10:45:51 +0000";
layers = (
{
layerId = "E9D5C8C2-E643-4C1D-A564-A66CB2499AF2";
paths = (
{
closed = 1;
nodes = (
"253 0 LINE SMOOTH",
"404 0 OFFCURVE",
"415 62 OFFCURVE",
"415 226 CURVE SMOOTH",
"415 389 LINE SMOOTH",
"415 544 OFFCURVE",
"411 591 OFFCURVE",
"261 591 CURVE SMOOTH",
"35 591 LINE",
"35 335 LINE",
"-1 335 LINE",
"-1 244 LINE",
"35 244 LINE",
"35 0 LINE"
);
},
{
closed = 1;
nodes = (
"119 298 LINE",
"122 549 LINE",
"126 549 LINE",
"129 298 LINE",
"126 47 LINE",
"122 47 LINE"
);
},
{
closed = 1;
nodes = (
"203 244 LINE",
"223 244 LINE",
"223 335 LINE",
"203 335 LINE",
"203 508 LINE",
"226 508 LINE SMOOTH",
"241 508 OFFCURVE",
"252 501 OFFCURVE",
"252 478 CURVE SMOOTH",
"251 297 LINE",
"251 112 LINE SMOOTH",
"251 88 OFFCURVE",
"241 81 OFFCURVE",
"226 81 CURVE SMOOTH",
"203 81 LINE"
);
},
{
closed = 1;
nodes = (
"232 45 OFFCURVE",
"228 45 OFFCURVE",
"224 46 CURVE",
"224 48 LINE",
"237 48 LINE SMOOTH",
"241 48 OFFCURVE",
"245 48 OFFCURVE",
"251 49 CURVE SMOOTH",
"267 49 LINE SMOOTH",
"308 50 OFFCURVE",
"330 71 OFFCURVE",
"329 114 CURVE SMOOTH",
"326 301 LINE",
"329 493 LINE SMOOTH",
"330 532 OFFCURVE",
"302 544 OFFCURVE",
"261 545 CURVE SMOOTH",
"227 546 LINE",
"227 548 LINE",
"261 549 LINE SMOOTH",
"304 550 OFFCURVE",
"332 534 OFFCURVE",
"333 493 CURVE SMOOTH",
"336 300 LINE",
"333 114 LINE SMOOTH",
"332 70 OFFCURVE",
"310 45 OFFCURVE",
"267 45 CURVE SMOOTH",
"237 45 LINE SMOOTH"
);
}
);
userData = {
assembly = "PUSHW[ ]	/* 4 values pushed */\0127 5 23 4 \012CALL[ ]	/* CallFunction */\012PUSHW[ ]	/* 1 value pushed */\01223 \012SRP0[ ]	/* SetRefPoint0 */\012PUSHW[ ]	/* 1 value pushed */\01218 \012MDRP[10000]	/* MoveDirectRelPt */\012PUSHW[ ]	/* 1 value pushed */\01218 \012MDAP[1]	/* MoveDirectAbsPt */\012PUSHW[ ]	/* 1 value pushed */\0127 \012SRP0[ ]	/* SetRefPoint0 */\012PUSHW[ ]	/* 1 value pushed */\01270 \012MDRP[11100]	/* MoveDirectRelPt */\012SVTCA[0]	/* SetFreedomAndProjectionVectorToAxis */\012PUSHW[ ]	/* 1 value pushed */\0120 \012RCVT[ ]	/* ReadCVT */\012IF[ ]	/* If */\012PUSHW[ ]	/* 1 value pushed */\01213 \012MDAP[1]	/* MoveDirectAbsPt */\012ELSE[ ]	/* Else */\012PUSHW[ ]	/* 2 values pushed */\01213 7 \012MIAP[0]	/* MoveIndirectAbsPt */\012EIF[ ]	/* EndIf */\012PUSHW[ ]	/* 2 values pushed */\01232 2 \012MIRP[10100]	/* MoveIndirectRelPt */\012PUSHW[ ]	/* 3 values pushed */\01240 13 32 \012SRP1[ ]	/* SetRefPoint1 */\012SRP2[ ]	/* SetRefPoint2 */\012IP[ ]	/* InterpolatePts */\012PUSHW[ ]	/* 3 values pushed */\01256 13 32 \012SRP1[ ]	/* SetRefPoint1 */\012SRP2[ ]	/* SetRefPoint2 */\012IP[ ]	/* InterpolatePts */\012IUP[0]	/* InterpolateUntPts */\012IUP[1]	/* InterpolateUntPts */";
};
width = 435;
},
{
associatedMasterId = "E9D5C8C2-E643-4C1D-A564-A66CB2499AF2";
background = {
paths = (
{
closed = 1;
nodes = (
"277 0 LINE SMOOTH",
"370 0 OFFCURVE",
"426 30 OFFCURVE",
"426 125 CURVE SMOOTH",
"426 490 LINE SMOOTH",
"426 549 OFFCURVE",
"389 591 OFFCURVE",
"301 591 CURVE SMOOTH",
"47 591 LINE",
"47 0 LINE"
);
},
{
closed = 1;
nodes = (
"236 246 LINE",
"236 335 LINE",
"7 335 LINE",
"7 246 LINE"
);
},
{
closed = 1;
nodes = (
"213 503 LINE",
"238 503 LINE SMOOTH",
"260 503 OFFCURVE",
"267 496 OFFCURVE",
"267 473 CURVE SMOOTH",
"267 110 LINE SMOOTH",
"267 87 OFFCURVE",
"260 80 OFFCURVE",
"238 80 CURVE SMOOTH",
"213 80 LINE"
);
}
);
};
layerId = "8A3706BD-364F-4FE3-9C2E-7E87DF0DB4CC";
name = "Regular Backup";
paths = (
{
closed = 1;
nodes = (
"277 0 LINE SMOOTH",
"370 0 OFFCURVE",
"426 30 OFFCURVE",
"426 125 CURVE SMOOTH",
"426 490 LINE SMOOTH",
"426 549 OFFCURVE",
"389 591 OFFCURVE",
"301 591 CURVE SMOOTH",
"47 591 LINE",
"47 0 LINE"
);
},
{
closed = 1;
nodes = (
"236 246 LINE",
"236 335 LINE",
"7 335 LINE",
"7 246 LINE"
);
},
{
closed = 1;
nodes = (
"213 503 LINE",
"238 503 LINE SMOOTH",
"260 503 OFFCURVE",
"267 496 OFFCURVE",
"267 473 CURVE SMOOTH",
"267 110 LINE SMOOTH",
"267 87 OFFCURVE",
"260 80 OFFCURVE",
"238 80 CURVE SMOOTH",
"213 80 LINE"
);
}
);
visible = 1;
width = 446;
}
);
note = Eth;
rightKerningGroup = parenright;
unicode = 00D0;
},
{
glyphname = E;
lastChange = "2021-11-26 06:21:39 +0000";
layers = (
{
anchors = (
{
name = bottom;
position = "{166, 0}";
},
{
name = ogonek;
position = "{289, 0}";
},
{
name = top;
position = "{166, 591}";
},
{
name = topleft;
position = "{20, 591}";
}
);
layerId = "E9D5C8C2-E643-4C1D-A564-A66CB2499AF2";
paths = (
{
closed = 1;
nodes = (
"311 0 LINE",
"311 108 LINE",
"191 108 LINE",
"191 240 LINE",
"301 240 LINE",
"301 365 LINE",
"191 365 LINE",
"191 480 LINE",
"311 480 LINE",
"311 591 LINE",
"25 591 LINE",
"25 0 LINE"
);
},
{
closed = 1;
nodes = (
"101 300 LINE",
"105 536 LINE",
"270 535 LINE",
"270 533 LINE",
"110 532 LINE",
"114 302 LINE",
"245 301 LINE",
"245 299 LINE",
"114 298 LINE",
"110 59 LINE",
"270 58 LINE",
"270 56 LINE",
"105 55 LINE"
);
}
);
userData = {
assembly = "SVTCA[0]	/* SetFreedomAndProjectionVectorToAxis */\012PUSHW[ ]	/* 1 value pushed */\0120 \012RCVT[ ]	/* ReadCVT */\012IF[ ]	/* If */\012PUSHW[ ]	/* 1 value pushed */\01223 \012MDAP[1]	/* MoveDirectAbsPt */\012ELSE[ ]	/* Else */\012PUSHW[ ]	/* 2 values pushed */\01223 7 \012MIAP[0]	/* MoveIndirectAbsPt */\012EIF[ ]	/* EndIf */\012PUSHW[ ]	/* 2 values pushed */\01221 4 \012MIRP[10100]	/* MoveIndirectRelPt */\012PUSHW[ ]	/* 3 values pushed */\0125 23 21 \012SRP1[ ]	/* SetRefPoint1 */\012SRP2[ ]	/* SetRefPoint2 */\012IP[ ]	/* InterpolatePts */\012IUP[0]	/* InterpolateUntPts */\012IUP[1]	/* InterpolateUntPts */";
};
width = 331;
},
{
anchors = (
{
name = bottom;
position = "{164, 0}";
},
{
name = ogonek;
position = "{287, 0}";
},
{
name = top;
position = "{167, 591}";
},
{
name = topleft;
position = "{20, 591}";
}
);
associatedMasterId = "E9D5C8C2-E643-4C1D-A564-A66CB2499AF2";
background = {
paths = (
{
closed = 1;
nodes = (
"311 0 LINE",
"311 108 LINE",
"191 108 LINE",
"191 240 LINE",
"301 240 LINE",
"301 365 LINE",
"191 365 LINE",
"191 480 LINE",
"311 480 LINE",
"311 591 LINE",
"25 591 LINE",
"25 0 LINE"
);
}
);
};
layerId = "8A3706BD-364F-4FE3-9C2E-7E87DF0DB4CC";
name = "Regular Backup";
paths = (
{
closed = 1;
nodes = (
"311 0 LINE",
"311 108 LINE",
"191 108 LINE",
"191 240 LINE",
"301 240 LINE",
"301 365 LINE",
"191 365 LINE",
"191 480 LINE",
"311 480 LINE",
"311 591 LINE",
"25 591 LINE",
"25 0 LINE"
);
}
);
visible = 1;
width = 328;
}
);
note = E;
unicode = 0045;
},
{
glyphname = Eogonek;
lastChange = "2021-11-26 06:21:41 +0000";
layers = (
{
components = (
{
name = E;
},
{
name = ogonekcomb;
transform = "{1, 0, 0, 1, 133, -1}";
}
);
layerId = "E9D5C8C2-E643-4C1D-A564-A66CB2499AF2";
width = 331;
},
{
associatedMasterId = "E9D5C8C2-E643-4C1D-A564-A66CB2499AF2";
background = {
components = (
{
name = E;
},
{
name = ogonek;
}
);
paths = (
{
closed = 0;
nodes = (
"-145.446 189.34 LINE",
"-146 189.34 OFFCURVE",
"-146.555 189.34 OFFCURVE",
"-147.109 189.34 CURVE SMOOTH"
);
}
);
};
components = (
{
name = E;
},
{
name = ogonekcomb;
transform = "{1, 0, 0, 1, 131, -1}";
}
);
layerId = "8A3706BD-364F-4FE3-9C2E-7E87DF0DB4CC";
name = "Regular Backup";
visible = 1;
width = 328;
}
);
unicode = 0118;
},
{
glyphname = F;
lastChange = "2021-11-26 04:45:04 +0000";
layers = (
{
layerId = "E9D5C8C2-E643-4C1D-A564-A66CB2499AF2";
paths = (
{
closed = 1;
nodes = (
"191 0 LINE",
"191 240 LINE",
"301 240 LINE",
"301 365 LINE",
"191 365 LINE",
"191 480 LINE",
"311 480 LINE",
"311 591 LINE",
"25 591 LINE",
"25 0 LINE"
);
},
{
closed = 1;
nodes = (
"101 300 LINE",
"105 536 LINE",
"270 535 LINE",
"270 533 LINE",
"110 532 LINE",
"114 302 LINE",
"245 301 LINE",
"245 299 LINE",
"114 298 LINE",
"110 55 LINE",
"105 55 LINE"
);
}
);
userData = {
assembly = "SVTCA[0]	/* SetFreedomAndProjectionVectorToAxis */\012PUSHW[ ]	/* 1 value pushed */\0120 \012RCVT[ ]	/* ReadCVT */\012IF[ ]	/* If */\012PUSHW[ ]	/* 1 value pushed */\0128 \012MDAP[1]	/* MoveDirectAbsPt */\012ELSE[ ]	/* Else */\012PUSHW[ ]	/* 2 values pushed */\0128 7 \012MIAP[0]	/* MoveIndirectAbsPt */\012EIF[ ]	/* EndIf */\012IUP[0]	/* InterpolateUntPts */\012IUP[1]	/* InterpolateUntPts */";
};
width = 321;
},
{
associatedMasterId = "E9D5C8C2-E643-4C1D-A564-A66CB2499AF2";
background = {
paths = (
{
closed = 1;
nodes = (
"191 0 LINE",
"191 240 LINE",
"301 240 LINE",
"301 365 LINE",
"191 365 LINE",
"191 480 LINE",
"311 480 LINE",
"311 591 LINE",
"25 591 LINE",
"25 0 LINE"
);
}
);
};
layerId = "8A3706BD-364F-4FE3-9C2E-7E87DF0DB4CC";
name = "Regular Backup";
paths = (
{
closed = 1;
nodes = (
"191 0 LINE",
"191 240 LINE",
"301 240 LINE",
"301 365 LINE",
"191 365 LINE",
"191 480 LINE",
"311 480 LINE",
"311 591 LINE",
"25 591 LINE",
"25 0 LINE"
);
}
);
width = 326;
}
);
note = F;
unicode = 0046;
},
{
glyphname = G;
lastChange = "2021-11-26 10:45:51 +0000";
layers = (
{
anchors = (
{
name = bottom;
position = "{206, 0}";
},
{
name = top;
position = "{201, 591}";
}
);
layerId = "E9D5C8C2-E643-4C1D-A564-A66CB2499AF2";
paths = (
{
closed = 1;
nodes = (
"204 -10 OFFCURVE",
"232 30 OFFCURVE",
"243 62 CURVE",
"257 0 LINE",
"377 0 LINE",
"377 311 LINE",
"198 311 LINE",
"198 222 LINE",
"223 222 LINE",
"223 110 LINE SMOOTH",
"223 87 OFFCURVE",
"214 80 OFFCURVE",
"201 80 CURVE SMOOTH",
"188 80 OFFCURVE",
"179 87 OFFCURVE",
"179 110 CURVE SMOOTH",
"179 473 LINE SMOOTH",
"179 496 OFFCURVE",
"188 503 OFFCURVE",
"201 503 CURVE SMOOTH",
"214 503 OFFCURVE",
"223 496 OFFCURVE",
"223 473 CURVE SMOOTH",
"223 373 LINE",
"377 373 LINE",
"377 463 LINE SMOOTH",
"377 562 OFFCURVE",
"302 598 OFFCURVE",
"196 598 CURVE SMOOTH",
"89 598 OFFCURVE",
"20 562 OFFCURVE",
"20 463 CURVE SMOOTH",
"20 151 LINE SMOOTH",
"20 30 OFFCURVE",
"72 -10 OFFCURVE",
"149 -10 CURVE SMOOTH"
);
},
{
closed = 1;
nodes = (
"304 264 LINE",
"268 264 LINE",
"239 265 LINE",
"239 267 LINE",
"313 268 LINE",
"310 47 LINE",
"306 47 LINE"
);
},
{
closed = 1;
nodes = (
"122 40 OFFCURVE",
"109 82 OFFCURVE",
"107 135 CURVE SMOOTH",
"101 293 LINE",
"106 466 LINE SMOOTH",
"108 519 OFFCURVE",
"130 549 OFFCURVE",
"202 549 CURVE SMOOTH",
"274 549 OFFCURVE",
"295 520 OFFCURVE",
"294 473 CURVE SMOOTH",
"293 409 LINE",
"291 409 LINE",
"290 473 LINE SMOOTH",
"289 517 OFFCURVE",
"270 545 OFFCURVE",
"202 545 CURVE SMOOTH",
"133 545 OFFCURVE",
"109 517 OFFCURVE",
"110 466 CURVE SMOOTH",
"113 293 LINE",
"111 138 LINE SMOOTH",
"110 83 OFFCURVE",
"126 43 OFFCURVE",
"170 47 CURVE",
"170 45 LINE"
);
}
);
userData = {
assembly = "SVTCA[0]	/* SetFreedomAndProjectionVectorToAxis */\012PUSHW[ ]	/* 1 value pushed */\0120 \012RCVT[ ]	/* ReadCVT */\012IF[ ]	/* If */\012PUSHW[ ]	/* 1 value pushed */\0129 \012MDAP[1]	/* MoveDirectAbsPt */\012ELSE[ ]	/* Else */\012PUSHW[ ]	/* 2 values pushed */\0129 7 \012MIAP[0]	/* MoveIndirectAbsPt */\012EIF[ ]	/* EndIf */\012PUSHW[ ]	/* 4 values pushed */\01243 1 16 4 \012CALL[ ]	/* CallFunction */\012PUSHW[ ]	/* 3 values pushed */\0125 16 43 \012SRP1[ ]	/* SetRefPoint1 */\012SRP2[ ]	/* SetRefPoint2 */\012IP[ ]	/* InterpolatePts */\012PUSHW[ ]	/* 3 values pushed */\01211 16 43 \012SRP1[ ]	/* SetRefPoint1 */\012SRP2[ ]	/* SetRefPoint2 */\012IP[ ]	/* InterpolatePts */\012IUP[0]	/* InterpolateUntPts */\012IUP[1]	/* InterpolateUntPts */";
};
width = 402;
},
{
anchors = (
{
name = bottom;
position = "{200, 0}";
},
{
name = top;
position = "{198, 591}";
}
);
associatedMasterId = "E9D5C8C2-E643-4C1D-A564-A66CB2499AF2";
background = {
paths = (
{
closed = 1;
nodes = (
"211 -10 OFFCURVE",
"239 18 OFFCURVE",
"249 38 CURVE",
"249 38 OFFCURVE",
"249 38 OFFCURVE",
"249 38 CURVE",
"257 0 LINE",
"377 0 LINE",
"377 311 LINE",
"198 311 LINE",
"198 222 LINE",
"223 222 LINE",
"223 110 LINE SMOOTH",
"223 87 OFFCURVE",
"214 80 OFFCURVE",
"201 80 CURVE SMOOTH",
"188 80 OFFCURVE",
"179 87 OFFCURVE",
"179 110 CURVE SMOOTH",
"179 473 LINE SMOOTH",
"179 496 OFFCURVE",
"188 503 OFFCURVE",
"201 503 CURVE SMOOTH",
"214 503 OFFCURVE",
"223 496 OFFCURVE",
"223 473 CURVE SMOOTH",
"223 373 LINE",
"377 373 LINE",
"377 463 LINE SMOOTH",
"377 562 OFFCURVE",
"302 598 OFFCURVE",
"196 598 CURVE SMOOTH",
"90 598 OFFCURVE",
"20 562 OFFCURVE",
"20 463 CURVE SMOOTH",
"20 151 LINE SMOOTH",
"20 14 OFFCURVE",
"87 -10 OFFCURVE",
"149 -10 CURVE SMOOTH"
);
}
);
};
layerId = "8A3706BD-364F-4FE3-9C2E-7E87DF0DB4CC";
name = "Regular Backup";
paths = (
{
closed = 1;
nodes = (
"211 -10 OFFCURVE",
"239 18 OFFCURVE",
"249 38 CURVE",
"249 38 OFFCURVE",
"249 38 OFFCURVE",
"249 38 CURVE",
"257 0 LINE",
"377 0 LINE",
"377 311 LINE",
"198 311 LINE",
"198 222 LINE",
"223 222 LINE",
"223 110 LINE SMOOTH",
"223 87 OFFCURVE",
"214 80 OFFCURVE",
"201 80 CURVE SMOOTH",
"188 80 OFFCURVE",
"179 87 OFFCURVE",
"179 110 CURVE SMOOTH",
"179 473 LINE SMOOTH",
"179 496 OFFCURVE",
"188 503 OFFCURVE",
"201 503 CURVE SMOOTH",
"214 503 OFFCURVE",
"223 496 OFFCURVE",
"223 473 CURVE SMOOTH",
"223 373 LINE",
"377 373 LINE",
"377 463 LINE SMOOTH",
"377 562 OFFCURVE",
"302 598 OFFCURVE",
"196 598 CURVE SMOOTH",
"90 598 OFFCURVE",
"20 562 OFFCURVE",
"20 463 CURVE SMOOTH",
"20 151 LINE SMOOTH",
"20 14 OFFCURVE",
"87 -10 OFFCURVE",
"149 -10 CURVE SMOOTH"
);
}
);
width = 395;
}
);
note = G;
unicode = 0047;
},
{
glyphname = H;
lastChange = "2021-11-26 04:45:04 +0000";
layers = (
{
anchors = (
{
name = bottom;
position = "{202, 0}";
},
{
name = center;
position = "{202, 296}";
},
{
name = top;
position = "{202, 591}";
},
{
name = topleft;
position = "{20, 591}";
}
);
layerId = "E9D5C8C2-E643-4C1D-A564-A66CB2499AF2";
paths = (
{
closed = 1;
nodes = (
"184 0 LINE",
"184 245 LINE",
"220 245 LINE",
"220 0 LINE",
"379 0 LINE",
"379 591 LINE",
"220 591 LINE",
"220 362 LINE",
"184 362 LINE",
"184 591 LINE",
"25 591 LINE",
"25 0 LINE"
);
},
{
closed = 1;
nodes = (
"96 300 LINE",
"101 547 LINE",
"105 547 LINE",
"109 302 LINE",
"200 301 LINE",
"291 302 LINE",
"295 547 LINE",
"299 547 LINE",
"304 300 LINE",
"300 47 LINE",
"296 47 LINE",
"291 298 LINE",
"200 299 LINE",
"109 298 LINE",
"104 47 LINE",
"100 47 LINE"
);
}
);
userData = {
assembly = "SVTCA[0]	/* SetFreedomAndProjectionVectorToAxis */\012PUSHW[ ]	/* 1 value pushed */\0120 \012RCVT[ ]	/* ReadCVT */\012IF[ ]	/* If */\012PUSHW[ ]	/* 1 value pushed */\01217 \012MDAP[1]	/* MoveDirectAbsPt */\012ELSE[ ]	/* Else */\012PUSHW[ ]	/* 2 values pushed */\01217 7 \012MIAP[0]	/* MoveIndirectAbsPt */\012EIF[ ]	/* EndIf */\012PUSHW[ ]	/* 1 value pushed */\0120 \012RCVT[ ]	/* ReadCVT */\012IF[ ]	/* If */\012PUSHW[ ]	/* 1 value pushed */\01225 \012MDAP[1]	/* MoveDirectAbsPt */\012ELSE[ ]	/* Else */\012PUSHW[ ]	/* 2 values pushed */\01225 7 \012MIAP[0]	/* MoveIndirectAbsPt */\012EIF[ ]	/* EndIf */\012PUSHW[ ]	/* 4 values pushed */\01221 4 16 4 \012CALL[ ]	/* CallFunction */\012IUP[0]	/* InterpolateUntPts */\012IUP[1]	/* InterpolateUntPts */";
};
width = 404;
},
{
anchors = (
{
name = bottom;
position = "{202, 0}";
},
{
name = center;
position = "{202, 296}";
},
{
name = top;
position = "{202, 591}";
},
{
name = topleft;
position = "{20, 591}";
}
);
associatedMasterId = "E9D5C8C2-E643-4C1D-A564-A66CB2499AF2";
background = {
paths = (
{
closed = 1;
nodes = (
"184 0 LINE",
"184 245 LINE",
"220 245 LINE",
"220 0 LINE",
"379 0 LINE",
"379 591 LINE",
"220 591 LINE",
"220 362 LINE",
"184 362 LINE",
"184 591 LINE",
"25 591 LINE",
"25 0 LINE"
);
}
);
};
layerId = "8A3706BD-364F-4FE3-9C2E-7E87DF0DB4CC";
name = "Regular Backup";
paths = (
{
closed = 1;
nodes = (
"184 0 LINE",
"184 245 LINE",
"220 245 LINE",
"220 0 LINE",
"379 0 LINE",
"379 591 LINE",
"220 591 LINE",
"220 362 LINE",
"184 362 LINE",
"184 591 LINE",
"25 591 LINE",
"25 0 LINE"
);
}
);
width = 404;
}
);
note = H;
unicode = 0048;
},
{
glyphname = Hbar;
lastChange = "2021-11-26 04:45:04 +0000";
layers = (
{
layerId = "E9D5C8C2-E643-4C1D-A564-A66CB2499AF2";
paths = (
{
closed = 1;
nodes = (
"184 0 LINE",
"184 245 LINE",
"220 245 LINE",
"220 0 LINE",
"379 0 LINE",
"379 591 LINE",
"220 591 LINE",
"220 362 LINE",
"184 362 LINE",
"184 591 LINE",
"25 591 LINE",
"25 0 LINE"
);
},
{
closed = 1;
nodes = (
"96 300 LINE",
"101 547 LINE",
"105 547 LINE",
"109 302 LINE",
"200 301 LINE",
"291 302 LINE",
"295 547 LINE",
"299 547 LINE",
"304 300 LINE",
"300 47 LINE",
"296 47 LINE",
"291 298 LINE",
"200 299 LINE",
"109 298 LINE",
"104 47 LINE",
"100 47 LINE"
);
},
{
closed = 1;
nodes = (
"71 477 LINE",
"71 549 LINE",
"-10 549 LINE",
"-10 477 LINE"
);
},
{
closed = 1;
nodes = (
"414 477 LINE",
"414 549 LINE",
"331 549 LINE",
"331 477 LINE"
);
}
);
width = 404;
},
{
anchors = (
{
name = bottom;
position = "{202, 0}";
},
{
name = center;
position = "{202, 296}";
},
{
name = top;
position = "{202, 591}";
},
{
name = topleft;
position = "{20, 591}";
}
);
associatedMasterId = "E9D5C8C2-E643-4C1D-A564-A66CB2499AF2";
background = {
components = (
{
name = H;
},
{
name = hyphen;
transform = "{1.91197, 0, 0, 0.69208, -57, 307}";
}
);
};
layerId = "8A3706BD-364F-4FE3-9C2E-7E87DF0DB4CC";
name = "Regular Backup";
paths = (
{
closed = 1;
nodes = (
"184 0 LINE",
"184 245 LINE",
"220 245 LINE",
"220 0 LINE",
"379 0 LINE",
"379 591 LINE",
"220 591 LINE",
"220 362 LINE",
"184 362 LINE",
"184 591 LINE",
"25 591 LINE",
"25 0 LINE"
);
},
{
closed = 1;
nodes = (
"406 435 LINE",
"406 507 LINE",
"0 507 LINE",
"0 435 LINE"
);
}
);
width = 404;
}
);
unicode = 0126;
},
{
glyphname = I;
lastChange = "2021-11-26 05:15:27 +0000";
layers = (
{
anchors = (
{
name = bottom;
position = "{110, 0}";
},
{
name = ogonek;
position = "{189, 0}";
},
{
name = top;
position = "{110, 591}";
},
{
name = topleft;
position = "{20, 591}";
}
);
layerId = "E9D5C8C2-E643-4C1D-A564-A66CB2499AF2";
paths = (
{
closed = 1;
nodes = (
"189 0 LINE",
"189 591 LINE",
"30 591 LINE",
"30 0 LINE"
);
},
{
closed = 1;
nodes = (
"101 300 LINE",
"106 547 LINE",
"110 547 LINE",
"114 300 LINE",
"109 47 LINE",
"105 47 LINE"
);
}
);
userData = {
assembly = "PUSHW[ ]	/* 4 values pushed */\0120 5 1 4 \012CALL[ ]	/* CallFunction */\012PUSHW[ ]	/* 3 values pushed */\0126 1 0 \012SRP1[ ]	/* SetRefPoint1 */\012SRP2[ ]	/* SetRefPoint2 */\012IP[ ]	/* InterpolatePts */\012PUSHW[ ]	/* 3 values pushed */\0129 1 0 \012SRP1[ ]	/* SetRefPoint1 */\012SRP2[ ]	/* SetRefPoint2 */\012IP[ ]	/* InterpolatePts */\012SVTCA[0]	/* SetFreedomAndProjectionVectorToAxis */\012PUSHW[ ]	/* 1 value pushed */\0120 \012RCVT[ ]	/* ReadCVT */\012IF[ ]	/* If */\012PUSHW[ ]	/* 1 value pushed */\0120 \012MDAP[1]	/* MoveDirectAbsPt */\012ELSE[ ]	/* Else */\012PUSHW[ ]	/* 2 values pushed */\0120 7 \012MIAP[0]	/* MoveIndirectAbsPt */\012EIF[ ]	/* EndIf */\012IUP[0]	/* InterpolateUntPts */\012IUP[1]	/* InterpolateUntPts */";
};
width = 219;
},
{
anchors = (
{
name = bottom;
position = "{105, 0}";
},
{
name = ogonek;
position = "{184, 0}";
},
{
name = top;
position = "{105, 591}";
},
{
name = topleft;
position = "{20, 591}";
}
);
associatedMasterId = "E9D5C8C2-E643-4C1D-A564-A66CB2499AF2";
background = {
paths = (
{
closed = 1;
nodes = (
"184 0 LINE",
"184 591 LINE",
"25 591 LINE",
"25 0 LINE"
);
}
);
};
layerId = "8A3706BD-364F-4FE3-9C2E-7E87DF0DB4CC";
name = "Regular Backup";
paths = (
{
closed = 1;
nodes = (
"184 0 LINE",
"184 591 LINE",
"25 591 LINE",
"25 0 LINE"
);
}
);
width = 209;
}
);
note = I;
unicode = 0049;
},
{
glyphname = J;
lastChange = "2021-11-26 10:45:51 +0000";
layers = (
{
anchors = (
{
name = bottom;
position = "{132, 0}";
},
{
name = top;
position = "{160, 591}";
}
);
layerId = "E9D5C8C2-E643-4C1D-A564-A66CB2499AF2";
paths = (
{
closed = 1;
nodes = (
"186 -3 OFFCURVE",
"239 34 OFFCURVE",
"239 159 CURVE SMOOTH",
"239 591 LINE",
"80 591 LINE",
"80 156 LINE SMOOTH",
"80 117 OFFCURVE",
"73 108 OFFCURVE",
"34 108 CURVE SMOOTH",
"5 108 LINE",
"5 0 LINE",
"59 -1 LINE SMOOTH"
);
},
{
closed = 1;
nodes = (
"80 63 LINE",
"93 64 OFFCURVE",
"106 69 OFFCURVE",
"117 77 CURVE SMOOTH",
"136 92 OFFCURVE",
"155 119 OFFCURVE",
"154 175 CURVE SMOOTH",
"152 300 LINE",
"157 547 LINE",
"161 547 LINE",
"166 300 LINE",
"163 177 LINE SMOOTH",
"162 117 OFFCURVE",
"142 89 OFFCURVE",
"121 74 CURVE SMOOTH",
"109 66 OFFCURVE",
"95 61 OFFCURVE",
"80 60 CURVE"
);
}
);
width = 264;
},
{
anchors = (
{
name = bottom;
position = "{132, 0}";
},
{
name = top;
position = "{161, 591}";
}
);
associatedMasterId = "E9D5C8C2-E643-4C1D-A564-A66CB2499AF2";
background = {
paths = (
{
closed = 1;
nodes = (
"186 -1 OFFCURVE",
"239 33 OFFCURVE",
"239 159 CURVE SMOOTH",
"239 591 LINE",
"80 591 LINE",
"80 156 LINE SMOOTH",
"80 117 OFFCURVE",
"72 108 OFFCURVE",
"34 108 CURVE SMOOTH",
"5 108 LINE",
"5 0 LINE",
"15 -1 OFFCURVE",
"48 -1 OFFCURVE",
"59 -1 CURVE SMOOTH"
);
}
);
};
layerId = "8A3706BD-364F-4FE3-9C2E-7E87DF0DB4CC";
name = "Regular Backup";
paths = (
{
closed = 1;
nodes = (
"186 -1 OFFCURVE",
"239 33 OFFCURVE",
"239 159 CURVE SMOOTH",
"239 591 LINE",
"80 591 LINE",
"80 156 LINE SMOOTH",
"80 117 OFFCURVE",
"72 108 OFFCURVE",
"34 108 CURVE SMOOTH",
"5 108 LINE",
"5 0 LINE",
"15 -1 OFFCURVE",
"48 -1 OFFCURVE",
"59 -1 CURVE SMOOTH"
);
}
);
width = 264;
}
);
note = J;
unicode = 004A;
},
{
glyphname = K;
lastChange = "2021-11-26 10:45:51 +0000";
layers = (
{
anchors = (
{
name = bottom;
position = "{215, 0}";
},
{
name = top;
position = "{215, 591}";
}
);
layerId = "E9D5C8C2-E643-4C1D-A564-A66CB2499AF2";
paths = (
{
closed = 1;
nodes = (
"184 0 LINE",
"184 266 LINE",
"242 0 LINE",
"419 0 LINE",
"317 307 LINE",
"417 591 LINE",
"234 591 LINE",
"184 350 LINE",
"184 591 LINE",
"25 591 LINE",
"25 0 LINE"
);
},
{
closed = 1;
nodes = (
"96 300 LINE",
"101 547 LINE",
"105 547 LINE",
"109 300 LINE",
"104 47 LINE",
"100 47 LINE"
);
},
{
closed = 1;
nodes = (
"304 73 OFFCURVE",
"296 99 OFFCURVE",
"289 125 CURVE SMOOTH",
"276 169 OFFCURVE",
"260 222 OFFCURVE",
"249 259 CURVE SMOOTH",
"233 304 LINE",
"249 349 LINE SMOOTH",
"254 366 OFFCURVE",
"260 386 OFFCURVE",
"267 409 CURVE SMOOTH",
"285 474 LINE SMOOTH",
"292 498 OFFCURVE",
"299 522 OFFCURVE",
"306 547 CURVE",
"311 547 LINE",
"247 304 LINE",
"247 301 OFFCURVE",
"274 207 OFFCURVE",
"283 173 CURVE SMOOTH",
"317 47 LINE",
"313 47 LINE"
);
}
);
userData = {
assembly = "PUSHW[ ]	/* 4 values pushed */\01229 5 30 4 \012CALL[ ]	/* CallFunction */\012PUSHW[ ]	/* 1 value pushed */\01229 \012SRP0[ ]	/* SetRefPoint0 */\012PUSHW[ ]	/* 1 value pushed */\01222 \012MDRP[10000]	/* MoveDirectRelPt */\012PUSHW[ ]	/* 3 values pushed */\01235 30 29 \012SRP1[ ]	/* SetRefPoint1 */\012SRP2[ ]	/* SetRefPoint2 */\012IP[ ]	/* InterpolatePts */\012PUSHW[ ]	/* 3 values pushed */\01238 30 29 \012SRP1[ ]	/* SetRefPoint1 */\012SRP2[ ]	/* SetRefPoint2 */\012IP[ ]	/* InterpolatePts */\012SVTCA[0]	/* SetFreedomAndProjectionVectorToAxis */\012PUSHW[ ]	/* 1 value pushed */\0120 \012RCVT[ ]	/* ReadCVT */\012IF[ ]	/* If */\012PUSHW[ ]	/* 1 value pushed */\01226 \012MDAP[1]	/* MoveDirectAbsPt */\012ELSE[ ]	/* Else */\012PUSHW[ ]	/* 2 values pushed */\01226 7 \012MIAP[0]	/* MoveIndirectAbsPt */\012EIF[ ]	/* EndIf */\012PUSHW[ ]	/* 1 value pushed */\0120 \012RCVT[ ]	/* ReadCVT */\012IF[ ]	/* If */\012PUSHW[ ]	/* 1 value pushed */\01229 \012MDAP[1]	/* MoveDirectAbsPt */\012ELSE[ ]	/* Else */\012PUSHW[ ]	/* 2 values pushed */\01229 7 \012MIAP[0]	/* MoveIndirectAbsPt */\012EIF[ ]	/* EndIf */\012IUP[0]	/* InterpolateUntPts */\012IUP[1]	/* InterpolateUntPts */";
};
width = 429;
},
{
anchors = (
{
name = bottom;
position = "{220, 0}";
},
{
name = top;
position = "{220, 591}";
}
);
associatedMasterId = "E9D5C8C2-E643-4C1D-A564-A66CB2499AF2";
background = {
paths = (
{
closed = 1;
nodes = (
"434 0 LINE",
"336 307 LINE",
"432 591 LINE",
"263 591 LINE",
"182 306 LINE",
"263 0 LINE"
);
},
{
closed = 1;
nodes = (
"184 0 LINE",
"184 591 LINE",
"25 591 LINE",
"25 0 LINE"
);
}
);
};
layerId = "8A3706BD-364F-4FE3-9C2E-7E87DF0DB4CC";
name = "Regular Backup";
paths = (
{
closed = 1;
nodes = (
"434 0 LINE",
"336 307 LINE",
"432 591 LINE",
"263 591 LINE",
"182 306 LINE",
"263 0 LINE"
);
},
{
closed = 1;
nodes = (
"184 0 LINE",
"184 591 LINE",
"25 591 LINE",
"25 0 LINE"
);
}
);
width = 439;
}
);
note = K;
unicode = 004B;
},
{
glyphname = L;
lastChange = "2021-11-26 04:45:04 +0000";
layers = (
{
anchors = (
{
name = bottom;
position = "{151, 0}";
},
{
name = center;
position = "{151, 296}";
},
{
name = top;
position = "{103, 591}";
},
{
name = topright;
position = "{232, 430}";
}
);
layerId = "E9D5C8C2-E643-4C1D-A564-A66CB2499AF2";
paths = (
{
closed = 1;
nodes = (
"291 0 LINE",
"291 108 LINE",
"182 108 LINE",
"182 591 LINE",
"25 591 LINE",
"25 0 LINE"
);
},
{
closed = 1;
nodes = (
"96 300 LINE",
"100 547 LINE",
"105 547 LINE",
"109 300 LINE",
"105 59 LINE",
"245 58 LINE",
"245 56 LINE",
"100 55 LINE"
);
}
);
userData = {
assembly = "PUSHW[ ]	/* 4 values pushed */\0121 5 0 4 \012CALL[ ]	/* CallFunction */\012SVTCA[0]	/* SetFreedomAndProjectionVectorToAxis */\012PUSHW[ ]	/* 1 value pushed */\0120 \012RCVT[ ]	/* ReadCVT */\012IF[ ]	/* If */\012PUSHW[ ]	/* 1 value pushed */\0124 \012MDAP[1]	/* MoveDirectAbsPt */\012ELSE[ ]	/* Else */\012PUSHW[ ]	/* 2 values pushed */\0124 7 \012MIAP[0]	/* MoveIndirectAbsPt */\012EIF[ ]	/* EndIf */\012PUSHW[ ]	/* 2 values pushed */\0122 4 \012MIRP[10100]	/* MoveIndirectRelPt */\012PUSHW[ ]	/* 3 values pushed */\01210 4 2 \012SRP1[ ]	/* SetRefPoint1 */\012SRP2[ ]	/* SetRefPoint2 */\012IP[ ]	/* InterpolatePts */\012IUP[0]	/* InterpolateUntPts */\012IUP[1]	/* InterpolateUntPts */";
};
width = 301;
},
{
anchors = (
{
name = bottom;
position = "{155, 0}";
},
{
name = center;
position = "{151, 296}";
},
{
name = top;
position = "{151, 591}";
},
{
name = topright;
position = "{197, 446}";
}
);
associatedMasterId = "E9D5C8C2-E643-4C1D-A564-A66CB2499AF2";
background = {
paths = (
{
closed = 1;
nodes = (
"291 0 LINE",
"291 108 LINE",
"182 108 LINE",
"182 591 LINE",
"25 591 LINE",
"25 0 LINE"
);
}
);
};
layerId = "8A3706BD-364F-4FE3-9C2E-7E87DF0DB4CC";
name = "Regular Backup";
paths = (
{
closed = 1;
nodes = (
"291 0 LINE",
"291 108 LINE",
"182 108 LINE",
"182 591 LINE",
"25 591 LINE",
"25 0 LINE"
);
}
);
width = 301;
}
);
note = L;
rightKerningGroup = L;
unicode = 004C;
},
{
glyphname = Lslash;
lastChange = "2021-11-26 04:45:04 +0000";
layers = (
{
layerId = "E9D5C8C2-E643-4C1D-A564-A66CB2499AF2";
paths = (
{
closed = 1;
nodes = (
"333 0 LINE",
"333 108 LINE",
"224 108 LINE",
"224 225 LINE",
"285 253 LINE",
"285 316 LINE",
"224 289 LINE",
"224 585 LINE",
"67 585 LINE",
"67 219 LINE",
"15 196 LINE",
"15 132 LINE",
"67 155 LINE",
"67 0 LINE"
);
},
{
closed = 1;
nodes = (
"138 300 LINE",
"142 547 LINE",
"147 547 LINE",
"151 300 LINE",
"147 59 LINE",
"287 58 LINE",
"287 56 LINE",
"142 55 LINE"
);
}
);
width = 353;
},
{
associatedMasterId = "E9D5C8C2-E643-4C1D-A564-A66CB2499AF2";
background = {
paths = (
{
closed = 1;
nodes = (
"333 0 LINE",
"333 108 LINE",
"224 108 LINE",
"224 225 LINE",
"285 253 LINE",
"285 316 LINE",
"224 289 LINE",
"224 585 LINE",
"67 585 LINE",
"67 219 LINE",
"15 196 LINE",
"15 132 LINE",
"67 155 LINE",
"67 0 LINE"
);
}
);
};
layerId = "8A3706BD-364F-4FE3-9C2E-7E87DF0DB4CC";
name = "Regular Backup";
paths = (
{
closed = 1;
nodes = (
"333 0 LINE",
"333 108 LINE",
"224 108 LINE",
"224 225 LINE",
"285 253 LINE",
"285 316 LINE",
"224 289 LINE",
"224 585 LINE",
"67 585 LINE",
"67 219 LINE",
"15 196 LINE",
"15 132 LINE",
"67 155 LINE",
"67 0 LINE"
);
}
);
visible = 1;
width = 353;
}
);
note = Lslash;
unicode = 0141;
},
{
glyphname = M;
lastChange = "2021-11-26 10:45:51 +0000";
layers = (
{
layerId = "E9D5C8C2-E643-4C1D-A564-A66CB2499AF2";
paths = (
{
closed = 1;
nodes = (
"164 0 LINE",
"164 412 LINE",
"217 0 LINE",
"323 0 LINE",
"376 412 LINE",
"376 0 LINE",
"515 0 LINE",
"515 591 LINE",
"313 591 LINE",
"270 289 LINE",
"227 591 LINE",
"25 591 LINE",
"25 0 LINE"
);
},
{
closed = 1;
nodes = (
"89 300 LINE",
"94 547 LINE",
"98 547 LINE",
"102 300 LINE",
"97 47 LINE",
"93 47 LINE"
);
},
{
closed = 1;
nodes = (
"270 53 OFFCURVE",
"262 87 OFFCURVE",
"254 121 CURVE SMOOTH",
"245 164 OFFCURVE",
"233 220 OFFCURVE",
"224 277 CURVE SMOOTH",
"213 338 OFFCURVE",
"203 403 OFFCURVE",
"195 452 CURVE SMOOTH",
"181 535 LINE",
"183 535 LINE",
"201 451 LINE SMOOTH",
"212 402 OFFCURVE",
"223 338 OFFCURVE",
"234 278 CURVE SMOOTH",
"243 225 OFFCURVE",
"252 171 OFFCURVE",
"259 130 CURVE SMOOTH",
"270 61 LINE",
"304 279 LINE",
"358 534 LINE",
"360 534 LINE",
"345 452 LINE SMOOTH",
"336 403 OFFCURVE",
"325 339 OFFCURVE",
"314 278 CURVE SMOOTH",
"298 192 LINE SMOOTH",
"293 165 OFFCURVE",
"288 140 OFFCURVE",
"284 119 CURVE SMOOTH",
"270 47 LINE"
);
},
{
closed = 1;
nodes = (
"440 300 LINE",
"445 547 LINE",
"449 547 LINE",
"453 300 LINE",
"448 47 LINE",
"444 47 LINE"
);
}
);
userData = {
assembly = "PUSHW[ ]	/* 4 values pushed */\01213 5 2 4 \012CALL[ ]	/* CallFunction */\012PUSHW[ ]	/* 3 values pushed */\0120 2 13 \012SRP1[ ]	/* SetRefPoint1 */\012SRP2[ ]	/* SetRefPoint2 */\012IP[ ]	/* InterpolatePts */\012PUSHW[ ]	/* 3 values pushed */\01249 2 13 \012SRP1[ ]	/* SetRefPoint1 */\012SRP2[ ]	/* SetRefPoint2 */\012IP[ ]	/* InterpolatePts */\012PUSHW[ ]	/* 3 values pushed */\01252 2 13 \012SRP1[ ]	/* SetRefPoint1 */\012SRP2[ ]	/* SetRefPoint2 */\012IP[ ]	/* InterpolatePts */\012SVTCA[0]	/* SetFreedomAndProjectionVectorToAxis */\012PUSHW[ ]	/* 1 value pushed */\0120 \012RCVT[ ]	/* ReadCVT */\012IF[ ]	/* If */\012PUSHW[ ]	/* 1 value pushed */\0121 \012MDAP[1]	/* MoveDirectAbsPt */\012ELSE[ ]	/* Else */\012PUSHW[ ]	/* 2 values pushed */\0121 7 \012MIAP[0]	/* MoveIndirectAbsPt */\012EIF[ ]	/* EndIf */\012PUSHW[ ]	/* 1 value pushed */\0120 \012RCVT[ ]	/* ReadCVT */\012IF[ ]	/* If */\012PUSHW[ ]	/* 1 value pushed */\0128 \012MDAP[1]	/* MoveDirectAbsPt */\012ELSE[ ]	/* Else */\012PUSHW[ ]	/* 2 values pushed */\0128 7 \012MIAP[0]	/* MoveIndirectAbsPt */\012EIF[ ]	/* EndIf */\012PUSHW[ ]	/* 1 value pushed */\0120 \012RCVT[ ]	/* ReadCVT */\012IF[ ]	/* If */\012PUSHW[ ]	/* 1 value pushed */\01211 \012MDAP[1]	/* MoveDirectAbsPt */\012ELSE[ ]	/* Else */\012PUSHW[ ]	/* 2 values pushed */\01211 7 \012MIAP[0]	/* MoveIndirectAbsPt */\012EIF[ ]	/* EndIf */\012IUP[0]	/* InterpolateUntPts */\012IUP[1]	/* InterpolateUntPts */";
};
width = 540;
},
{
associatedMasterId = "E9D5C8C2-E643-4C1D-A564-A66CB2499AF2";
background = {
paths = (
{
closed = 1;
nodes = (
"164 0 LINE",
"164 412 LINE",
"217 0 LINE",
"323 0 LINE",
"376 412 LINE",
"376 0 LINE",
"515 0 LINE",
"515 591 LINE",
"313 591 LINE",
"270 289 LINE",
"227 591 LINE",
"25 591 LINE",
"25 0 LINE"
);
}
);
};
layerId = "8A3706BD-364F-4FE3-9C2E-7E87DF0DB4CC";
name = "Regular Backup";
paths = (
{
closed = 1;
nodes = (
"164 0 LINE",
"164 412 LINE",
"217 0 LINE",
"323 0 LINE",
"376 412 LINE",
"376 0 LINE",
"515 0 LINE",
"515 591 LINE",
"313 591 LINE",
"270 289 LINE",
"227 591 LINE",
"25 591 LINE",
"25 0 LINE"
);
}
);
width = 540;
}
);
note = M;
unicode = 004D;
},
{
glyphname = N;
lastChange = "2021-11-26 06:23:14 +0000";
layers = (
{
anchors = (
{
name = bottom;
position = "{200, 0}";
},
{
name = top;
position = "{199, 591}";
}
);
layerId = "E9D5C8C2-E643-4C1D-A564-A66CB2499AF2";
paths = (
{
closed = 1;
nodes = (
"164 0 LINE",
"164 245 LINE",
"237 0 LINE",
"374 0 LINE",
"374 591 LINE",
"235 591 LINE",
"235 316 LINE",
"163 591 LINE",
"25 591 LINE",
"25 0 LINE"
);
},
{
closed = 1;
nodes = (
"90 300 LINE",
"93 547 LINE",
"96 547 LINE",
"199 299 LINE",
"300 57 LINE",
"296 300 LINE",
"299 547 LINE",
"304 547 LINE",
"307 300 LINE",
"304 47 LINE",
"301 47 LINE",
"185 305 LINE",
"98 534 LINE",
"101 300 LINE",
"98 47 LINE",
"93 47 LINE"
);
}
);
userData = {
assembly = "PUSHW[ ]	/* 4 values pushed */\0127 5 19 4 \012CALL[ ]	/* CallFunction */\012PUSHW[ ]	/* 3 values pushed */\0121 19 7 \012SRP1[ ]	/* SetRefPoint1 */\012SRP2[ ]	/* SetRefPoint2 */\012IP[ ]	/* InterpolatePts */\012PUSHW[ ]	/* 3 values pushed */\0124 19 7 \012SRP1[ ]	/* SetRefPoint1 */\012SRP2[ ]	/* SetRefPoint2 */\012IP[ ]	/* InterpolatePts */\012PUSHW[ ]	/* 3 values pushed */\01216 19 7 \012SRP1[ ]	/* SetRefPoint1 */\012SRP2[ ]	/* SetRefPoint2 */\012IP[ ]	/* InterpolatePts */\012SVTCA[0]	/* SetFreedomAndProjectionVectorToAxis */\012PUSHW[ ]	/* 1 value pushed */\0120 \012RCVT[ ]	/* ReadCVT */\012IF[ ]	/* If */\012PUSHW[ ]	/* 1 value pushed */\01217 \012MDAP[1]	/* MoveDirectAbsPt */\012ELSE[ ]	/* Else */\012PUSHW[ ]	/* 2 values pushed */\01217 7 \012MIAP[0]	/* MoveIndirectAbsPt */\012EIF[ ]	/* EndIf */\012PUSHW[ ]	/* 1 value pushed */\0120 \012RCVT[ ]	/* ReadCVT */\012IF[ ]	/* If */\012PUSHW[ ]	/* 1 value pushed */\01224 \012MDAP[1]	/* MoveDirectAbsPt */\012ELSE[ ]	/* Else */\012PUSHW[ ]	/* 2 values pushed */\01224 7 \012MIAP[0]	/* MoveIndirectAbsPt */\012EIF[ ]	/* EndIf */\012IUP[0]	/* InterpolateUntPts */\012IUP[1]	/* InterpolateUntPts */";
};
width = 399;
},
{
anchors = (
{
name = bottom;
position = "{200, 0}";
},
{
name = top;
position = "{203, 591}";
}
);
associatedMasterId = "E9D5C8C2-E643-4C1D-A564-A66CB2499AF2";
background = {
paths = (
{
closed = 1;
nodes = (
"164 0 LINE",
"164 245 LINE",
"237 0 LINE",
"374 0 LINE",
"374 591 LINE",
"235 591 LINE",
"235 316 LINE",
"163 591 LINE",
"25 591 LINE",
"25 0 LINE"
);
}
);
};
layerId = "8A3706BD-364F-4FE3-9C2E-7E87DF0DB4CC";
name = "Regular Backup";
paths = (
{
closed = 1;
nodes = (
"164 0 LINE",
"164 245 LINE",
"237 0 LINE",
"374 0 LINE",
"374 591 LINE",
"235 591 LINE",
"235 316 LINE",
"163 591 LINE",
"25 591 LINE",
"25 0 LINE"
);
}
);
width = 399;
}
);
note = N;
unicode = 004E;
},
{
glyphname = Eng;
lastChange = "2021-11-26 04:45:04 +0000";
layers = (
{
layerId = "E9D5C8C2-E643-4C1D-A564-A66CB2499AF2";
paths = (
{
closed = 1;
nodes = (
"328 -196 OFFCURVE",
"374 -164 OFFCURVE",
"374 -36 CURVE SMOOTH",
"375 591 LINE",
"236 591 LINE",
"235 316 LINE",
"164 591 LINE",
"26 591 LINE",
"25 0 LINE",
"164 0 LINE",
"164 245 LINE",
"236 2 LINE",
"236 -39 LINE SMOOTH",
"236 -79 OFFCURVE",
"228 -87 OFFCURVE",
"189 -87 CURVE SMOOTH",
"160 -87 LINE",
"160 -195 LINE",
"170 -196 OFFCURVE",
"203 -196 OFFCURVE",
"214 -196 CURVE SMOOTH"
);
},
{
closed = 1;
nodes = (
"226 -140 LINE",
"277 -140 OFFCURVE",
"297 -103 OFFCURVE",
"298 -55 CURVE SMOOTH",
"301 47 LINE",
"304 47 LINE",
"305 -59 LINE SMOOTH",
"305 -100 OFFCURVE",
"280 -146 OFFCURVE",
"226 -141 CURVE"
);
},
{
closed = 1;
nodes = (
"90 300 LINE",
"93 547 LINE",
"96 547 LINE",
"199 299 LINE",
"300 57 LINE",
"296 300 LINE",
"299 547 LINE",
"304 547 LINE",
"307 300 LINE",
"304 47 LINE",
"301 47 LINE",
"185 305 LINE",
"98 534 LINE",
"101 300 LINE",
"98 47 LINE",
"93 47 LINE"
);
}
);
width = 400;
},
{
associatedMasterId = "E9D5C8C2-E643-4C1D-A564-A66CB2499AF2";
background = {
paths = (
{
closed = 1;
nodes = (
"321 -250 OFFCURVE",
"374 -215 OFFCURVE",
"374 -90 CURVE SMOOTH",
"374 591 LINE",
"235 591 LINE",
"235 316 LINE",
"163 591 LINE",
"25 591 LINE",
"25 0 LINE",
"164 0 LINE",
"164 245 LINE",
"215 74 LINE",
"215 -93 LINE SMOOTH",
"215 -132 OFFCURVE",
"208 -141 OFFCURVE",
"169 -141 CURVE SMOOTH",
"159 -141 OFFCURVE",
"150 -141 OFFCURVE",
"140 -141 CURVE",
"140 -249 LINE",
"158 -249 OFFCURVE",
"176 -250 OFFCURVE",
"194 -250 CURVE SMOOTH"
);
}
);
};
layerId = "8A3706BD-364F-4FE3-9C2E-7E87DF0DB4CC";
name = "Regular Backup";
paths = (
{
closed = 1;
nodes = (
"328 -196 OFFCURVE",
"374 -164 OFFCURVE",
"374 -36 CURVE SMOOTH",
"375 591 LINE",
"236 591 LINE",
"235 316 LINE",
"164 591 LINE",
"26 591 LINE",
"25 0 LINE",
"164 0 LINE",
"164 245 LINE",
"236 2 LINE",
"236 -39 LINE SMOOTH",
"236 -79 OFFCURVE",
"228 -87 OFFCURVE",
"189 -87 CURVE SMOOTH",
"160 -87 LINE",
"160 -195 LINE",
"170 -196 OFFCURVE",
"203 -196 OFFCURVE",
"214 -196 CURVE SMOOTH"
);
}
);
width = 400;
}
);
leftMetricsKey = H;
rightMetricsKey = H;
unicode = 014A;
},
{
glyphname = O;
lastChange = "2021-11-26 10:45:51 +0000";
layers = (
{
anchors = (
{
name = bottom;
position = "{204, 0}";
},
{
name = center;
position = "{204, 296}";
},
{
name = ogonek;
position = "{268, 0}";
},
{
name = top;
position = "{207, 591}";
},
{
name = topleft;
position = "{20, 591}";
},
{
name = topright;
position = "{255, 591}";
}
);
layerId = "E9D5C8C2-E643-4C1D-A564-A66CB2499AF2";
paths = (
{
closed = 1;
nodes = (
"327 -12 OFFCURVE",
"382 24 OFFCURVE",
"382 174 CURVE SMOOTH",
"382 465 LINE SMOOTH",
"382 564 OFFCURVE",
"316 600 OFFCURVE",
"207 600 CURVE SMOOTH",
"98 600 OFFCURVE",
"25 564 OFFCURVE",
"25 465 CURVE SMOOTH",
"25 173 LINE SMOOTH",
"25 24 OFFCURVE",
"86 -12 OFFCURVE",
"207 -12 CURVE SMOOTH"
);
},
{
closed = 1;
nodes = (
"202 80 OFFCURVE",
"198 82 OFFCURVE",
"195 87 CURVE SMOOTH",
"192 91 OFFCURVE",
"191 99 OFFCURVE",
"191 110 CURVE SMOOTH",
"191 473 LINE SMOOTH",
"191 484 OFFCURVE",
"192 492 OFFCURVE",
"195 497 CURVE SMOOTH",
"198 501 OFFCURVE",
"202 503 OFFCURVE",
"207 503 CURVE SMOOTH",
"212 503 OFFCURVE",
"216 501 OFFCURVE",
"219 497 CURVE SMOOTH",
"222 492 OFFCURVE",
"223 484 OFFCURVE",
"223 473 CURVE SMOOTH",
"223 110 LINE SMOOTH",
"223 99 OFFCURVE",
"222 91 OFFCURVE",
"219 87 CURVE SMOOTH",
"216 82 OFFCURVE",
"212 80 OFFCURVE",
"207 80 CURVE SMOOTH"
);
},
{
closed = 1;
nodes = (
"128 45 OFFCURVE",
"106 70 OFFCURVE",
"105 114 CURVE SMOOTH",
"101 300 LINE",
"105 493 LINE SMOOTH",
"106 534 OFFCURVE",
"134 550 OFFCURVE",
"177 549 CURVE SMOOTH",
"207 548 LINE",
"232 549 LINE SMOOTH",
"275 551 OFFCURVE",
"303 534 OFFCURVE",
"304 493 CURVE SMOOTH",
"308 300 LINE",
"304 114 LINE SMOOTH",
"303 70 OFFCURVE",
"281 45 OFFCURVE",
"238 45 CURVE SMOOTH",
"214 45 LINE SMOOTH",
"211 45 OFFCURVE",
"209 45 OFFCURVE",
"207 46 CURVE",
"204 45 OFFCURVE",
"201 45 OFFCURVE",
"198 45 CURVE SMOOTH",
"171 45 LINE SMOOTH"
);
},
{
closed = 1;
nodes = (
"214 48 LINE",
"224 49 LINE",
"238 49 LINE SMOOTH",
"279 50 OFFCURVE",
"301 71 OFFCURVE",
"300 114 CURVE SMOOTH",
"295 301 LINE",
"300 493 LINE SMOOTH",
"301 532 OFFCURVE",
"273 543 OFFCURVE",
"232 545 CURVE SMOOTH",
"207 546 LINE",
"177 545 LINE SMOOTH",
"136 544 OFFCURVE",
"108 532 OFFCURVE",
"109 493 CURVE SMOOTH",
"114 301 LINE",
"109 114 LINE SMOOTH",
"108 71 OFFCURVE",
"130 50 OFFCURVE",
"171 49 CURVE SMOOTH",
"186 49 LINE",
"198 48 LINE"
);
}
);
width = 407;
},
{
anchors = (
{
name = bottom;
position = "{199, 0}";
},
{
name = center;
position = "{199, 296}";
},
{
name = ogonek;
position = "{271, 0}";
},
{
name = top;
position = "{199, 591}";
},
{
name = topleft;
position = "{20, 591}";
},
{
name = topright;
position = "{241, 591}";
}
);
associatedMasterId = "E9D5C8C2-E643-4C1D-A564-A66CB2499AF2";
background = {
paths = (
{
closed = 1;
nodes = (
"303 -12 OFFCURVE",
"377 14 OFFCURVE",
"377 174 CURVE SMOOTH",
"377 465 LINE SMOOTH",
"377 564 OFFCURVE",
"303 600 OFFCURVE",
"197 600 CURVE SMOOTH",
"91 600 OFFCURVE",
"20 564 OFFCURVE",
"20 465 CURVE SMOOTH",
"20 173 LINE SMOOTH",
"20 14 OFFCURVE",
"91 -12 OFFCURVE",
"197 -12 CURVE SMOOTH"
);
},
{
closed = 1;
nodes = (
"185 80 OFFCURVE",
"176 92 OFFCURVE",
"176 110 CURVE SMOOTH",
"176 473 LINE SMOOTH",
"176 491 OFFCURVE",
"185 503 OFFCURVE",
"197 503 CURVE SMOOTH",
"209 503 OFFCURVE",
"218 491 OFFCURVE",
"218 473 CURVE SMOOTH",
"218 110 LINE SMOOTH",
"218 92 OFFCURVE",
"209 80 OFFCURVE",
"197 80 CURVE SMOOTH"
);
}
);
};
layerId = "8A3706BD-364F-4FE3-9C2E-7E87DF0DB4CC";
name = "Regular Backup";
paths = (
{
closed = 1;
nodes = (
"303 -12 OFFCURVE",
"377 14 OFFCURVE",
"377 174 CURVE SMOOTH",
"377 465 LINE SMOOTH",
"377 564 OFFCURVE",
"303 600 OFFCURVE",
"197 600 CURVE SMOOTH",
"91 600 OFFCURVE",
"20 564 OFFCURVE",
"20 465 CURVE SMOOTH",
"20 173 LINE SMOOTH",
"20 14 OFFCURVE",
"91 -12 OFFCURVE",
"197 -12 CURVE SMOOTH"
);
},
{
closed = 1;
nodes = (
"185 80 OFFCURVE",
"176 92 OFFCURVE",
"176 110 CURVE SMOOTH",
"176 473 LINE SMOOTH",
"176 491 OFFCURVE",
"185 503 OFFCURVE",
"197 503 CURVE SMOOTH",
"209 503 OFFCURVE",
"218 491 OFFCURVE",
"218 473 CURVE SMOOTH",
"218 110 LINE SMOOTH",
"218 92 OFFCURVE",
"209 80 OFFCURVE",
"197 80 CURVE SMOOTH"
);
}
);
width = 397;
}
);
note = O;
unicode = 004F;
},
{
glyphname = Oslash;
lastChange = "2021-11-26 10:45:51 +0000";
layers = (
{
anchors = (
{
name = bottom;
position = "{199, 0}";
},
{
name = top;
position = "{202, 591}";
}
);
layerId = "E9D5C8C2-E643-4C1D-A564-A66CB2499AF2";
paths = (
{
closed = 1;
nodes = (
"60 -44 LINE",
"87 9 LINE",
"118 -7 OFFCURVE",
"155 -12 OFFCURVE",
"202 -12 CURVE SMOOTH",
"322 -12 OFFCURVE",
"377 24 OFFCURVE",
"377 174 CURVE SMOOTH",
"377 465 LINE SMOOTH",
"377 496 OFFCURVE",
"370 521 OFFCURVE",
"357 542 CURVE",
"402 630 LINE",
"334 630 LINE",
"309 581 LINE",
"282 594 OFFCURVE",
"246 600 OFFCURVE",
"202 600 CURVE SMOOTH",
"93 600 OFFCURVE",
"20 564 OFFCURVE",
"20 465 CURVE SMOOTH",
"20 173 LINE SMOOTH",
"20 120 OFFCURVE",
"28 82 OFFCURVE",
"43 54 CURVE",
"-7 -44 LINE"
);
},
{
closed = 1;
nodes = (
"197 80 OFFCURVE",
"193 82 OFFCURVE",
"190 87 CURVE SMOOTH",
"187 91 OFFCURVE",
"186 99 OFFCURVE",
"186 110 CURVE SMOOTH",
"186 224 LINE",
"218 287 LINE",
"218 110 LINE SMOOTH",
"218 99 OFFCURVE",
"217 91 OFFCURVE",
"214 87 CURVE SMOOTH",
"211 82 OFFCURVE",
"207 80 OFFCURVE",
"202 80 CURVE SMOOTH"
);
},
{
closed = 1;
nodes = (
"128 45 OFFCURVE",
"106 70 OFFCURVE",
"105 114 CURVE SMOOTH",
"101 300 LINE",
"105 493 LINE SMOOTH",
"106 534 OFFCURVE",
"134 550 OFFCURVE",
"177 549 CURVE SMOOTH",
"207 548 LINE",
"232 549 LINE SMOOTH",
"275 551 OFFCURVE",
"303 534 OFFCURVE",
"304 493 CURVE SMOOTH",
"308 300 LINE",
"304 114 LINE SMOOTH",
"303 70 OFFCURVE",
"281 45 OFFCURVE",
"238 45 CURVE SMOOTH",
"214 45 LINE SMOOTH",
"211 45 OFFCURVE",
"209 45 OFFCURVE",
"207 46 CURVE",
"204 45 OFFCURVE",
"201 45 OFFCURVE",
"198 45 CURVE SMOOTH",
"171 45 LINE SMOOTH"
);
},
{
closed = 1;
nodes = (
"214 48 LINE",
"224 49 LINE",
"238 49 LINE SMOOTH",
"279 50 OFFCURVE",
"301 71 OFFCURVE",
"300 114 CURVE SMOOTH",
"295 301 LINE",
"300 493 LINE SMOOTH",
"301 532 OFFCURVE",
"273 543 OFFCURVE",
"232 545 CURVE SMOOTH",
"207 546 LINE",
"177 545 LINE SMOOTH",
"136 544 OFFCURVE",
"108 532 OFFCURVE",
"109 493 CURVE SMOOTH",
"114 301 LINE",
"109 114 LINE SMOOTH",
"108 71 OFFCURVE",
"130 50 OFFCURVE",
"171 49 CURVE SMOOTH",
"186 49 LINE",
"198 48 LINE"
);
},
{
closed = 1;
nodes = (
"186 473 LINE SMOOTH",
"186 484 OFFCURVE",
"187 492 OFFCURVE",
"190 497 CURVE SMOOTH",
"193 501 OFFCURVE",
"197 503 OFFCURVE",
"202 503 CURVE SMOOTH",
"207 503 OFFCURVE",
"211 501 OFFCURVE",
"214 497 CURVE SMOOTH",
"217 492 OFFCURVE",
"218 484 OFFCURVE",
"218 473 CURVE SMOOTH",
"218 380 LINE",
"186 317 LINE"
);
}
);
userData = {
assembly = "SVTCA[0]	/* SetFreedomAndProjectionVectorToAxis */\012PUSHW[ ]	/* 3 values pushed */\01216 4 3 \012CALL[ ]	/* CallFunction */\012PUSHW[ ]	/* 3 values pushed */\01230 4 16 \012SRP1[ ]	/* SetRefPoint1 */\012SRP2[ ]	/* SetRefPoint2 */\012IP[ ]	/* InterpolatePts */\012PUSHW[ ]	/* 3 values pushed */\01235 4 16 \012SRP1[ ]	/* SetRefPoint1 */\012SRP2[ ]	/* SetRefPoint2 */\012IP[ ]	/* InterpolatePts */\012IUP[0]	/* InterpolateUntPts */\012IUP[1]	/* InterpolateUntPts */";
};
width = 397;
},
{
anchors = (
{
name = bottom;
position = "{206, 0}";
},
{
name = top;
position = "{206, 591}";
}
);
associatedMasterId = "E9D5C8C2-E643-4C1D-A564-A66CB2499AF2";
background = {
paths = (
{
closed = 1;
nodes = (
"86 -15 LINE",
"393 591 LINE",
"326 591 LINE",
"20 -15 LINE"
);
},
{
closed = 1;
nodes = (
"316 -12 OFFCURVE",
"382 14 OFFCURVE",
"382 174 CURVE SMOOTH",
"382 465 LINE SMOOTH",
"382 564 OFFCURVE",
"316 600 OFFCURVE",
"207 600 CURVE SMOOTH",
"98 600 OFFCURVE",
"25 564 OFFCURVE",
"25 465 CURVE SMOOTH",
"25 173 LINE SMOOTH",
"25 14 OFFCURVE",
"98 -12 OFFCURVE",
"207 -12 CURVE SMOOTH"
);
},
{
closed = 1;
nodes = (
"197 80 OFFCURVE",
"191 87 OFFCURVE",
"191 110 CURVE SMOOTH",
"191 473 LINE SMOOTH",
"191 496 OFFCURVE",
"197 503 OFFCURVE",
"207 503 CURVE SMOOTH",
"216 503 OFFCURVE",
"223 496 OFFCURVE",
"223 473 CURVE SMOOTH",
"223 110 LINE SMOOTH",
"223 87 OFFCURVE",
"216 80 OFFCURVE",
"207 80 CURVE SMOOTH"
);
}
);
};
layerId = "8A3706BD-364F-4FE3-9C2E-7E87DF0DB4CC";
name = "Regular Backup";
paths = (
{
closed = 1;
nodes = (
"75 -37 LINE",
"413 630 LINE",
"346 630 LINE",
"9 -37 LINE"
);
},
{
closed = 1;
nodes = (
"316 -12 OFFCURVE",
"382 14 OFFCURVE",
"382 174 CURVE SMOOTH",
"382 465 LINE SMOOTH",
"382 564 OFFCURVE",
"316 600 OFFCURVE",
"207 600 CURVE SMOOTH",
"98 600 OFFCURVE",
"25 564 OFFCURVE",
"25 465 CURVE SMOOTH",
"25 173 LINE SMOOTH",
"25 14 OFFCURVE",
"98 -12 OFFCURVE",
"207 -12 CURVE SMOOTH"
);
},
{
closed = 1;
nodes = (
"197 80 OFFCURVE",
"191 87 OFFCURVE",
"191 110 CURVE SMOOTH",
"191 473 LINE SMOOTH",
"191 496 OFFCURVE",
"197 503 OFFCURVE",
"207 503 CURVE SMOOTH",
"216 503 OFFCURVE",
"223 496 OFFCURVE",
"223 473 CURVE SMOOTH",
"223 110 LINE SMOOTH",
"223 87 OFFCURVE",
"216 80 OFFCURVE",
"207 80 CURVE SMOOTH"
);
}
);
width = 411;
}
);
note = Oslash;
unicode = 00D8;
},
{
color = 0;
glyphname = OE;
lastChange = "2021-11-26 10:45:55 +0000";
layers = (
{
layerId = "E9D5C8C2-E643-4C1D-A564-A66CB2499AF2";
paths = (
{
closed = 1;
nodes = (
"237 -12 OFFCURVE",
"267 -9 OFFCURVE",
"291 0 CURVE",
"496 0 LINE",
"496 108 LINE",
"376 108 LINE",
"376 240 LINE",
"486 240 LINE",
"486 365 LINE",
"376 365 LINE",
"376 480 LINE",
"496 480 LINE",
"496 591 LINE",
"281 591 LINE",
"259 597 OFFCURVE",
"233 600 OFFCURVE",
"202 600 CURVE SMOOTH",
"93 600 OFFCURVE",
"20 564 OFFCURVE",
"20 465 CURVE SMOOTH",
"20 173 LINE SMOOTH",
"20 24 OFFCURVE",
"81 -12 OFFCURVE",
"202 -12 CURVE SMOOTH"
);
},
{
closed = 1;
nodes = (
"302 59 LINE",
"464 58 LINE",
"464 56 LINE",
"297 55 LINE"
);
},
{
closed = 1;
nodes = (
"197 80 OFFCURVE",
"193 82 OFFCURVE",
"190 87 CURVE SMOOTH",
"187 91 OFFCURVE",
"186 99 OFFCURVE",
"186 110 CURVE SMOOTH",
"186 473 LINE SMOOTH",
"186 484 OFFCURVE",
"187 492 OFFCURVE",
"190 497 CURVE SMOOTH",
"193 501 OFFCURVE",
"197 503 OFFCURVE",
"202 503 CURVE SMOOTH",
"207 503 OFFCURVE",
"211 501 OFFCURVE",
"214 497 CURVE SMOOTH",
"217 492 OFFCURVE",
"218 484 OFFCURVE",
"218 473 CURVE SMOOTH",
"218 110 LINE SMOOTH",
"218 99 OFFCURVE",
"217 91 OFFCURVE",
"214 87 CURVE SMOOTH",
"211 82 OFFCURVE",
"207 80 OFFCURVE",
"202 80 CURVE SMOOTH"
);
},
{
closed = 1;
nodes = (
"128 45 OFFCURVE",
"106 70 OFFCURVE",
"105 114 CURVE SMOOTH",
"101 300 LINE",
"105 493 LINE SMOOTH",
"106 534 OFFCURVE",
"134 550 OFFCURVE",
"177 549 CURVE SMOOTH",
"207 548 LINE",
"232 549 LINE SMOOTH",
"275 551 OFFCURVE",
"303 534 OFFCURVE",
"304 493 CURVE SMOOTH",
"308 300 LINE",
"304 114 LINE SMOOTH",
"303 70 OFFCURVE",
"281 45 OFFCURVE",
"238 45 CURVE SMOOTH",
"214 45 LINE SMOOTH",
"211 45 OFFCURVE",
"209 45 OFFCURVE",
"207 46 CURVE",
"204 45 OFFCURVE",
"201 45 OFFCURVE",
"198 45 CURVE SMOOTH",
"171 45 LINE SMOOTH"
);
},
{
closed = 1;
nodes = (
"214 48 LINE",
"224 49 LINE",
"238 49 LINE SMOOTH",
"279 50 OFFCURVE",
"301 71 OFFCURVE",
"300 114 CURVE SMOOTH",
"295 301 LINE",
"300 493 LINE SMOOTH",
"301 532 OFFCURVE",
"273 543 OFFCURVE",
"232 545 CURVE SMOOTH",
"207 546 LINE",
"177 545 LINE SMOOTH",
"136 544 OFFCURVE",
"108 532 OFFCURVE",
"109 493 CURVE SMOOTH",
"114 301 LINE",
"109 114 LINE SMOOTH",
"108 71 OFFCURVE",
"130 50 OFFCURVE",
"171 49 CURVE SMOOTH",
"186 49 LINE",
"198 48 LINE"
);
},
{
closed = 1;
nodes = (
"308 302 LINE",
"439 301 LINE",
"439 299 LINE",
"308 298 LINE"
);
},
{
closed = 1;
nodes = (
"299 536 LINE",
"464 535 LINE",
"464 533 LINE",
"304 532 LINE"
);
}
);
userData = {
assembly = "SVTCA[0]	/* SetFreedomAndProjectionVectorToAxis */\012PUSHW[ ]	/* 1 value pushed */\0120 \012RCVT[ ]	/* ReadCVT */\012IF[ ]	/* If */\012PUSHW[ ]	/* 1 value pushed */\01211 \012MDAP[1]	/* MoveDirectAbsPt */\012ELSE[ ]	/* Else */\012PUSHW[ ]	/* 2 values pushed */\01211 13 \012MIAP[0]	/* MoveIndirectAbsPt */\012EIF[ ]	/* EndIf */\012PUSHW[ ]	/* 1 value pushed */\0120 \012RCVT[ ]	/* ReadCVT */\012IF[ ]	/* If */\012PUSHW[ ]	/* 1 value pushed */\01221 \012MDAP[1]	/* MoveDirectAbsPt */\012ELSE[ ]	/* Else */\012PUSHW[ ]	/* 2 values pushed */\01221 7 \012MIAP[0]	/* MoveIndirectAbsPt */\012EIF[ ]	/* EndIf */\012PUSHW[ ]	/* 2 values pushed */\01219 4 \012MIRP[10100]	/* MoveIndirectRelPt */\012PUSHW[ ]	/* 1 value pushed */\01211 \012SRP0[ ]	/* SetRefPoint0 */\012PUSHW[ ]	/* 2 values pushed */\01232 1 \012MIRP[10100]	/* MoveIndirectRelPt */\012NPUSHW[ ]	/* 5 values pushed */\012121 32 137 32 2 \012DELTAP1[ ]	/* DeltaExceptionP1 */\012NPUSHW[ ]	/* 15 values pushed */\0128 32 24 32 40 32 56 32 72 32 88 32 104 32 7 \012DELTAP1[ ]	/* DeltaExceptionP1 */\012IUP[0]	/* InterpolateUntPts */\012IUP[1]	/* InterpolateUntPts */";
};
width = 506;
},
{
associatedMasterId = "E9D5C8C2-E643-4C1D-A564-A66CB2499AF2";
background = {
paths = (
{
closed = 1;
nodes = (
"311 -12 OFFCURVE",
"377 14 OFFCURVE",
"377 174 CURVE SMOOTH",
"377 465 LINE SMOOTH",
"377 564 OFFCURVE",
"311 600 OFFCURVE",
"202 600 CURVE SMOOTH",
"93 600 OFFCURVE",
"20 564 OFFCURVE",
"20 465 CURVE SMOOTH",
"20 173 LINE SMOOTH",
"20 14 OFFCURVE",
"93 -12 OFFCURVE",
"202 -12 CURVE SMOOTH"
);
},
{
closed = 1;
nodes = (
"192 80 OFFCURVE",
"186 87 OFFCURVE",
"186 110 CURVE SMOOTH",
"186 473 LINE SMOOTH",
"186 496 OFFCURVE",
"192 503 OFFCURVE",
"202 503 CURVE SMOOTH",
"211 503 OFFCURVE",
"218 496 OFFCURVE",
"218 473 CURVE SMOOTH",
"218 110 LINE SMOOTH",
"218 87 OFFCURVE",
"211 80 OFFCURVE",
"202 80 CURVE SMOOTH"
);
},
{
closed = 1;
nodes = (
"525 0 LINE",
"525 108 LINE",
"377 108 LINE",
"377 240 LINE",
"515 240 LINE",
"515 365 LINE",
"377 365 LINE",
"377 480 LINE",
"525 480 LINE",
"525 591 LINE",
"219 591 LINE",
"219 0 LINE"
);
},
{
closed = 1;
nodes = (
"303 -12 OFFCURVE",
"377 14 OFFCURVE",
"377 174 CURVE SMOOTH",
"377 465 LINE SMOOTH",
"377 564 OFFCURVE",
"303 600 OFFCURVE",
"197 600 CURVE SMOOTH",
"91 600 OFFCURVE",
"20 564 OFFCURVE",
"20 465 CURVE SMOOTH",
"20 173 LINE SMOOTH",
"20 14 OFFCURVE",
"91 -12 OFFCURVE",
"197 -12 CURVE SMOOTH"
);
},
{
closed = 1;
nodes = (
"185 80 OFFCURVE",
"176 92 OFFCURVE",
"176 110 CURVE SMOOTH",
"176 473 LINE SMOOTH",
"176 491 OFFCURVE",
"185 503 OFFCURVE",
"197 503 CURVE SMOOTH",
"209 503 OFFCURVE",
"218 491 OFFCURVE",
"218 473 CURVE SMOOTH",
"218 110 LINE SMOOTH",
"218 92 OFFCURVE",
"209 80 OFFCURVE",
"197 80 CURVE SMOOTH"
);
}
);
};
layerId = "8A3706BD-364F-4FE3-9C2E-7E87DF0DB4CC";
name = "Regular Backup";
paths = (
{
closed = 1;
nodes = (
"291 -12 OFFCURVE",
"357 14 OFFCURVE",
"357 174 CURVE SMOOTH",
"357 465 LINE SMOOTH",
"357 564 OFFCURVE",
"291 600 OFFCURVE",
"197 600 CURVE SMOOTH",
"91 600 OFFCURVE",
"20 564 OFFCURVE",
"20 465 CURVE SMOOTH",
"20 173 LINE SMOOTH",
"20 14 OFFCURVE",
"91 -12 OFFCURVE",
"197 -12 CURVE SMOOTH"
);
},
{
closed = 1;
nodes = (
"185 80 OFFCURVE",
"176 92 OFFCURVE",
"176 110 CURVE SMOOTH",
"176 473 LINE SMOOTH",
"176 491 OFFCURVE",
"185 503 OFFCURVE",
"197 503 CURVE SMOOTH",
"209 503 OFFCURVE",
"218 491 OFFCURVE",
"218 473 CURVE SMOOTH",
"218 110 LINE SMOOTH",
"218 92 OFFCURVE",
"209 80 OFFCURVE",
"197 80 CURVE SMOOTH"
);
},
{
closed = 1;
nodes = (
"525 0 LINE",
"525 108 LINE",
"377 108 LINE",
"377 240 LINE",
"515 240 LINE",
"515 365 LINE",
"377 365 LINE",
"377 480 LINE",
"525 480 LINE",
"525 591 LINE",
"219 591 LINE",
"219 0 LINE"
);
}
);
width = 542;
}
);
note = OE;
unicode = 0152;
},
{
glyphname = P;
lastChange = "2021-11-26 10:46:02 +0000";
layers = (
{
layerId = "E9D5C8C2-E643-4C1D-A564-A66CB2499AF2";
paths = (
{
closed = 1;
nodes = (
"191 0 LINE",
"191 224 LINE",
"265 224 LINE SMOOTH",
"354 224 OFFCURVE",
"382 299 OFFCURVE",
"382 392 CURVE SMOOTH",
"382 490 LINE SMOOTH",
"382 550 OFFCURVE",
"345 591 OFFCURVE",
"257 591 CURVE SMOOTH",
"25 591 LINE",
"25 0 LINE"
);
},
{
closed = 1;
nodes = (
"102 300 LINE",
"107 547 LINE",
"111 547 LINE",
"115 300 LINE",
"110 47 LINE",
"106 47 LINE"
);
},
{
closed = 1;
nodes = (
"191 507 LINE",
"206 507 LINE SMOOTH",
"215 507 OFFCURVE",
"221 500 OFFCURVE",
"222 485 CURVE SMOOTH",
"223 470 OFFCURVE",
"224 445 OFFCURVE",
"224 408 CURVE SMOOTH",
"224 371 OFFCURVE",
"222 346 OFFCURVE",
"219 332 CURVE SMOOTH",
"216 317 OFFCURVE",
"210 310 OFFCURVE",
"203 310 CURVE SMOOTH",
"191 310 LINE"
);
},
{
closed = 1;
nodes = (
"194 268 LINE",
"234 269 LINE SMOOTH",
"294 269 OFFCURVE",
"296 354 OFFCURVE",
"296 422 CURVE SMOOTH",
"296 504 OFFCURVE",
"299 545 OFFCURVE",
"224 545 CURVE SMOOTH",
"192 546 LINE",
"192 548 LINE",
"224 549 LINE",
"306 546 OFFCURVE",
"307 501 OFFCURVE",
"307 428 CURVE SMOOTH",
"307 345 OFFCURVE",
"294 266 OFFCURVE",
"234 266 CURVE SMOOTH",
"194 266 LINE"
);
}
);
userData = {
assembly = "SVTCA[0]	/* SetFreedomAndProjectionVectorToAxis */\012PUSHW[ ]	/* 1 value pushed */\0120 \012RCVT[ ]	/* ReadCVT */\012IF[ ]	/* If */\012PUSHW[ ]	/* 1 value pushed */\01212 \012MDAP[1]	/* MoveDirectAbsPt */\012ELSE[ ]	/* Else */\012PUSHW[ ]	/* 2 values pushed */\01212 7 \012MIAP[0]	/* MoveIndirectAbsPt */\012EIF[ ]	/* EndIf */\012IUP[0]	/* InterpolateUntPts */\012IUP[1]	/* InterpolateUntPts */";
};
width = 402;
},
{
associatedMasterId = "E9D5C8C2-E643-4C1D-A564-A66CB2499AF2";
background = {
paths = (
{
closed = 1;
nodes = (
"191 0 LINE",
"191 224 LINE",
"265 224 LINE SMOOTH",
"357 224 OFFCURVE",
"382 303 OFFCURVE",
"382 392 CURVE SMOOTH",
"382 490 LINE SMOOTH",
"382 549 OFFCURVE",
"345 591 OFFCURVE",
"257 591 CURVE SMOOTH",
"25 591 LINE",
"25 0 LINE"
);
},
{
closed = 1;
nodes = (
"191 507 LINE",
"206 507 LINE SMOOTH",
"223 507 OFFCURVE",
"224 483 OFFCURVE",
"224 418 CURVE SMOOTH",
"224 408 LINE SMOOTH",
"224 335 OFFCURVE",
"217 310 OFFCURVE",
"203 310 CURVE SMOOTH",
"191 310 LINE"
);
}
);
};
layerId = "8A3706BD-364F-4FE3-9C2E-7E87DF0DB4CC";
name = "Regular Backup";
paths = (
{
closed = 1;
nodes = (
"191 0 LINE",
"191 224 LINE",
"265 224 LINE SMOOTH",
"357 224 OFFCURVE",
"382 303 OFFCURVE",
"382 392 CURVE SMOOTH",
"382 490 LINE SMOOTH",
"382 549 OFFCURVE",
"345 591 OFFCURVE",
"257 591 CURVE SMOOTH",
"25 591 LINE",
"25 0 LINE"
);
},
{
closed = 1;
nodes = (
"191 507 LINE",
"206 507 LINE SMOOTH",
"223 507 OFFCURVE",
"224 483 OFFCURVE",
"224 418 CURVE SMOOTH",
"224 408 LINE SMOOTH",
"224 335 OFFCURVE",
"217 310 OFFCURVE",
"203 310 CURVE SMOOTH",
"191 310 LINE"
);
}
);
width = 398;
}
);
note = P;
unicode = 0050;
},
{
glyphname = Thorn;
lastChange = "2021-11-26 10:45:51 +0000";
layers = (
{
layerId = "E9D5C8C2-E643-4C1D-A564-A66CB2499AF2";
paths = (
{
closed = 1;
nodes = (
"191 0 LINE",
"191 127 LINE",
"265 127 LINE SMOOTH",
"354 127 OFFCURVE",
"382 202 OFFCURVE",
"382 295 CURVE SMOOTH",
"382 393 LINE SMOOTH",
"382 453 OFFCURVE",
"345 494 OFFCURVE",
"257 494 CURVE SMOOTH",
"192 494 LINE",
"192 591 LINE",
"25 591 LINE",
"25 0 LINE"
);
},
{
closed = 1;
nodes = (
"101 279 LINE",
"105 565 LINE",
"109 565 LINE",
"114 279 LINE",
"110 21 LINE",
"106 21 LINE"
);
},
{
closed = 1;
nodes = (
"191 410 LINE",
"206 410 LINE SMOOTH",
"215 410 OFFCURVE",
"221 403 OFFCURVE",
"222 388 CURVE SMOOTH",
"223 373 OFFCURVE",
"224 348 OFFCURVE",
"224 311 CURVE SMOOTH",
"224 274 OFFCURVE",
"222 249 OFFCURVE",
"219 235 CURVE SMOOTH",
"216 220 OFFCURVE",
"210 213 OFFCURVE",
"203 213 CURVE SMOOTH",
"191 213 LINE"
);
},
{
closed = 1;
nodes = (
"257 187 LINE",
"282 187 OFFCURVE",
"293 206 OFFCURVE",
"293 257 CURVE SMOOTH",
"293 374 LINE SMOOTH",
"292 421 OFFCURVE",
"280 448 OFFCURVE",
"237 448 CURVE",
"237 450 LINE",
"284 450 OFFCURVE",
"302 423 OFFCURVE",
"303 374 CURVE SMOOTH",
"303 257 LINE SMOOTH",
"303 204 OFFCURVE",
"284 185 OFFCURVE",
"257 185 CURVE"
);
}
);
userData = {
assembly = "SVTCA[0]	/* SetFreedomAndProjectionVectorToAxis */\012PUSHW[ ]	/* 1 value pushed */\0120 \012RCVT[ ]	/* ReadCVT */\012IF[ ]	/* If */\012PUSHW[ ]	/* 1 value pushed */\01214 \012MDAP[1]	/* MoveDirectAbsPt */\012ELSE[ ]	/* Else */\012PUSHW[ ]	/* 2 values pushed */\01214 7 \012MIAP[0]	/* MoveIndirectAbsPt */\012EIF[ ]	/* EndIf */\012IUP[0]	/* InterpolateUntPts */\012IUP[1]	/* InterpolateUntPts */";
};
width = 398;
},
{
associatedMasterId = "E9D5C8C2-E643-4C1D-A564-A66CB2499AF2";
background = {
paths = (
{
closed = 1;
nodes = (
"191 0 LINE",
"191 127 LINE",
"265 127 LINE SMOOTH",
"357 127 OFFCURVE",
"382 206 OFFCURVE",
"382 295 CURVE SMOOTH",
"382 393 LINE SMOOTH",
"382 453 OFFCURVE",
"345 494 OFFCURVE",
"257 494 CURVE SMOOTH",
"192 494 LINE",
"192 591 LINE",
"25 591 LINE",
"25 0 LINE"
);
},
{
closed = 1;
nodes = (
"191 410 LINE",
"206 410 LINE SMOOTH",
"224 410 OFFCURVE",
"224 387 OFFCURVE",
"224 321 CURVE SMOOTH",
"224 311 LINE SMOOTH",
"224 238 OFFCURVE",
"218 213 OFFCURVE",
"203 213 CURVE SMOOTH",
"191 213 LINE"
);
}
);
};
layerId = "8A3706BD-364F-4FE3-9C2E-7E87DF0DB4CC";
name = "Regular Backup";
paths = (
{
closed = 1;
nodes = (
"191 0 LINE",
"191 127 LINE",
"265 127 LINE SMOOTH",
"357 127 OFFCURVE",
"382 206 OFFCURVE",
"382 295 CURVE SMOOTH",
"382 393 LINE SMOOTH",
"382 453 OFFCURVE",
"345 494 OFFCURVE",
"257 494 CURVE SMOOTH",
"192 494 LINE",
"192 591 LINE",
"25 591 LINE",
"25 0 LINE"
);
},
{
closed = 1;
nodes = (
"191 410 LINE",
"206 410 LINE SMOOTH",
"224 410 OFFCURVE",
"224 387 OFFCURVE",
"224 321 CURVE SMOOTH",
"224 311 LINE SMOOTH",
"224 238 OFFCURVE",
"218 213 OFFCURVE",
"203 213 CURVE SMOOTH",
"191 213 LINE"
);
}
);
width = 407;
}
);
note = Thorn;
unicode = 00DE;
},
{
glyphname = Q;
lastChange = "2021-11-26 10:45:51 +0000";
layers = (
{
layerId = "E9D5C8C2-E643-4C1D-A564-A66CB2499AF2";
paths = (
{
closed = 1;
nodes = (
"381 -68 LINE",
"330 20 LINE",
"361 47 OFFCURVE",
"377 93 OFFCURVE",
"377 174 CURVE SMOOTH",
"377 465 LINE SMOOTH",
"377 564 OFFCURVE",
"311 600 OFFCURVE",
"202 600 CURVE SMOOTH",
"93 600 OFFCURVE",
"20 564 OFFCURVE",
"20 465 CURVE SMOOTH",
"20 173 LINE SMOOTH",
"20 24 OFFCURVE",
"81 -12 OFFCURVE",
"202 -12 CURVE SMOOTH",
"209 -12 LINE",
"277 -129 LINE"
);
},
{
closed = 1;
nodes = (
"197 80 OFFCURVE",
"193 82 OFFCURVE",
"190 87 CURVE SMOOTH",
"187 91 OFFCURVE",
"186 99 OFFCURVE",
"186 110 CURVE SMOOTH",
"186 473 LINE SMOOTH",
"186 484 OFFCURVE",
"187 492 OFFCURVE",
"190 497 CURVE SMOOTH",
"193 501 OFFCURVE",
"197 503 OFFCURVE",
"202 503 CURVE SMOOTH",
"207 503 OFFCURVE",
"211 501 OFFCURVE",
"214 497 CURVE SMOOTH",
"217 492 OFFCURVE",
"218 484 OFFCURVE",
"218 473 CURVE SMOOTH",
"218 110 LINE SMOOTH",
"218 99 OFFCURVE",
"217 91 OFFCURVE",
"214 87 CURVE SMOOTH",
"211 82 OFFCURVE",
"207 80 OFFCURVE",
"202 80 CURVE SMOOTH"
);
},
{
closed = 1;
nodes = (
"123 45 OFFCURVE",
"100 70 OFFCURVE",
"100 114 CURVE SMOOTH",
"96 300 LINE",
"100 493 LINE SMOOTH",
"100 534 OFFCURVE",
"129 549 OFFCURVE",
"172 549 CURVE SMOOTH",
"202 548 LINE",
"227 549 LINE SMOOTH",
"270 549 OFFCURVE",
"299 534 OFFCURVE",
"299 493 CURVE SMOOTH",
"303 300 LINE",
"299 114 LINE SMOOTH",
"299 70 OFFCURVE",
"276 45 OFFCURVE",
"233 45 CURVE SMOOTH",
"209 45 LINE SMOOTH",
"206 45 OFFCURVE",
"204 45 OFFCURVE",
"202 46 CURVE",
"199 45 OFFCURVE",
"196 45 OFFCURVE",
"193 45 CURVE SMOOTH",
"166 45 LINE SMOOTH"
);
},
{
closed = 1;
nodes = (
"209 48 LINE SMOOTH",
"212 48 OFFCURVE",
"215 48 OFFCURVE",
"219 49 CURVE SMOOTH",
"233 49 LINE SMOOTH",
"274 49 OFFCURVE",
"295 71 OFFCURVE",
"295 114 CURVE SMOOTH",
"290 301 LINE",
"295 493 LINE SMOOTH",
"295 532 OFFCURVE",
"268 545 OFFCURVE",
"227 545 CURVE SMOOTH",
"202 546 LINE",
"172 545 LINE SMOOTH",
"131 545 OFFCURVE",
"104 532 OFFCURVE",
"104 493 CURVE SMOOTH",
"109 301 LINE",
"104 114 LINE SMOOTH",
"104 71 OFFCURVE",
"125 49 OFFCURVE",
"166 49 CURVE SMOOTH",
"171 49 OFFCURVE",
"176 49 OFFCURVE",
"181 49 CURVE SMOOTH",
"193 48 LINE"
);
}
);
width = 401;
},
{
associatedMasterId = "E9D5C8C2-E643-4C1D-A564-A66CB2499AF2";
background = {
paths = (
{
closed = 1;
nodes = (
"385 -68 LINE",
"333 24 LINE",
"366 51 OFFCURVE",
"385 97 OFFCURVE",
"385 178 CURVE SMOOTH",
"385 465 LINE SMOOTH",
"385 564 OFFCURVE",
"317 600 OFFCURVE",
"206 600 CURVE SMOOTH",
"95 600 OFFCURVE",
"20 564 OFFCURVE",
"20 465 CURVE SMOOTH",
"20 177 LINE SMOOTH",
"20 18 OFFCURVE",
"93 -8 OFFCURVE",
"199 -8 CURVE SMOOTH",
"204 -8 OFFCURVE",
"208 -8 OFFCURVE",
"213 -8 CURVE",
"281 -129 LINE"
);
},
{
closed = 1;
nodes = (
"194 84 OFFCURVE",
"186 91 OFFCURVE",
"186 114 CURVE SMOOTH",
"186 473 LINE SMOOTH",
"186 496 OFFCURVE",
"194 503 OFFCURVE",
"206 503 CURVE SMOOTH",
"217 503 OFFCURVE",
"226 496 OFFCURVE",
"226 473 CURVE SMOOTH",
"226 114 LINE SMOOTH",
"226 91 OFFCURVE",
"217 84 OFFCURVE",
"206 84 CURVE SMOOTH"
);
}
);
};
layerId = "8A3706BD-364F-4FE3-9C2E-7E87DF0DB4CC";
name = "Regular Backup";
paths = (
{
closed = 1;
nodes = (
"385 -68 LINE",
"333 24 LINE",
"366 51 OFFCURVE",
"385 97 OFFCURVE",
"385 178 CURVE SMOOTH",
"385 465 LINE SMOOTH",
"385 564 OFFCURVE",
"317 600 OFFCURVE",
"206 600 CURVE SMOOTH",
"95 600 OFFCURVE",
"20 564 OFFCURVE",
"20 465 CURVE SMOOTH",
"20 177 LINE SMOOTH",
"20 18 OFFCURVE",
"93 -8 OFFCURVE",
"199 -8 CURVE SMOOTH",
"204 -8 OFFCURVE",
"208 -8 OFFCURVE",
"213 -8 CURVE",
"281 -129 LINE"
);
},
{
closed = 1;
nodes = (
"194 84 OFFCURVE",
"186 91 OFFCURVE",
"186 114 CURVE SMOOTH",
"186 473 LINE SMOOTH",
"186 496 OFFCURVE",
"194 503 OFFCURVE",
"206 503 CURVE SMOOTH",
"217 503 OFFCURVE",
"226 496 OFFCURVE",
"226 473 CURVE SMOOTH",
"226 114 LINE SMOOTH",
"226 91 OFFCURVE",
"217 84 OFFCURVE",
"206 84 CURVE SMOOTH"
);
}
);
width = 405;
}
);
note = Q;
unicode = 0051;
},
{
glyphname = R;
lastChange = "2021-11-26 10:45:51 +0000";
layers = (
{
anchors = (
{
name = bottom;
position = "{212, 0}";
},
{
name = top;
position = "{197, 591}";
}
);
layerId = "E9D5C8C2-E643-4C1D-A564-A66CB2499AF2";
paths = (
{
closed = 1;
nodes = (
"191 0 LINE",
"191 262 LINE",
"242 0 LINE",
"419 0 LINE",
"364 215 LINE",
"347 261 OFFCURVE",
"331 275 OFFCURVE",
"299 278 CURVE",
"363 293 OFFCURVE",
"382 343 OFFCURVE",
"382 400 CURVE SMOOTH",
"382 490 LINE SMOOTH",
"382 550 OFFCURVE",
"345 591 OFFCURVE",
"257 591 CURVE SMOOTH",
"25 591 LINE",
"25 0 LINE"
);
},
{
closed = 1;
nodes = (
"102 300 LINE",
"107 547 LINE",
"111 547 LINE",
"115 300 LINE",
"110 47 LINE",
"106 47 LINE"
);
},
{
closed = 1;
nodes = (
"295 110 OFFCURVE",
"286 233 OFFCURVE",
"246 265 CURVE",
"247 265 LINE",
"289 234 OFFCURVE",
"311 88 OFFCURVE",
"323 47 CURVE",
"315 47 LINE"
);
},
{
closed = 1;
nodes = (
"191 507 LINE",
"206 507 LINE SMOOTH",
"215 507 OFFCURVE",
"221 500 OFFCURVE",
"222 485 CURVE SMOOTH",
"223 470 OFFCURVE",
"224 445 OFFCURVE",
"224 408 CURVE SMOOTH",
"224 351 OFFCURVE",
"221 320 OFFCURVE",
"203 320 CURVE SMOOTH",
"191 320 LINE"
);
},
{
closed = 1;
nodes = (
"215 292 LINE",
"237 293 LINE SMOOTH",
"297 296 OFFCURVE",
"303 379 OFFCURVE",
"303 438 CURVE SMOOTH",
"303 517 OFFCURVE",
"295 543 OFFCURVE",
"231 545 CURVE SMOOTH",
"199 546 LINE",
"199 548 LINE",
"231 549 LINE SMOOTH",
"294 551 OFFCURVE",
"314 523 OFFCURVE",
"314 438 CURVE SMOOTH",
"314 366 OFFCURVE",
"298 290 OFFCURVE",
"237 290 CURVE SMOOTH",
"215 290 LINE"
);
}
);
userData = {
assembly = "SVTCA[0]	/* SetFreedomAndProjectionVectorToAxis */\012PUSHW[ ]	/* 1 value pushed */\0120 \012RCVT[ ]	/* ReadCVT */\012IF[ ]	/* If */\012PUSHW[ ]	/* 1 value pushed */\01228 \012MDAP[1]	/* MoveDirectAbsPt */\012ELSE[ ]	/* Else */\012PUSHW[ ]	/* 2 values pushed */\01228 7 \012MIAP[0]	/* MoveIndirectAbsPt */\012EIF[ ]	/* EndIf */\012PUSHW[ ]	/* 1 value pushed */\0120 \012RCVT[ ]	/* ReadCVT */\012IF[ ]	/* If */\012PUSHW[ ]	/* 1 value pushed */\01231 \012MDAP[1]	/* MoveDirectAbsPt */\012ELSE[ ]	/* Else */\012PUSHW[ ]	/* 2 values pushed */\01231 7 \012MIAP[0]	/* MoveIndirectAbsPt */\012EIF[ ]	/* EndIf */\012IUP[0]	/* InterpolateUntPts */\012IUP[1]	/* InterpolateUntPts */";
};
width = 424;
},
{
anchors = (
{
name = bottom;
position = "{212, 0}";
},
{
name = top;
position = "{212, 591}";
}
);
associatedMasterId = "E9D5C8C2-E643-4C1D-A564-A66CB2499AF2";
background = {
paths = (
{
closed = 1;
nodes = (
"191 0 LINE",
"191 237 LINE",
"194 237 LINE",
"199 237 OFFCURVE",
"203 221 OFFCURVE",
"208 194 CURVE SMOOTH",
"242 0 LINE",
"419 0 LINE",
"367 204 LINE SMOOTH",
"355 252 OFFCURVE",
"343 269 OFFCURVE",
"296 278 CURVE",
"296 280 LINE",
"367 288 OFFCURVE",
"390 342 OFFCURVE",
"390 400 CURVE SMOOTH",
"390 490 LINE SMOOTH",
"390 549 OFFCURVE",
"353 591 OFFCURVE",
"265 591 CURVE SMOOTH",
"25 591 LINE",
"25 0 LINE"
);
},
{
closed = 1;
nodes = (
"191 507 LINE",
"210 507 LINE SMOOTH",
"227 507 OFFCURVE",
"234 497 OFFCURVE",
"234 461 CURVE SMOOTH",
"234 396 LINE SMOOTH",
"234 360 OFFCURVE",
"224 347 OFFCURVE",
"207 347 CURVE SMOOTH",
"191 347 LINE"
);
}
);
};
layerId = "8A3706BD-364F-4FE3-9C2E-7E87DF0DB4CC";
name = "Regular Backup";
paths = (
{
closed = 1;
nodes = (
"191 0 LINE",
"191 237 LINE",
"194 237 LINE",
"199 237 OFFCURVE",
"203 221 OFFCURVE",
"208 194 CURVE SMOOTH",
"242 0 LINE",
"419 0 LINE",
"367 204 LINE SMOOTH",
"355 252 OFFCURVE",
"343 269 OFFCURVE",
"296 278 CURVE",
"296 280 LINE",
"367 288 OFFCURVE",
"390 342 OFFCURVE",
"390 400 CURVE SMOOTH",
"390 490 LINE SMOOTH",
"390 549 OFFCURVE",
"353 591 OFFCURVE",
"265 591 CURVE SMOOTH",
"25 591 LINE",
"25 0 LINE"
);
},
{
closed = 1;
nodes = (
"191 507 LINE",
"210 507 LINE SMOOTH",
"227 507 OFFCURVE",
"234 497 OFFCURVE",
"234 461 CURVE SMOOTH",
"234 396 LINE SMOOTH",
"234 360 OFFCURVE",
"224 347 OFFCURVE",
"207 347 CURVE SMOOTH",
"191 347 LINE"
);
}
);
visible = 1;
width = 424;
}
);
note = R;
rightKerningGroup = parenright;
unicode = 0052;
},
{
glyphname = S;
lastChange = "2021-11-26 10:45:51 +0000";
layers = (
{
anchors = (
{
name = bottom;
position = "{211, 0}";
},
{
name = top;
position = "{211, 591}";
}
);
layerId = "E9D5C8C2-E643-4C1D-A564-A66CB2499AF2";
paths = (
{
closed = 1;
nodes = (
"328 -8 OFFCURVE",
"399 40 OFFCURVE",
"399 171 CURVE SMOOTH",
"399 284 OFFCURVE",
"367 311 OFFCURVE",
"274 345 CURVE SMOOTH",
"227 363 OFFCURVE",
"192 371 OFFCURVE",
"192 427 CURVE SMOOTH",
"192 456 OFFCURVE",
"195 481 OFFCURVE",
"212 481 CURVE SMOOTH",
"223 481 OFFCURVE",
"229 474 OFFCURVE",
"231 461 CURVE SMOOTH",
"232 447 OFFCURVE",
"233 426 OFFCURVE",
"233 399 CURVE SMOOTH",
"233 383 LINE",
"392 383 LINE",
"392 449 LINE SMOOTH",
"392 545 OFFCURVE",
"331 593 OFFCURVE",
"210 593 CURVE SMOOTH",
"74 593 OFFCURVE",
"27 550 OFFCURVE",
"27 422 CURVE SMOOTH",
"27 331 OFFCURVE",
"48 279 OFFCURVE",
"123 246 CURVE SMOOTH",
"199 213 OFFCURVE",
"230 202 OFFCURVE",
"230 136 CURVE SMOOTH",
"230 113 OFFCURVE",
"229 98 OFFCURVE",
"226 91 CURVE SMOOTH",
"223 84 OFFCURVE",
"217 81 OFFCURVE",
"210 81 CURVE SMOOTH",
"193 81 OFFCURVE",
"189 99 OFFCURVE",
"189 144 CURVE SMOOTH",
"189 188 LINE",
"22 188 LINE",
"22 169 LINE SMOOTH",
"22 31 OFFCURVE",
"79 -8 OFFCURVE",
"204 -8 CURVE SMOOTH"
);
},
{
closed = 1;
nodes = (
"198 39 OFFCURVE",
"177 41 OFFCURVE",
"168 42 CURVE SMOOTH",
"116 50 OFFCURVE",
"99 81 OFFCURVE",
"103 161 CURVE",
"106 161 LINE",
"106 85 OFFCURVE",
"121 54 OFFCURVE",
"169 45 CURVE SMOOTH",
"178 42 OFFCURVE",
"198 41 OFFCURVE",
"209 41 CURVE SMOOTH",
"224 41 OFFCURVE",
"243 43 OFFCURVE",
"254 46 CURVE SMOOTH",
"297 55 OFFCURVE",
"309 88 OFFCURVE",
"309 160 CURVE SMOOTH",
"309 221 OFFCURVE",
"294 252 OFFCURVE",
"242 275 CURVE SMOOTH",
"212 288 LINE",
"182 300 LINE SMOOTH",
"130 321 OFFCURVE",
"104 361 OFFCURVE",
"104 421 CURVE SMOOTH",
"104 493 OFFCURVE",
"125 524 OFFCURVE",
"176 533 CURVE SMOOTH",
"186 535 OFFCURVE",
"198 536 OFFCURVE",
"213 536 CURVE SMOOTH",
"224 536 OFFCURVE",
"235 535 OFFCURVE",
"244 534 CURVE SMOOTH",
"299 526 OFFCURVE",
"317 497 OFFCURVE",
"313 421 CURVE",
"310 421 LINE",
"310 492 OFFCURVE",
"293 523 OFFCURVE",
"244 531 CURVE SMOOTH",
"235 533 OFFCURVE",
"224 534 OFFCURVE",
"213 534 CURVE SMOOTH",
"200 534 OFFCURVE",
"187 533 OFFCURVE",
"176 530 CURVE SMOOTH",
"131 521 OFFCURVE",
"117 489 OFFCURVE",
"117 421 CURVE SMOOTH",
"117 364 OFFCURVE",
"132 327 OFFCURVE",
"184 304 CURVE SMOOTH",
"213 290 LINE",
"244 279 LINE SMOOTH",
"296 258 OFFCURVE",
"321 224 OFFCURVE",
"321 160 CURVE SMOOTH",
"321 84 OFFCURVE",
"302 54 OFFCURVE",
"255 43 CURVE SMOOTH",
"244 40 OFFCURVE",
"224 39 OFFCURVE",
"209 39 CURVE SMOOTH"
);
}
);
userData = {
assembly = "PUSHW[ ]	/* 4 values pushed */\01217 5 16 4 \012CALL[ ]	/* CallFunction */\012PUSHW[ ]	/* 4 values pushed */\01242 5 43 4 \012CALL[ ]	/* CallFunction */\012PUSHW[ ]	/* 1 value pushed */\01242 \012SRP0[ ]	/* SetRefPoint0 */\012PUSHW[ ]	/* 1 value pushed */\0125 \012MDRP[10000]	/* MoveDirectRelPt */\012PUSHW[ ]	/* 1 value pushed */\0125 \012MDAP[1]	/* MoveDirectAbsPt */\012PUSHW[ ]	/* 1 value pushed */\01243 \012SRP0[ ]	/* SetRefPoint0 */\012PUSHW[ ]	/* 1 value pushed */\01226 \012MDRP[10000]	/* MoveDirectRelPt */\012PUSHW[ ]	/* 1 value pushed */\01226 \012MDAP[1]	/* MoveDirectAbsPt */\012PUSHW[ ]	/* 1 value pushed */\01216 \012SRP0[ ]	/* SetRefPoint0 */\012PUSHW[ ]	/* 1 value pushed */\01234 \012MDRP[10000]	/* MoveDirectRelPt */\012PUSHW[ ]	/* 1 value pushed */\01234 \012MDAP[1]	/* MoveDirectAbsPt */\012PUSHW[ ]	/* 1 value pushed */\01217 \012SRP0[ ]	/* SetRefPoint0 */\012PUSHW[ ]	/* 1 value pushed */\01250 \012MDRP[10000]	/* MoveDirectRelPt */\012PUSHW[ ]	/* 1 value pushed */\01250 \012MDAP[1]	/* MoveDirectAbsPt */\012PUSHW[ ]	/* 3 values pushed */\01286 16 17 \012SRP1[ ]	/* SetRefPoint1 */\012SRP2[ ]	/* SetRefPoint2 */\012IP[ ]	/* InterpolatePts */\012PUSHW[ ]	/* 1 value pushed */\01242 \012SRP0[ ]	/* SetRefPoint0 */\012PUSHW[ ]	/* 1 value pushed */\012119 \012MDRP[11100]	/* MoveDirectRelPt */\012SVTCA[0]	/* SetFreedomAndProjectionVectorToAxis */\012PUSHW[ ]	/* 1 value pushed */\0120 \012RCVT[ ]	/* ReadCVT */\012IF[ ]	/* If */\012PUSHW[ ]	/* 1 value pushed */\01239 \012MDAP[1]	/* MoveDirectAbsPt */\012ELSE[ ]	/* Else */\012PUSHW[ ]	/* 2 values pushed */\01239 13 \012MIAP[0]	/* MoveIndirectAbsPt */\012EIF[ ]	/* EndIf */\012PUSHW[ ]	/* 1 value pushed */\0120 \012RCVT[ ]	/* ReadCVT */\012IF[ ]	/* If */\012PUSHW[ ]	/* 1 value pushed */\01210 \012MDAP[1]	/* MoveDirectAbsPt */\012ELSE[ ]	/* Else */\012PUSHW[ ]	/* 2 values pushed */\01210 7 \012MIAP[0]	/* MoveIndirectAbsPt */\012EIF[ ]	/* EndIf */\012PUSHW[ ]	/* 2 values pushed */\01223 1 \012MIRP[10100]	/* MoveIndirectRelPt */\012NPUSHW[ ]	/* 15 values pushed */\0127 23 23 23 39 23 55 23 71 23 87 23 103 23 7 \012DELTAP1[ ]	/* DeltaExceptionP1 */\012NPUSHW[ ]	/* 5 values pushed */\012118 23 134 23 2 \012DELTAP1[ ]	/* DeltaExceptionP1 */\012PUSHW[ ]	/* 1 value pushed */\01239 \012SRP0[ ]	/* SetRefPoint0 */\012PUSHW[ ]	/* 2 values pushed */\01247 4 \012MIRP[10100]	/* MoveIndirectRelPt */\012NPUSHW[ ]	/* 9 values pushed */\0128 47 24 47 40 47 56 47 4 \012DELTAP1[ ]	/* DeltaExceptionP1 */\012PUSHW[ ]	/* 3 values pushed */\01286 10 39 \012SRP1[ ]	/* SetRefPoint1 */\012SRP2[ ]	/* SetRefPoint2 */\012IP[ ]	/* InterpolatePts */\012IUP[0]	/* InterpolateUntPts */\012IUP[1]	/* InterpolateUntPts */";
};
width = 421;
},
{
anchors = (
{
name = bottom;
position = "{203, 0}";
},
{
name = top;
position = "{203, 591}";
}
);
associatedMasterId = "E9D5C8C2-E643-4C1D-A564-A66CB2499AF2";
background = {
paths = (
{
closed = 1;
nodes = (
"315 -8 OFFCURVE",
"391 36 OFFCURVE",
"391 171 CURVE SMOOTH",
"391 290 OFFCURVE",
"354 313 OFFCURVE",
"266 345 CURVE SMOOTH",
"223 361 OFFCURVE",
"184 368 OFFCURVE",
"184 427 CURVE SMOOTH",
"184 456 OFFCURVE",
"187 467 OFFCURVE",
"204 467 CURVE SMOOTH",
"225 467 OFFCURVE",
"225 453 OFFCURVE",
"225 399 CURVE SMOOTH",
"225 373 LINE",
"278 373 OFFCURVE",
"331 373 OFFCURVE",
"384 373 CURVE",
"384 449 LINE SMOOTH",
"384 546 OFFCURVE",
"322 593 OFFCURVE",
"202 593 CURVE SMOOTH",
"62 593 OFFCURVE",
"19 548 OFFCURVE",
"19 422 CURVE SMOOTH",
"19 332 OFFCURVE",
"40 279 OFFCURVE",
"115 246 CURVE SMOOTH",
"195 211 OFFCURVE",
"222 211 OFFCURVE",
"222 147 CURVE SMOOTH",
"222 101 OFFCURVE",
"217 92 OFFCURVE",
"202 92 CURVE SMOOTH",
"188 92 OFFCURVE",
"181 101 OFFCURVE",
"181 155 CURVE SMOOTH",
"181 206 LINE",
"125 206 OFFCURVE",
"70 206 OFFCURVE",
"14 206 CURVE",
"14 169 LINE SMOOTH",
"14 26 OFFCURVE",
"77 -8 OFFCURVE",
"196 -8 CURVE SMOOTH"
);
}
);
};
layerId = "8A3706BD-364F-4FE3-9C2E-7E87DF0DB4CC";
name = "Regular Backup";
paths = (
{
closed = 1;
nodes = (
"318 -8 OFFCURVE",
"391 36 OFFCURVE",
"391 171 CURVE SMOOTH",
"391 290 OFFCURVE",
"354 313 OFFCURVE",
"266 345 CURVE SMOOTH",
"223 361 OFFCURVE",
"184 368 OFFCURVE",
"184 427 CURVE SMOOTH",
"184 456 OFFCURVE",
"187 467 OFFCURVE",
"204 467 CURVE SMOOTH",
"225 467 OFFCURVE",
"225 453 OFFCURVE",
"225 399 CURVE SMOOTH",
"225 373 LINE",
"278 373 OFFCURVE",
"331 373 OFFCURVE",
"384 373 CURVE",
"384 449 LINE SMOOTH",
"384 546 OFFCURVE",
"322 593 OFFCURVE",
"202 593 CURVE SMOOTH",
"62 593 OFFCURVE",
"19 548 OFFCURVE",
"19 422 CURVE SMOOTH",
"19 332 OFFCURVE",
"40 279 OFFCURVE",
"115 246 CURVE SMOOTH",
"195 211 OFFCURVE",
"222 211 OFFCURVE",
"222 147 CURVE SMOOTH",
"222 101 OFFCURVE",
"217 92 OFFCURVE",
"202 92 CURVE SMOOTH",
"188 92 OFFCURVE",
"181 101 OFFCURVE",
"181 155 CURVE SMOOTH",
"181 206 LINE",
"125 206 OFFCURVE",
"70 206 OFFCURVE",
"14 206 CURVE",
"14 169 LINE SMOOTH",
"14 26 OFFCURVE",
"80 -8 OFFCURVE",
"199 -8 CURVE SMOOTH"
);
}
);
width = 405;
}
);
leftKerningGroup = S;
note = S;
unicode = 0053;
},
{
glyphname = Germandbls;
lastChange = "2021-11-26 10:46:02 +0000";
layers = (
{
layerId = "E9D5C8C2-E643-4C1D-A564-A66CB2499AF2";
paths = (
{
closed = 1;
nodes = (
"215 -116 LINE",
"214 498 LINE SMOOTH",
"214 536 OFFCURVE",
"221 558 OFFCURVE",
"258 558 CURVE SMOOTH",
"302 558 OFFCURVE",
"302 538 OFFCURVE",
"302 483 CURVE SMOOTH",
"302 435 LINE SMOOTH",
"302 396 OFFCURVE",
"298 373 OFFCURVE",
"276 373 CURVE SMOOTH",
"239 373 LINE",
"238 293 LINE",
"256 293 LINE SMOOTH",
"301 293 OFFCURVE",
"301 270 OFFCURVE",
"301 239 CURVE SMOOTH",
"301 186 LINE SMOOTH",
"301 94 OFFCURVE",
"298 78 OFFCURVE",
"261 78 CURVE SMOOTH",
"241 78 LINE",
"241 0 LINE",
"285 0 LINE SMOOTH",
"398 0 OFFCURVE",
"474 16 OFFCURVE",
"474 121 CURVE SMOOTH",
"474 244 LINE SMOOTH",
"474 303 OFFCURVE",
"419 334 OFFCURVE",
"371 338 CURVE",
"371 342 LINE",
"413 345 OFFCURVE",
"456 382 OFFCURVE",
"456 438 CURVE SMOOTH",
"456 533 LINE SMOOTH",
"456 606 OFFCURVE",
"385 631 OFFCURVE",
"256 631 CURVE SMOOTH",
"89 631 OFFCURVE",
"58 597 OFFCURVE",
"58 522 CURVE",
"58 -116 LINE"
);
},
{
closed = 1;
nodes = (
"129 271 LINE",
"134 520 LINE SMOOTH",
"135 555 OFFCURVE",
"154 591 OFFCURVE",
"197 591 CURVE",
"197 589 LINE",
"163 586 OFFCURVE",
"140 564 OFFCURVE",
"140 517 CURVE",
"142 271 LINE",
"137 14 LINE",
"130 14 LINE"
);
},
{
closed = 1;
nodes = (
"276 41 LINE",
"276 43 LINE",
"308 44 LINE SMOOTH",
"376 46 OFFCURVE",
"380 83 OFFCURVE",
"380 196 CURVE SMOOTH",
"380 266 OFFCURVE",
"379 305 OFFCURVE",
"334 305 CURVE",
"334 307 LINE",
"385 307 OFFCURVE",
"388 261 OFFCURVE",
"388 187 CURVE SMOOTH",
"388 77 OFFCURVE",
"378 38 OFFCURVE",
"308 40 CURVE SMOOTH"
);
},
{
closed = 1;
nodes = (
"334 361 LINE",
"379 361 OFFCURVE",
"380 400 OFFCURVE",
"380 470 CURVE SMOOTH",
"380 565 OFFCURVE",
"376 584 OFFCURVE",
"308 586 CURVE SMOOTH",
"276 587 LINE",
"276 589 LINE",
"308 589 LINE SMOOTH",
"378 589 OFFCURVE",
"388 570 OFFCURVE",
"388 479 CURVE SMOOTH",
"388 405 OFFCURVE",
"385 359 OFFCURVE",
"334 359 CURVE"
);
}
);
width = 499;
},
{
associatedMasterId = "E9D5C8C2-E643-4C1D-A564-A66CB2499AF2";
background = {
paths = (
{
closed = 1;
nodes = (
"718 -8 OFFCURVE",
"794 36 OFFCURVE",
"794 171 CURVE SMOOTH",
"794 290 OFFCURVE",
"757 313 OFFCURVE",
"669 345 CURVE SMOOTH",
"626 361 OFFCURVE",
"587 368 OFFCURVE",
"587 427 CURVE SMOOTH",
"587 456 OFFCURVE",
"590 467 OFFCURVE",
"607 467 CURVE SMOOTH",
"628 467 OFFCURVE",
"628 453 OFFCURVE",
"628 399 CURVE SMOOTH",
"628 373 LINE",
"681 373 OFFCURVE",
"734 373 OFFCURVE",
"787 373 CURVE",
"787 449 LINE SMOOTH",
"787 546 OFFCURVE",
"725 593 OFFCURVE",
"605 593 CURVE SMOOTH",
"465 593 OFFCURVE",
"422 548 OFFCURVE",
"422 422 CURVE SMOOTH",
"422 332 OFFCURVE",
"443 279 OFFCURVE",
"518 246 CURVE SMOOTH",
"598 211 OFFCURVE",
"625 211 OFFCURVE",
"625 147 CURVE SMOOTH",
"625 101 OFFCURVE",
"620 92 OFFCURVE",
"605 92 CURVE SMOOTH",
"591 92 OFFCURVE",
"584 101 OFFCURVE",
"584 155 CURVE SMOOTH",
"584 206 LINE",
"528 206 OFFCURVE",
"473 206 OFFCURVE",
"417 206 CURVE",
"417 169 LINE SMOOTH",
"417 26 OFFCURVE",
"480 -8 OFFCURVE",
"599 -8 CURVE SMOOTH"
);
},
{
closed = 1;
nodes = (
"321 -8 OFFCURVE",
"397 36 OFFCURVE",
"397 171 CURVE SMOOTH",
"397 290 OFFCURVE",
"360 313 OFFCURVE",
"272 345 CURVE SMOOTH",
"229 361 OFFCURVE",
"190 368 OFFCURVE",
"190 427 CURVE SMOOTH",
"190 456 OFFCURVE",
"193 467 OFFCURVE",
"210 467 CURVE SMOOTH",
"231 467 OFFCURVE",
"231 453 OFFCURVE",
"231 399 CURVE SMOOTH",
"231 373 LINE",
"284 373 OFFCURVE",
"337 373 OFFCURVE",
"390 373 CURVE",
"390 449 LINE SMOOTH",
"390 546 OFFCURVE",
"328 593 OFFCURVE",
"208 593 CURVE SMOOTH",
"68 593 OFFCURVE",
"25 548 OFFCURVE",
"25 422 CURVE SMOOTH",
"25 332 OFFCURVE",
"46 279 OFFCURVE",
"121 246 CURVE SMOOTH",
"201 211 OFFCURVE",
"228 211 OFFCURVE",
"228 147 CURVE SMOOTH",
"228 101 OFFCURVE",
"223 92 OFFCURVE",
"208 92 CURVE SMOOTH",
"194 92 OFFCURVE",
"187 101 OFFCURVE",
"187 155 CURVE SMOOTH",
"187 206 LINE",
"131 206 OFFCURVE",
"76 206 OFFCURVE",
"20 206 CURVE",
"20 169 LINE SMOOTH",
"20 26 OFFCURVE",
"83 -8 OFFCURVE",
"202 -8 CURVE SMOOTH"
);
}
);
};
layerId = "8A3706BD-364F-4FE3-9C2E-7E87DF0DB4CC";
name = "Regular Backup";
paths = (
{
closed = 1;
nodes = (
"215 -25 LINE",
"214 507 LINE SMOOTH",
"214 521 OFFCURVE",
"221 523 OFFCURVE",
"258 523 CURVE SMOOTH",
"302 523 OFFCURVE",
"302 503 OFFCURVE",
"302 448 CURVE SMOOTH",
"302 435 LINE SMOOTH",
"302 396 OFFCURVE",
"298 373 OFFCURVE",
"276 373 CURVE SMOOTH",
"239 373 LINE",
"238 293 LINE",
"256 293 LINE SMOOTH",
"301 293 OFFCURVE",
"301 270 OFFCURVE",
"301 239 CURVE SMOOTH",
"301 186 LINE SMOOTH",
"301 94 OFFCURVE",
"298 78 OFFCURVE",
"261 78 CURVE SMOOTH",
"241 78 LINE",
"241 0 LINE",
"285 0 LINE SMOOTH",
"398 0 OFFCURVE",
"474 16 OFFCURVE",
"474 121 CURVE SMOOTH",
"474 244 LINE SMOOTH",
"474 303 OFFCURVE",
"419 334 OFFCURVE",
"371 338 CURVE",
"371 342 LINE",
"413 345 OFFCURVE",
"456 382 OFFCURVE",
"456 438 CURVE SMOOTH",
"456 498 LINE SMOOTH",
"456 571 OFFCURVE",
"385 596 OFFCURVE",
"256 596 CURVE SMOOTH",
"89 596 OFFCURVE",
"58 589 OFFCURVE",
"58 549 CURVE",
"58 -25 LINE"
);
}
);
width = 499;
}
);
unicode = 1E9E;
},
{
glyphname = Schwa;
lastChange = "2021-11-26 10:45:55 +0000";
layers = (
{
layerId = "E9D5C8C2-E643-4C1D-A564-A66CB2499AF2";
paths = (
{
closed = 1;
nodes = (
"309 -9 OFFCURVE",
"382 27 OFFCURVE",
"382 126 CURVE SMOOTH",
"382 418 LINE SMOOTH",
"382 567 OFFCURVE",
"321 603 OFFCURVE",
"200 603 CURVE SMOOTH",
"80 603 OFFCURVE",
"25 567 OFFCURVE",
"25 417 CURVE SMOOTH",
"25 362 LINE",
"184 362 LINE",
"184 481 LINE SMOOTH",
"184 492 OFFCURVE",
"185 500 OFFCURVE",
"188 504 CURVE SMOOTH",
"191 509 OFFCURVE",
"195 511 OFFCURVE",
"200 511 CURVE SMOOTH",
"205 511 OFFCURVE",
"209 509 OFFCURVE",
"212 504 CURVE SMOOTH",
"215 500 OFFCURVE",
"216 492 OFFCURVE",
"216 481 CURVE SMOOTH",
"216 118 LINE SMOOTH",
"216 107 OFFCURVE",
"215 99 OFFCURVE",
"212 94 CURVE SMOOTH",
"209 90 OFFCURVE",
"205 88 OFFCURVE",
"200 88 CURVE SMOOTH",
"195 88 OFFCURVE",
"191 90 OFFCURVE",
"188 94 CURVE SMOOTH",
"185 99 OFFCURVE",
"184 107 OFFCURVE",
"184 118 CURVE SMOOTH",
"184 195 LINE",
"234 195 LINE",
"234 283 LINE",
"25 283 LINE",
"25 126 LINE SMOOTH",
"25 27 OFFCURVE",
"91 -9 OFFCURVE",
"200 -9 CURVE SMOOTH"
);
},
{
closed = 1;
nodes = (
"172 43 OFFCURVE",
"167 44 OFFCURVE",
"163 45 CURVE SMOOTH",
"120 56 OFFCURVE",
"102 81 OFFCURVE",
"103 118 CURVE SMOOTH",
"105 245 LINE",
"107 245 LINE",
"108 118 LINE SMOOTH",
"108 83 OFFCURVE",
"124 58 OFFCURVE",
"164 49 CURVE SMOOTH",
"175 46 OFFCURVE",
"185 45 OFFCURVE",
"200 45 CURVE SMOOTH",
"214 45 OFFCURVE",
"227 47 OFFCURVE",
"239 50 CURVE SMOOTH",
"278 59 OFFCURVE",
"293 85 OFFCURVE",
"292 125 CURVE SMOOTH",
"288 297 LINE",
"292 435 LINE SMOOTH",
"294 499 OFFCURVE",
"277 528 OFFCURVE",
"242 539 CURVE SMOOTH",
"230 543 OFFCURVE",
"216 545 OFFCURVE",
"200 545 CURVE SMOOTH",
"185 545 OFFCURVE",
"171 543 OFFCURVE",
"160 539 CURVE SMOOTH",
"121 527 OFFCURVE",
"108 499 OFFCURVE",
"107 435 CURVE SMOOTH",
"106 385 LINE",
"104 385 LINE",
"102 435 LINE SMOOTH",
"99 504 OFFCURVE",
"118 531 OFFCURVE",
"158 543 CURVE SMOOTH",
"170 547 OFFCURVE",
"184 547 OFFCURVE",
"200 547 CURVE SMOOTH",
"217 547 OFFCURVE",
"232 547 OFFCURVE",
"244 543 CURVE SMOOTH",
"279 532 OFFCURVE",
"294 503 OFFCURVE",
"296 435 CURVE SMOOTH",
"301 297 LINE",
"296 125 LINE SMOOTH",
"295 82 OFFCURVE",
"280 55 OFFCURVE",
"239 46 CURVE SMOOTH",
"230 43 OFFCURVE",
"215 43 OFFCURVE",
"200 43 CURVE SMOOTH",
"179 43 LINE SMOOTH"
);
}
);
width = 402;
},
{
anchors = (
{
name = bottom;
position = "{197, 0}";
},
{
name = top;
position = "{197, 591}";
}
);
associatedMasterId = "E9D5C8C2-E643-4C1D-A564-A66CB2499AF2";
layerId = "8A3706BD-364F-4FE3-9C2E-7E87DF0DB4CC";
name = "Regular Backup";
paths = (
{
closed = 1;
nodes = (
"302 -12 OFFCURVE",
"375 14 OFFCURVE",
"375 173 CURVE SMOOTH",
"375 465 LINE SMOOTH",
"375 564 OFFCURVE",
"302 600 OFFCURVE",
"193 600 CURVE SMOOTH",
"84 600 OFFCURVE",
"18 564 OFFCURVE",
"18 465 CURVE SMOOTH",
"18 327 LINE",
"177 327 LINE",
"177 473 LINE SMOOTH",
"177 496 OFFCURVE",
"184 503 OFFCURVE",
"193 503 CURVE SMOOTH",
"203 503 OFFCURVE",
"209 496 OFFCURVE",
"209 473 CURVE SMOOTH",
"209 110 LINE SMOOTH",
"209 87 OFFCURVE",
"203 80 OFFCURVE",
"193 80 CURVE SMOOTH",
"184 80 OFFCURVE",
"177 87 OFFCURVE",
"177 110 CURVE SMOOTH",
"177 248 LINE",
"18 248 LINE",
"18 174 LINE SMOOTH",
"18 14 OFFCURVE",
"84 -12 OFFCURVE",
"193 -12 CURVE SMOOTH"
);
},
{
closed = 1;
nodes = (
"230 216 LINE",
"230 289 LINE",
"18 289 LINE",
"18 216 LINE"
);
}
);
width = 395;
}
);
unicode = 018F;
},
{
glyphname = T;
lastChange = "2021-11-26 04:45:04 +0000";
layers = (
{
anchors = (
{
name = bottom;
position = "{175, 0}";
},
{
name = center;
position = "{175, 382}";
},
{
name = top;
position = "{175, 591}";
}
);
layerId = "E9D5C8C2-E643-4C1D-A564-A66CB2499AF2";
paths = (
{
closed = 1;
nodes = (
"254 0 LINE",
"254 480 LINE",
"339 480 LINE",
"339 591 LINE",
"10 591 LINE",
"10 480 LINE",
"95 480 LINE",
"95 0 LINE"
);
},
{
closed = 1;
nodes = (
"167 300 LINE",
"171 536 LINE",
"63 538 LINE",
"63 540 LINE",
"174 542 LINE",
"291 540 LINE",
"291 538 LINE",
"176 536 LINE",
"180 300 LINE",
"176 47 LINE",
"171 47 LINE"
);
}
);
userData = {
assembly = "PUSHW[ ]	/* 4 values pushed */\0122 5 15 4 \012CALL[ ]	/* CallFunction */\012PUSHW[ ]	/* 3 values pushed */\01213 15 2 \012SRP1[ ]	/* SetRefPoint1 */\012SRP2[ ]	/* SetRefPoint2 */\012IP[ ]	/* InterpolatePts */\012PUSHW[ ]	/* 1 value pushed */\01213 \012MDAP[1]	/* MoveDirectAbsPt */\012PUSHW[ ]	/* 2 values pushed */\01212 5 \012MIRP[10100]	/* MoveIndirectRelPt */\012PUSHW[ ]	/* 3 values pushed */\0124 13 12 \012SRP1[ ]	/* SetRefPoint1 */\012SRP2[ ]	/* SetRefPoint2 */\012IP[ ]	/* InterpolatePts */\012SVTCA[0]	/* SetFreedomAndProjectionVectorToAxis */\012PUSHW[ ]	/* 1 value pushed */\0120 \012RCVT[ ]	/* ReadCVT */\012IF[ ]	/* If */\012PUSHW[ ]	/* 1 value pushed */\01212 \012MDAP[1]	/* MoveDirectAbsPt */\012ELSE[ ]	/* Else */\012PUSHW[ ]	/* 2 values pushed */\01212 7 \012MIAP[0]	/* MoveIndirectAbsPt */\012EIF[ ]	/* EndIf */\012IUP[0]	/* InterpolateUntPts */\012IUP[1]	/* InterpolateUntPts */";
};
width = 349;
},
{
anchors = (
{
name = bottom;
position = "{173, 0}";
},
{
name = center;
position = "{173, 370}";
},
{
name = top;
position = "{173, 591}";
}
);
associatedMasterId = "E9D5C8C2-E643-4C1D-A564-A66CB2499AF2";
background = {
paths = (
{
closed = 1;
nodes = (
"252 0 LINE",
"252 480 LINE",
"337 480 LINE",
"337 591 LINE",
"8 591 LINE",
"8 480 LINE",
"93 480 LINE",
"93 0 LINE"
);
}
);
};
layerId = "8A3706BD-364F-4FE3-9C2E-7E87DF0DB4CC";
name = "Regular Backup";
paths = (
{
closed = 1;
nodes = (
"252 0 LINE",
"252 480 LINE",
"337 480 LINE",
"337 591 LINE",
"8 591 LINE",
"8 480 LINE",
"93 480 LINE",
"93 0 LINE"
);
}
);
width = 345;
}
);
note = T;
unicode = 0054;
},
{
glyphname = U;
lastChange = "2021-11-26 10:45:51 +0000";
layers = (
{
anchors = (
{
name = bottom;
position = "{201, 0}";
},
{
name = ogonek;
position = "{270, 0}";
},
{
name = top;
position = "{201, 591}";
},
{
name = topright;
position = "{254, 591}";
}
);
layerId = "E9D5C8C2-E643-4C1D-A564-A66CB2499AF2";
paths = (
{
closed = 1;
nodes = (
"320 -12 OFFCURVE",
"377 15 OFFCURVE",
"377 164 CURVE SMOOTH",
"377 591 LINE",
"218 591 LINE",
"218 115 LINE SMOOTH",
"218 92 OFFCURVE",
"212 85 OFFCURVE",
"201 85 CURVE SMOOTH",
"190 85 OFFCURVE",
"184 92 OFFCURVE",
"184 115 CURVE SMOOTH",
"184 591 LINE",
"25 591 LINE",
"25 163 LINE SMOOTH",
"25 14 OFFCURVE",
"82 -12 OFFCURVE",
"201 -12 CURVE SMOOTH"
);
},
{
closed = 1;
nodes = (
"126 45 OFFCURVE",
"104 70 OFFCURVE",
"103 114 CURVE SMOOTH",
"97 300 LINE",
"103 547 LINE",
"107 547 LINE",
"111 301 LINE",
"107 114 LINE SMOOTH",
"106 71 OFFCURVE",
"128 49 OFFCURVE",
"169 49 CURVE SMOOTH",
"174 49 OFFCURVE",
"179 49 OFFCURVE",
"184 49 CURVE SMOOTH",
"196 48 LINE",
"212 48 LINE SMOOTH",
"215 48 OFFCURVE",
"218 48 OFFCURVE",
"222 49 CURVE SMOOTH",
"236 49 LINE SMOOTH",
"277 50 OFFCURVE",
"299 71 OFFCURVE",
"298 114 CURVE SMOOTH",
"294 301 LINE",
"298 547 LINE",
"302 547 LINE",
"308 300 LINE",
"302 114 LINE SMOOTH",
"301 70 OFFCURVE",
"279 45 OFFCURVE",
"236 45 CURVE SMOOTH",
"212 45 LINE SMOOTH",
"209 45 OFFCURVE",
"207 45 OFFCURVE",
"205 46 CURVE",
"202 45 OFFCURVE",
"199 45 OFFCURVE",
"196 45 CURVE SMOOTH",
"169 45 LINE SMOOTH"
);
}
);
width = 402;
},
{
anchors = (
{
name = bottom;
position = "{201, 0}";
},
{
name = ogonek;
position = "{270, 0}";
},
{
name = top;
position = "{201, 591}";
},
{
name = topright;
position = "{251, 591}";
}
);
associatedMasterId = "E9D5C8C2-E643-4C1D-A564-A66CB2499AF2";
background = {
paths = (
{
closed = 1;
nodes = (
"307 -12 OFFCURVE",
"377 4 OFFCURVE",
"377 164 CURVE SMOOTH",
"377 591 LINE",
"218 591 LINE",
"218 115 LINE SMOOTH",
"218 92 OFFCURVE",
"211 85 OFFCURVE",
"201 85 CURVE SMOOTH",
"191 85 OFFCURVE",
"184 92 OFFCURVE",
"184 115 CURVE SMOOTH",
"184 591 LINE",
"25 591 LINE",
"25 163 LINE SMOOTH",
"25 4 OFFCURVE",
"95 -12 OFFCURVE",
"201 -12 CURVE SMOOTH"
);
}
);
};
layerId = "8A3706BD-364F-4FE3-9C2E-7E87DF0DB4CC";
name = "Regular Backup";
paths = (
{
closed = 1;
nodes = (
"307 -12 OFFCURVE",
"377 4 OFFCURVE",
"377 164 CURVE SMOOTH",
"377 591 LINE",
"218 591 LINE",
"218 115 LINE SMOOTH",
"218 92 OFFCURVE",
"211 85 OFFCURVE",
"201 85 CURVE SMOOTH",
"191 85 OFFCURVE",
"184 92 OFFCURVE",
"184 115 CURVE SMOOTH",
"184 591 LINE",
"25 591 LINE",
"25 163 LINE SMOOTH",
"25 4 OFFCURVE",
"95 -12 OFFCURVE",
"201 -12 CURVE SMOOTH"
);
}
);
visible = 1;
width = 402;
}
);
note = U;
unicode = 0055;
},
{
glyphname = V;
lastChange = "2021-11-26 04:45:04 +0000";
layers = (
{
layerId = "E9D5C8C2-E643-4C1D-A564-A66CB2499AF2";
paths = (
{
closed = 1;
nodes = (
"325 0 LINE",
"413 591 LINE",
"254 591 LINE",
"212 157 LINE",
"175 591 LINE",
"10 591 LINE",
"96 0 LINE"
);
},
{
closed = 1;
nodes = (
"120 312 LINE",
"93 547 LINE",
"97 547 LINE",
"133 313 LINE",
"168 51 LINE",
"213 50 LINE",
"259 51 LINE",
"292 314 LINE",
"324 547 LINE",
"328 547 LINE",
"305 314 LINE",
"263 47 LINE",
"213 49 LINE",
"164 47 LINE"
);
}
);
userData = {
assembly = "SVTCA[0]	/* SetFreedomAndProjectionVectorToAxis */\012PUSHW[ ]	/* 1 value pushed */\0120 \012RCVT[ ]	/* ReadCVT */\012IF[ ]	/* If */\012PUSHW[ ]	/* 1 value pushed */\0122 \012MDAP[1]	/* MoveDirectAbsPt */\012ELSE[ ]	/* Else */\012PUSHW[ ]	/* 2 values pushed */\0122 7 \012MIAP[0]	/* MoveIndirectAbsPt */\012EIF[ ]	/* EndIf */\012IUP[0]	/* InterpolateUntPts */\012IUP[1]	/* InterpolateUntPts */";
};
width = 423;
},
{
associatedMasterId = "E9D5C8C2-E643-4C1D-A564-A66CB2499AF2";
background = {
paths = (
{
closed = 1;
nodes = (
"323 0 LINE",
"411 591 LINE",
"252 591 LINE",
"211 157 LINE",
"209 157 LINE",
"173 591 LINE",
"8 591 LINE",
"94 0 LINE"
);
}
);
};
layerId = "8A3706BD-364F-4FE3-9C2E-7E87DF0DB4CC";
name = "Regular Backup";
paths = (
{
closed = 1;
nodes = (
"323 0 LINE",
"411 591 LINE",
"252 591 LINE",
"211 157 LINE",
"209 157 LINE",
"173 591 LINE",
"8 591 LINE",
"94 0 LINE"
);
}
);
width = 419;
}
);
note = V;
unicode = 0056;
},
{
glyphname = W;
lastChange = "2021-11-26 10:45:51 +0000";
layers = (
{
anchors = (
{
name = bottom;
position = "{321, 0}";
},
{
name = top;
position = "{320, 591}";
}
);
layerId = "E9D5C8C2-E643-4C1D-A564-A66CB2499AF2";
paths = (
{
closed = 1;
nodes = (
"282 0 LINE",
"320 258 LINE",
"359 0 LINE",
"545 0 LINE",
"631 591 LINE",
"466 591 LINE",
"425 200 LINE",
"387 591 LINE",
"254 591 LINE",
"216 200 LINE",
"175 591 LINE",
"10 591 LINE",
"96 0 LINE"
);
},
{
closed = 1;
nodes = (
"127 294 LINE",
"92 547 LINE",
"96 547 LINE",
"138 297 LINE",
"172 47 LINE",
"170 47 LINE"
);
},
{
closed = 1;
nodes = (
"248 125 LINE SMOOTH",
"255 172 OFFCURVE",
"264 234 OFFCURVE",
"275 295 CURVE SMOOTH",
"283 343 OFFCURVE",
"297 414 OFFCURVE",
"304 451 CURVE SMOOTH",
"310 485 OFFCURVE",
"318 519 OFFCURVE",
"318 525 CURVE",
"332 453 LINE SMOOTH",
"336 432 OFFCURVE",
"341 407 OFFCURVE",
"346 380 CURVE SMOOTH",
"362 294 LINE SMOOTH",
"373 233 OFFCURVE",
"383 172 OFFCURVE",
"390 125 CURVE SMOOTH",
"402 47 LINE",
"400 47 LINE",
"352 293 LINE",
"318 511 LINE",
"309 442 LINE SMOOTH",
"306 421 OFFCURVE",
"302 398 OFFCURVE",
"298 373 CURVE SMOOTH",
"285 294 LINE SMOOTH",
"275 234 OFFCURVE",
"264 172 OFFCURVE",
"254 125 CURVE SMOOTH",
"238 47 LINE",
"236 47 LINE"
);
},
{
closed = 1;
nodes = (
"500 297 LINE",
"542 547 LINE",
"546 547 LINE",
"511 294 LINE",
"468 47 LINE",
"466 47 LINE"
);
}
);
userData = {
assembly = "SVTCA[0]	/* SetFreedomAndProjectionVectorToAxis */\012PUSHW[ ]	/* 1 value pushed */\0120 \012RCVT[ ]	/* ReadCVT */\012IF[ ]	/* If */\012PUSHW[ ]	/* 1 value pushed */\0123 \012MDAP[1]	/* MoveDirectAbsPt */\012ELSE[ ]	/* Else */\012PUSHW[ ]	/* 2 values pushed */\0123 7 \012MIAP[0]	/* MoveIndirectAbsPt */\012EIF[ ]	/* EndIf */\012PUSHW[ ]	/* 1 value pushed */\0120 \012RCVT[ ]	/* ReadCVT */\012IF[ ]	/* If */\012PUSHW[ ]	/* 1 value pushed */\0126 \012MDAP[1]	/* MoveDirectAbsPt */\012ELSE[ ]	/* Else */\012PUSHW[ ]	/* 2 values pushed */\0126 7 \012MIAP[0]	/* MoveIndirectAbsPt */\012EIF[ ]	/* EndIf */\012IUP[0]	/* InterpolateUntPts */\012IUP[1]	/* InterpolateUntPts */";
};
width = 641;
},
{
anchors = (
{
name = bottom;
position = "{319, 0}";
},
{
name = top;
position = "{319, 591}";
}
);
associatedMasterId = "E9D5C8C2-E643-4C1D-A564-A66CB2499AF2";
background = {
paths = (
{
closed = 1;
nodes = (
"280 0 LINE",
"318 258 LINE",
"357 0 LINE",
"543 0 LINE",
"629 591 LINE",
"464 591 LINE",
"423 200 LINE",
"385 591 LINE",
"252 591 LINE",
"214 200 LINE",
"173 591 LINE",
"8 591 LINE",
"94 0 LINE"
);
}
);
};
layerId = "8A3706BD-364F-4FE3-9C2E-7E87DF0DB4CC";
name = "Regular Backup";
paths = (
{
closed = 1;
nodes = (
"280 0 LINE",
"318 258 LINE",
"357 0 LINE",
"543 0 LINE",
"629 591 LINE",
"464 591 LINE",
"423 200 LINE",
"385 591 LINE",
"252 591 LINE",
"214 200 LINE",
"173 591 LINE",
"8 591 LINE",
"94 0 LINE"
);
}
);
width = 637;
}
);
note = W;
unicode = 0057;
},
{
glyphname = X;
lastChange = "2021-11-26 10:45:51 +0000";
layers = (
{
layerId = "E9D5C8C2-E643-4C1D-A564-A66CB2499AF2";
paths = (
{
closed = 1;
nodes = (
"184 0 LINE",
"213 154 LINE",
"248 0 LINE",
"407 0 LINE",
"332 307 LINE",
"409 591 LINE",
"240 591 LINE",
"211 436 LINE",
"176 591 LINE",
"17 591 LINE",
"96 307 LINE",
"15 0 LINE"
);
},
{
closed = 1;
nodes = (
"176 307 LINE",
"176 310 OFFCURVE",
"148 398 OFFCURVE",
"140 429 CURVE SMOOTH",
"129 464 OFFCURVE",
"118 503 OFFCURVE",
"105 547 CURVE",
"108 547 LINE",
"184 310 LINE",
"212 308 LINE",
"241 310 LINE",
"317 547 LINE",
"320 547 LINE",
"285 429 LINE SMOOTH",
"276 402 OFFCURVE",
"249 308 OFFCURVE",
"249 307 CURVE",
"315 47 LINE",
"312 47 LINE",
"240 305 LINE",
"212 307 LINE",
"184 305 LINE",
"113 47 LINE",
"110 47 LINE"
);
}
);
userData = {
assembly = "SVTCA[0]	/* SetFreedomAndProjectionVectorToAxis */\012PUSHW[ ]	/* 1 value pushed */\0120 \012RCVT[ ]	/* ReadCVT */\012IF[ ]	/* If */\012PUSHW[ ]	/* 1 value pushed */\01229 \012MDAP[1]	/* MoveDirectAbsPt */\012ELSE[ ]	/* Else */\012PUSHW[ ]	/* 2 values pushed */\01229 7 \012MIAP[0]	/* MoveIndirectAbsPt */\012EIF[ ]	/* EndIf */\012PUSHW[ ]	/* 1 value pushed */\0120 \012RCVT[ ]	/* ReadCVT */\012IF[ ]	/* If */\012PUSHW[ ]	/* 1 value pushed */\01238 \012MDAP[1]	/* MoveDirectAbsPt */\012ELSE[ ]	/* Else */\012PUSHW[ ]	/* 2 values pushed */\01238 7 \012MIAP[0]	/* MoveIndirectAbsPt */\012EIF[ ]	/* EndIf */\012IUP[0]	/* InterpolateUntPts */\012IUP[1]	/* InterpolateUntPts */";
};
width = 424;
},
{
associatedMasterId = "E9D5C8C2-E643-4C1D-A564-A66CB2499AF2";
background = {
paths = (
{
closed = 1;
nodes = (
"174 0 LINE",
"203 154 LINE",
"238 0 LINE",
"397 0 LINE",
"322 307 LINE",
"399 591 LINE",
"230 591 LINE",
"201 436 LINE",
"166 591 LINE",
"7 591 LINE",
"86 307 LINE",
"5 0 LINE"
);
}
);
};
layerId = "8A3706BD-364F-4FE3-9C2E-7E87DF0DB4CC";
name = "Regular Backup";
paths = (
{
closed = 1;
nodes = (
"174 0 LINE",
"203 154 LINE",
"238 0 LINE",
"397 0 LINE",
"322 307 LINE",
"399 591 LINE",
"230 591 LINE",
"201 436 LINE",
"166 591 LINE",
"7 591 LINE",
"86 307 LINE",
"5 0 LINE"
);
}
);
width = 404;
}
);
note = X;
unicode = 0058;
},
{
glyphname = Y;
lastChange = "2021-11-26 10:45:51 +0000";
layers = (
{
anchors = (
{
name = bottom;
position = "{202, 0}";
},
{
name = top;
position = "{208, 591}";
},
{
name = topleft;
position = "{20, 591}";
}
);
layerId = "E9D5C8C2-E643-4C1D-A564-A66CB2499AF2";
paths = (
{
closed = 1;
nodes = (
"280 0 LINE",
"280 236 LINE",
"394 591 LINE",
"250 591 LINE",
"217 467 LINE",
"208 415 LINE",
"199 467 LINE",
"167 591 LINE",
"10 591 LINE",
"121 245 LINE",
"121 0 LINE"
);
},
{
closed = 1;
nodes = (
"196 238 LINE SMOOTH",
"196 241 OFFCURVE",
"160 355 OFFCURVE",
"147 395 CURVE SMOOTH",
"99 547 LINE",
"102 547 LINE",
"202 252 LINE",
"304 547 LINE",
"307 547 LINE",
"288 490 OFFCURVE",
"272 440 OFFCURVE",
"258 395 CURVE SMOOTH",
"246 355 OFFCURVE",
"208 242 OFFCURVE",
"208 238 CURVE SMOOTH",
"203 47 LINE",
"201 47 LINE"
);
}
);
userData = {
assembly = "SVTCA[0]	/* SetFreedomAndProjectionVectorToAxis */\012PUSHW[ ]	/* 1 value pushed */\0120 \012RCVT[ ]	/* ReadCVT */\012IF[ ]	/* If */\012PUSHW[ ]	/* 1 value pushed */\0122 \012MDAP[1]	/* MoveDirectAbsPt */\012ELSE[ ]	/* Else */\012PUSHW[ ]	/* 2 values pushed */\0122 7 \012MIAP[0]	/* MoveIndirectAbsPt */\012EIF[ ]	/* EndIf */\012IUP[0]	/* InterpolateUntPts */\012IUP[1]	/* InterpolateUntPts */";
};
width = 404;
},
{
anchors = (
{
name = bottom;
position = "{196, 0}";
},
{
name = top;
position = "{203, 591}";
},
{
name = topleft;
position = "{20, 591}";
}
);
associatedMasterId = "E9D5C8C2-E643-4C1D-A564-A66CB2499AF2";
background = {
paths = (
{
closed = 1;
nodes = (
"274 0 LINE",
"274 236 LINE",
"388 591 LINE",
"244 591 LINE",
"211 467 LINE",
"202 415 LINE",
"193 467 LINE",
"161 591 LINE",
"4 591 LINE",
"115 245 LINE",
"115 0 LINE"
);
}
);
};
layerId = "8A3706BD-364F-4FE3-9C2E-7E87DF0DB4CC";
name = "Regular Backup";
paths = (
{
closed = 1;
nodes = (
"274 0 LINE",
"274 236 LINE",
"388 591 LINE",
"244 591 LINE",
"211 467 LINE",
"202 415 LINE",
"193 467 LINE",
"161 591 LINE",
"4 591 LINE",
"115 245 LINE",
"115 0 LINE"
);
}
);
width = 392;
}
);
leftKerningGroup = Y;
note = Y;
rightKerningGroup = Y;
unicode = 0059;
},
{
glyphname = Z;
lastChange = "2021-11-26 05:48:08 +0000";
layers = (
{
anchors = (
{
name = bottom;
position = "{154, 0}";
},
{
name = center;
position = "{154, 296}";
},
{
name = top;
position = "{163, 591}";
}
);
layerId = "E9D5C8C2-E643-4C1D-A564-A66CB2499AF2";
paths = (
{
closed = 1;
nodes = (
"298 0 LINE",
"298 111 LINE",
"183 111 LINE",
"298 516 LINE",
"298 591 LINE",
"20 591 LINE",
"20 480 LINE",
"117 480 LINE",
"10 98 LINE",
"10 0 LINE"
);
},
{
closed = 1;
nodes = (
"143 307 LINE",
"211 535 LINE",
"67 536 LINE",
"67 538 LINE",
"216 540 LINE",
"156 304 LINE",
"81 55 LINE",
"246 54 LINE",
"246 52 LINE",
"76 50 LINE"
);
}
);
userData = {
assembly = "SVTCA[0]	/* SetFreedomAndProjectionVectorToAxis */\012PUSHW[ ]	/* 1 value pushed */\0120 \012RCVT[ ]	/* ReadCVT */\012IF[ ]	/* If */\012PUSHW[ ]	/* 1 value pushed */\01210 \012MDAP[1]	/* MoveDirectAbsPt */\012ELSE[ ]	/* Else */\012PUSHW[ ]	/* 2 values pushed */\01210 7 \012MIAP[0]	/* MoveIndirectAbsPt */\012EIF[ ]	/* EndIf */\012PUSHW[ ]	/* 2 values pushed */\01217 4 \012MIRP[10100]	/* MoveIndirectRelPt */\012PUSHW[ ]	/* 3 values pushed */\0126 10 17 \012SRP1[ ]	/* SetRefPoint1 */\012SRP2[ ]	/* SetRefPoint2 */\012IP[ ]	/* InterpolatePts */\012PUSHW[ ]	/* 3 values pushed */\0128 10 17 \012SRP1[ ]	/* SetRefPoint1 */\012SRP2[ ]	/* SetRefPoint2 */\012IP[ ]	/* InterpolatePts */\012PUSHW[ ]	/* 3 values pushed */\0129 10 17 \012SRP1[ ]	/* SetRefPoint1 */\012SRP2[ ]	/* SetRefPoint2 */\012IP[ ]	/* InterpolatePts */\012IUP[0]	/* InterpolateUntPts */\012IUP[1]	/* InterpolateUntPts */";
};
width = 308;
},
{
anchors = (
{
name = bottom;
position = "{154, 0}";
},
{
name = center;
position = "{154, 296}";
},
{
name = top;
position = "{163, 591}";
}
);
associatedMasterId = "E9D5C8C2-E643-4C1D-A564-A66CB2499AF2";
background = {
paths = (
{
closed = 1;
nodes = (
"298 0 LINE",
"298 111 LINE",
"183 111 LINE",
"298 516 LINE",
"298 591 LINE",
"20 591 LINE",
"20 480 LINE",
"117 480 LINE",
"10 98 LINE",
"10 0 LINE"
);
}
);
};
layerId = "8A3706BD-364F-4FE3-9C2E-7E87DF0DB4CC";
name = "Regular Backup";
paths = (
{
closed = 1;
nodes = (
"298 0 LINE",
"298 111 LINE",
"183 111 LINE",
"298 516 LINE",
"298 591 LINE",
"20 591 LINE",
"20 480 LINE",
"117 480 LINE",
"10 98 LINE",
"10 0 LINE"
);
}
);
visible = 1;
width = 308;
}
);
leftKerningGroup = Z;
note = Z;
rightKerningGroup = Z;
unicode = 005A;
},
{
glyphname = a;
lastChange = "2021-11-26 10:45:51 +0000";
layers = (
{
anchors = (
{
name = bottom;
position = "{192, 0}";
},
{
name = ogonek;
position = "{362, 0}";
},
{
name = top;
position = "{196, 495}";
}
);
layerId = "E9D5C8C2-E643-4C1D-A564-A66CB2499AF2";
paths = (
{
closed = 1;
nodes = (
"173 -7 OFFCURVE",
"198 24 OFFCURVE",
"206 49 CURVE",
"206 0 LINE",
"362 0 LINE",
"362 386 LINE SMOOTH",
"362 487 OFFCURVE",
"314 505 OFFCURVE",
"187 505 CURVE SMOOTH",
"67 505 OFFCURVE",
"28 466 OFFCURVE",
"28 386 CURVE SMOOTH",
"28 321 LINE",
"169 321 LINE",
"169 384 LINE SMOOTH",
"169 397 OFFCURVE",
"170 407 OFFCURVE",
"172 414 CURVE SMOOTH",
"174 420 OFFCURVE",
"179 423 OFFCURVE",
"186 423 CURVE SMOOTH",
"201 423 OFFCURVE",
"203 412 OFFCURVE",
"203 397 CURVE SMOOTH",
"203 365 LINE SMOOTH",
"203 326 OFFCURVE",
"195 310 OFFCURVE",
"154 297 CURVE SMOOTH",
"86 273 OFFCURVE",
"18 254 OFFCURVE",
"18 170 CURVE SMOOTH",
"18 89 LINE SMOOTH",
"18 3 OFFCURVE",
"73 -7 OFFCURVE",
"116 -7 CURVE SMOOTH"
);
},
{
closed = 1;
nodes = (
"107 39 OFFCURVE",
"88 58 OFFCURVE",
"88 111 CURVE SMOOTH",
"88 181 LINE SMOOTH",
"88 224 OFFCURVE",
"127 248 OFFCURVE",
"154 257 CURVE",
"154 255 LINE",
"131 247 OFFCURVE",
"98 226 OFFCURVE",
"98 181 CURVE SMOOTH",
"98 111 LINE SMOOTH",
"98 60 OFFCURVE",
"109 41 OFFCURVE",
"134 41 CURVE",
"134 39 LINE"
);
},
{
closed = 1;
nodes = (
"170 80 OFFCURVE",
"169 98 OFFCURVE",
"169 121 CURVE SMOOTH",
"169 186 LINE SMOOTH",
"169 217 OFFCURVE",
"183 234 OFFCURVE",
"203 246 CURVE",
"203 127 LINE SMOOTH",
"203 100 OFFCURVE",
"203 80 OFFCURVE",
"186 80 CURVE SMOOTH"
);
},
{
closed = 1;
nodes = (
"274 240 LINE",
"279 429 LINE",
"283 429 LINE",
"287 240 LINE",
"282 47 LINE",
"278 47 LINE"
);
},
{
closed = 1;
nodes = (
"90 395 LINE SMOOTH",
"90 440 OFFCURVE",
"137 471 OFFCURVE",
"184 471 CURVE",
"184 469 LINE",
"137 469 OFFCURVE",
"98 436 OFFCURVE",
"98 395 CURVE SMOOTH",
"98 366 LINE",
"90 366 LINE"
);
}
);
userData = {
assembly = "SVTCA[0]	/* SetFreedomAndProjectionVectorToAxis */\012PUSHW[ ]	/* 1 value pushed */\0120 \012RCVT[ ]	/* ReadCVT */\012IF[ ]	/* If */\012PUSHW[ ]	/* 1 value pushed */\01218 \012MDAP[1]	/* MoveDirectAbsPt */\012ELSE[ ]	/* Else */\012PUSHW[ ]	/* 2 values pushed */\01218 7 \012MIAP[0]	/* MoveIndirectAbsPt */\012EIF[ ]	/* EndIf */\012PUSHW[ ]	/* 1 value pushed */\0120 \012RCVT[ ]	/* ReadCVT */\012IF[ ]	/* If */\012PUSHW[ ]	/* 1 value pushed */\01253 \012MDAP[1]	/* MoveDirectAbsPt */\012ELSE[ ]	/* Else */\012PUSHW[ ]	/* 2 values pushed */\01253 7 \012MIAP[0]	/* MoveIndirectAbsPt */\012EIF[ ]	/* EndIf */\012PUSHW[ ]	/* 1 value pushed */\01218 \012SRP0[ ]	/* SetRefPoint0 */\012PUSHW[ ]	/* 2 values pushed */\01258 1 \012MIRP[10100]	/* MoveIndirectRelPt */\012NPUSHW[ ]	/* 15 values pushed */\0127 58 23 58 39 58 55 58 71 58 87 58 103 58 7 \012DELTAP1[ ]	/* DeltaExceptionP1 */\012NPUSHW[ ]	/* 5 values pushed */\012118 58 134 58 2 \012DELTAP1[ ]	/* DeltaExceptionP1 */\012PUSHW[ ]	/* 3 values pushed */\01210 18 58 \012SRP1[ ]	/* SetRefPoint1 */\012SRP2[ ]	/* SetRefPoint2 */\012IP[ ]	/* InterpolatePts */\012PUSHW[ ]	/* 3 values pushed */\01255 18 58 \012SRP1[ ]	/* SetRefPoint1 */\012SRP2[ ]	/* SetRefPoint2 */\012IP[ ]	/* InterpolatePts */\012PUSHW[ ]	/* 3 values pushed */\01271 18 58 \012SRP1[ ]	/* SetRefPoint1 */\012SRP2[ ]	/* SetRefPoint2 */\012IP[ ]	/* InterpolatePts */\012IUP[0]	/* InterpolateUntPts */\012IUP[1]	/* InterpolateUntPts */";
};
width = 384;
},
{
anchors = (
{
name = bottom;
position = "{189, 0}";
},
{
name = ogonek;
position = "{358, 0}";
},
{
name = top;
position = "{193, 495}";
}
);
associatedMasterId = "E9D5C8C2-E643-4C1D-A564-A66CB2499AF2";
background = {
paths = (
{
closed = 1;
nodes = (
"155 -8 OFFCURVE",
"195 16 OFFCURVE",
"202 49 CURVE",
"202 0 LINE",
"358 0 LINE",
"358 386 LINE SMOOTH",
"358 481 OFFCURVE",
"317 505 OFFCURVE",
"182 505 CURVE SMOOTH",
"45 505 OFFCURVE",
"24 452 OFFCURVE",
"24 378 CURVE SMOOTH",
"24 321 LINE",
"165 321 LINE",
"165 363 LINE SMOOTH",
"165 410 OFFCURVE",
"168 423 OFFCURVE",
"182 423 CURVE SMOOTH",
"196 423 OFFCURVE",
"199 412 OFFCURVE",
"199 397 CURVE SMOOTH",
"199 365 LINE SMOOTH",
"199 315 OFFCURVE",
"186 309 OFFCURVE",
"129 290 CURVE SMOOTH",
"44 263 OFFCURVE",
"14 229 OFFCURVE",
"14 170 CURVE SMOOTH",
"14 89 LINE SMOOTH",
"14 8 OFFCURVE",
"56 -8 OFFCURVE",
"112 -8 CURVE SMOOTH"
);
},
{
closed = 1;
nodes = (
"166 93 OFFCURVE",
"165 111 OFFCURVE",
"165 129 CURVE SMOOTH",
"165 190 LINE SMOOTH",
"166 207 OFFCURVE",
"169 214 OFFCURVE",
"178 224 CURVE SMOOTH",
"185 232 OFFCURVE",
"196 236 OFFCURVE",
"199 241 CURVE",
"199 140 LINE SMOOTH",
"199 106 OFFCURVE",
"198 93 OFFCURVE",
"182 93 CURVE SMOOTH"
);
}
);
};
layerId = "8A3706BD-364F-4FE3-9C2E-7E87DF0DB4CC";
name = "Regular Backup";
paths = (
{
closed = 1;
nodes = (
"155 -8 OFFCURVE",
"195 16 OFFCURVE",
"202 49 CURVE",
"202 0 LINE",
"358 0 LINE",
"358 386 LINE SMOOTH",
"358 481 OFFCURVE",
"317 505 OFFCURVE",
"182 505 CURVE SMOOTH",
"45 505 OFFCURVE",
"24 452 OFFCURVE",
"24 378 CURVE SMOOTH",
"24 321 LINE",
"165 321 LINE",
"165 363 LINE SMOOTH",
"165 410 OFFCURVE",
"168 423 OFFCURVE",
"182 423 CURVE SMOOTH",
"196 423 OFFCURVE",
"199 412 OFFCURVE",
"199 397 CURVE SMOOTH",
"199 365 LINE SMOOTH",
"199 315 OFFCURVE",
"186 309 OFFCURVE",
"129 290 CURVE SMOOTH",
"44 263 OFFCURVE",
"14 229 OFFCURVE",
"14 170 CURVE SMOOTH",
"14 89 LINE SMOOTH",
"14 8 OFFCURVE",
"56 -8 OFFCURVE",
"112 -8 CURVE SMOOTH"
);
},
{
closed = 1;
nodes = (
"166 93 OFFCURVE",
"165 111 OFFCURVE",
"165 129 CURVE SMOOTH",
"165 190 LINE SMOOTH",
"165 207 OFFCURVE",
"169 214 OFFCURVE",
"178 224 CURVE SMOOTH",
"185 232 OFFCURVE",
"196 236 OFFCURVE",
"199 241 CURVE",
"199 140 LINE SMOOTH",
"199 106 OFFCURVE",
"198 93 OFFCURVE",
"182 93 CURVE SMOOTH"
);
}
);
width = 378;
}
);
leftKerningGroup = a;
note = a;
rightKerningGroup = a;
unicode = 0061;
},
{
color = 0;
glyphname = ae;
lastChange = "2021-11-26 10:45:51 +0000";
layers = (
{
anchors = (
{
name = bottom;
position = "{284, 0}";
},
{
name = top;
position = "{284, 495}";
}
);
layerId = "E9D5C8C2-E643-4C1D-A564-A66CB2499AF2";
paths = (
{
closed = 1;
nodes = (
"498 -12 OFFCURVE",
"552 18 OFFCURVE",
"552 167 CURVE SMOOTH",
"552 188 LINE",
"396 188 LINE",
"396 98 LINE SMOOTH",
"396 75 OFFCURVE",
"390 68 OFFCURVE",
"379 68 CURVE SMOOTH",
"372 68 OFFCURVE",
"367 72 OFFCURVE",
"364 80 CURVE",
"364 233 LINE",
"552 233 LINE",
"552 373 LINE SMOOTH",
"552 472 OFFCURVE",
"490 503 OFFCURVE",
"379 503 CURVE SMOOTH",
"347 503 OFFCURVE",
"320 500 OFFCURVE",
"297 494 CURVE",
"270 502 OFFCURVE",
"236 505 OFFCURVE",
"189 505 CURVE SMOOTH",
"68 505 OFFCURVE",
"20 465 OFFCURVE",
"20 386 CURVE SMOOTH",
"20 321 LINE",
"171 321 LINE",
"171 384 LINE SMOOTH",
"171 397 OFFCURVE",
"172 407 OFFCURVE",
"174 414 CURVE SMOOTH",
"176 420 OFFCURVE",
"181 423 OFFCURVE",
"188 423 CURVE SMOOTH",
"203 423 OFFCURVE",
"205 412 OFFCURVE",
"205 397 CURVE SMOOTH",
"205 365 LINE SMOOTH",
"205 326 OFFCURVE",
"197 310 OFFCURVE",
"156 297 CURVE SMOOTH",
"88 273 OFFCURVE",
"20 254 OFFCURVE",
"20 170 CURVE SMOOTH",
"20 89 LINE SMOOTH",
"20 3 OFFCURVE",
"75 -7 OFFCURVE",
"118 -7 CURVE SMOOTH",
"175 -7 OFFCURVE",
"200 24 OFFCURVE",
"208 49 CURVE",
"208 0 LINE",
"283 0 LINE",
"310 -11 OFFCURVE",
"342 -12 OFFCURVE",
"379 -12 CURVE SMOOTH"
);
},
{
closed = 1;
nodes = (
"107 39 OFFCURVE",
"88 58 OFFCURVE",
"88 111 CURVE SMOOTH",
"88 181 LINE SMOOTH",
"88 224 OFFCURVE",
"127 248 OFFCURVE",
"154 257 CURVE",
"154 255 LINE",
"131 247 OFFCURVE",
"98 226 OFFCURVE",
"98 181 CURVE SMOOTH",
"98 111 LINE SMOOTH",
"98 60 OFFCURVE",
"109 41 OFFCURVE",
"134 41 CURVE",
"134 39 LINE"
);
},
{
closed = 1;
nodes = (
"172 80 OFFCURVE",
"171 98 OFFCURVE",
"171 121 CURVE SMOOTH",
"171 186 LINE SMOOTH",
"171 217 OFFCURVE",
"185 234 OFFCURVE",
"205 246 CURVE",
"205 127 LINE SMOOTH",
"205 100 OFFCURVE",
"205 80 OFFCURVE",
"188 80 CURVE SMOOTH"
);
},
{
closed = 1;
nodes = (
"274 240 LINE",
"279 429 LINE",
"283 429 LINE",
"287 240 LINE",
"282 47 LINE",
"278 47 LINE"
);
},
{
closed = 1;
nodes = (
"405 35 LINE",
"452 35 OFFCURVE",
"476 72 OFFCURVE",
"476 113 CURVE SMOOTH",
"476 164 LINE",
"484 164 LINE",
"484 113 LINE",
"484 69 OFFCURVE",
"453 33 OFFCURVE",
"405 33 CURVE"
);
},
{
closed = 1;
nodes = (
"90 395 LINE SMOOTH",
"90 440 OFFCURVE",
"137 471 OFFCURVE",
"184 471 CURVE",
"184 469 LINE",
"137 469 OFFCURVE",
"98 436 OFFCURVE",
"98 395 CURVE SMOOTH",
"98 366 LINE",
"90 366 LINE"
);
},
{
closed = 1;
nodes = (
"364 386 LINE",
"364 397 LINE SMOOTH",
"364 400 OFFCURVE",
"364 404 OFFCURVE",
"363 407 CURVE",
"366 418 OFFCURVE",
"371 423 OFFCURVE",
"379 423 CURVE SMOOTH",
"390 423 OFFCURVE",
"396 416 OFFCURVE",
"396 393 CURVE SMOOTH",
"396 300 LINE",
"364 300 LINE"
);
},
{
closed = 1;
nodes = (
"476 382 LINE SMOOTH",
"476 423 OFFCURVE",
"460 456 OFFCURVE",
"413 456 CURVE",
"413 458 LINE",
"461 458 OFFCURVE",
"484 426 OFFCURVE",
"484 382 CURVE SMOOTH",
"484 267 LINE",
"476 267 LINE"
);
}
);
userData = {
assembly = "SVTCA[0]	/* SetFreedomAndProjectionVectorToAxis */\012PUSHW[ ]	/* 1 value pushed */\0120 \012RCVT[ ]	/* ReadCVT */\012IF[ ]	/* If */\012PUSHW[ ]	/* 1 value pushed */\01246 \012MDAP[1]	/* MoveDirectAbsPt */\012ELSE[ ]	/* Else */\012PUSHW[ ]	/* 2 values pushed */\01246 11 \012MIAP[0]	/* MoveIndirectAbsPt */\012EIF[ ]	/* EndIf */\012PUSHW[ ]	/* 1 value pushed */\0120 \012RCVT[ ]	/* ReadCVT */\012IF[ ]	/* If */\012PUSHW[ ]	/* 1 value pushed */\0126 \012MDAP[1]	/* MoveDirectAbsPt */\012ELSE[ ]	/* Else */\012PUSHW[ ]	/* 2 values pushed */\0126 7 \012MIAP[0]	/* MoveIndirectAbsPt */\012EIF[ ]	/* EndIf */\012PUSHW[ ]	/* 1 value pushed */\0120 \012RCVT[ ]	/* ReadCVT */\012IF[ ]	/* If */\012PUSHW[ ]	/* 1 value pushed */\0129 \012MDAP[1]	/* MoveDirectAbsPt */\012ELSE[ ]	/* Else */\012PUSHW[ ]	/* 2 values pushed */\0129 7 \012MIAP[0]	/* MoveIndirectAbsPt */\012EIF[ ]	/* EndIf */\012PUSHW[ ]	/* 1 value pushed */\0120 \012RCVT[ ]	/* ReadCVT */\012IF[ ]	/* If */\012PUSHW[ ]	/* 1 value pushed */\01214 \012MDAP[1]	/* MoveDirectAbsPt */\012ELSE[ ]	/* Else */\012PUSHW[ ]	/* 2 values pushed */\01214 7 \012MIAP[0]	/* MoveIndirectAbsPt */\012EIF[ ]	/* EndIf */\012PUSHW[ ]	/* 2 values pushed */\01261 1 \012MIRP[10100]	/* MoveIndirectRelPt */\012NPUSHW[ ]	/* 15 values pushed */\0127 61 23 61 39 61 55 61 71 61 87 61 103 61 7 \012DELTAP1[ ]	/* DeltaExceptionP1 */\012NPUSHW[ ]	/* 5 values pushed */\012118 61 134 61 2 \012DELTAP1[ ]	/* DeltaExceptionP1 */\012PUSHW[ ]	/* 3 values pushed */\01211 14 61 \012SRP1[ ]	/* SetRefPoint1 */\012SRP2[ ]	/* SetRefPoint2 */\012IP[ ]	/* InterpolatePts */\012PUSHW[ ]	/* 3 values pushed */\01265 6 46 \012SRP1[ ]	/* SetRefPoint1 */\012SRP2[ ]	/* SetRefPoint2 */\012IP[ ]	/* InterpolatePts */\012IUP[0]	/* InterpolateUntPts */\012IUP[1]	/* InterpolateUntPts */";
};
width = 567;
},
{
anchors = (
{
name = bottom;
position = "{282, 0}";
},
{
name = top;
position = "{300, 495}";
}
);
associatedMasterId = "E9D5C8C2-E643-4C1D-A564-A66CB2499AF2";
background = {
paths = (
{
closed = 1;
nodes = (
"158 -7 OFFCURVE",
"210 13 OFFCURVE",
"233 78 CURVE",
"328 0 LINE",
"328 386 LINE SMOOTH",
"328 464 OFFCURVE",
"294 505 OFFCURVE",
"182 505 CURVE SMOOTH",
"45 505 OFFCURVE",
"24 452 OFFCURVE",
"24 378 CURVE SMOOTH",
"24 321 LINE",
"165 321 LINE",
"165 363 LINE SMOOTH",
"165 410 OFFCURVE",
"168 423 OFFCURVE",
"182 423 CURVE SMOOTH",
"196 423 OFFCURVE",
"199 412 OFFCURVE",
"199 397 CURVE SMOOTH",
"199 365 LINE SMOOTH",
"199 311 OFFCURVE",
"183 308 OFFCURVE",
"125 289 CURVE SMOOTH",
"60 267 OFFCURVE",
"14 239 OFFCURVE",
"14 170 CURVE SMOOTH",
"14 89 LINE SMOOTH",
"14 -10 OFFCURVE",
"83 -7 OFFCURVE",
"112 -7 CURVE SMOOTH"
);
},
{
closed = 1;
nodes = (
"166 93 OFFCURVE",
"165 111 OFFCURVE",
"165 129 CURVE SMOOTH",
"165 190 LINE SMOOTH",
"165 207 OFFCURVE",
"169 214 OFFCURVE",
"178 224 CURVE SMOOTH",
"185 232 OFFCURVE",
"196 236 OFFCURVE",
"199 241 CURVE",
"199 140 LINE SMOOTH",
"199 106 OFFCURVE",
"198 93 OFFCURVE",
"182 93 CURVE SMOOTH"
);
},
{
closed = 1;
nodes = (
"481 -2 OFFCURVE",
"548 7 OFFCURVE",
"548 167 CURVE SMOOTH",
"548 188 LINE",
"392 188 LINE",
"392 98 LINE SMOOTH",
"392 75 OFFCURVE",
"385 68 OFFCURVE",
"375 68 CURVE SMOOTH",
"365 68 OFFCURVE",
"358 75 OFFCURVE",
"358 98 CURVE SMOOTH",
"358 233 LINE",
"548 233 LINE",
"548 373 LINE SMOOTH",
"548 472 OFFCURVE",
"486 503 OFFCURVE",
"375 503 CURVE SMOOTH",
"277 503 OFFCURVE",
"222 445 OFFCURVE",
"222 373 CURVE SMOOTH",
"222 166 LINE SMOOTH",
"222 7 OFFCURVE",
"281 -2 OFFCURVE",
"375 -2 CURVE SMOOTH"
);
},
{
closed = 1;
nodes = (
"358 393 LINE SMOOTH",
"358 416 OFFCURVE",
"365 423 OFFCURVE",
"375 423 CURVE SMOOTH",
"385 423 OFFCURVE",
"392 416 OFFCURVE",
"392 393 CURVE SMOOTH",
"392 300 LINE",
"358 300 LINE"
);
}
);
};
layerId = "8A3706BD-364F-4FE3-9C2E-7E87DF0DB4CC";
name = "Regular Backup";
paths = (
{
closed = 1;
nodes = (
"158 -7 OFFCURVE",
"210 13 OFFCURVE",
"233 78 CURVE",
"328 0 LINE",
"328 386 LINE SMOOTH",
"328 464 OFFCURVE",
"294 505 OFFCURVE",
"182 505 CURVE SMOOTH",
"45 505 OFFCURVE",
"24 452 OFFCURVE",
"24 378 CURVE SMOOTH",
"24 321 LINE",
"165 321 LINE",
"165 363 LINE SMOOTH",
"165 410 OFFCURVE",
"168 423 OFFCURVE",
"182 423 CURVE SMOOTH",
"196 423 OFFCURVE",
"199 412 OFFCURVE",
"199 397 CURVE SMOOTH",
"199 365 LINE SMOOTH",
"199 311 OFFCURVE",
"183 308 OFFCURVE",
"125 289 CURVE SMOOTH",
"60 267 OFFCURVE",
"14 239 OFFCURVE",
"14 170 CURVE SMOOTH",
"14 89 LINE SMOOTH",
"14 -10 OFFCURVE",
"83 -7 OFFCURVE",
"112 -7 CURVE SMOOTH"
);
},
{
closed = 1;
nodes = (
"166 93 OFFCURVE",
"165 111 OFFCURVE",
"165 129 CURVE SMOOTH",
"165 190 LINE SMOOTH",
"165 207 OFFCURVE",
"169 214 OFFCURVE",
"178 224 CURVE SMOOTH",
"185 232 OFFCURVE",
"196 236 OFFCURVE",
"199 241 CURVE",
"199 140 LINE SMOOTH",
"199 106 OFFCURVE",
"198 93 OFFCURVE",
"182 93 CURVE SMOOTH"
);
},
{
closed = 1;
nodes = (
"481 -2 OFFCURVE",
"548 7 OFFCURVE",
"548 167 CURVE SMOOTH",
"548 188 LINE",
"392 188 LINE",
"392 98 LINE SMOOTH",
"392 75 OFFCURVE",
"385 68 OFFCURVE",
"375 68 CURVE SMOOTH",
"365 68 OFFCURVE",
"358 75 OFFCURVE",
"358 98 CURVE SMOOTH",
"358 233 LINE",
"548 233 LINE",
"548 373 LINE SMOOTH",
"548 472 OFFCURVE",
"486 503 OFFCURVE",
"375 503 CURVE SMOOTH",
"277 503 OFFCURVE",
"222 445 OFFCURVE",
"222 373 CURVE SMOOTH",
"222 166 LINE SMOOTH",
"222 7 OFFCURVE",
"281 -2 OFFCURVE",
"375 -2 CURVE SMOOTH"
);
},
{
closed = 1;
nodes = (
"358 393 LINE SMOOTH",
"358 416 OFFCURVE",
"365 423 OFFCURVE",
"375 423 CURVE SMOOTH",
"385 423 OFFCURVE",
"392 416 OFFCURVE",
"392 393 CURVE SMOOTH",
"392 300 LINE",
"358 300 LINE"
);
}
);
width = 563;
}
);
leftKerningGroup = a;
note = ae;
rightKerningGroup = e;
unicode = 00E6;
},
{
glyphname = b;
lastChange = "2021-11-26 10:46:02 +0000";
layers = (
{
layerId = "E9D5C8C2-E643-4C1D-A564-A66CB2499AF2";
paths = (
{
closed = 1;
nodes = (
"324 -7 OFFCURVE",
"368 18 OFFCURVE",
"368 154 CURVE SMOOTH",
"368 391 LINE SMOOTH",
"368 481 OFFCURVE",
"317 503 OFFCURVE",
"257 503 CURVE SMOOTH",
"213 503 OFFCURVE",
"191 483 OFFCURVE",
"178 460 CURVE",
"178 630 LINE",
"22 630 LINE",
"22 0 LINE",
"124 0 LINE",
"128 8 OFFCURVE",
"137 29 OFFCURVE",
"137 30 CURVE",
"148 15 OFFCURVE",
"183 -7 OFFCURVE",
"232 -7 CURVE SMOOTH"
);
},
{
closed = 1;
nodes = (
"94 333 LINE",
"99 591 LINE",
"103 591 LINE",
"107 333 LINE",
"102 47 LINE",
"98 47 LINE"
);
},
{
closed = 1;
nodes = (
"184 80 OFFCURVE",
"178 87 OFFCURVE",
"178 110 CURVE SMOOTH",
"178 378 LINE SMOOTH",
"178 401 OFFCURVE",
"184 408 OFFCURVE",
"195 408 CURVE SMOOTH",
"206 408 OFFCURVE",
"212 401 OFFCURVE",
"212 378 CURVE SMOOTH",
"212 110 LINE SMOOTH",
"212 87 OFFCURVE",
"206 80 OFFCURVE",
"195 80 CURVE SMOOTH"
);
},
{
closed = 1;
nodes = (
"191 40 LINE",
"200 36 OFFCURVE",
"209 35 OFFCURVE",
"218 35 CURVE SMOOTH",
"257 35 OFFCURVE",
"286 70 OFFCURVE",
"284 125 CURVE SMOOTH",
"281 245 LINE",
"284 383 LINE SMOOTH",
"284 420 OFFCURVE",
"266 449 OFFCURVE",
"232 449 CURVE SMOOTH",
"224 449 OFFCURVE",
"216 447 OFFCURVE",
"206 444 CURVE",
"206 446 LINE",
"217 450 OFFCURVE",
"227 451 OFFCURVE",
"235 451 CURVE SMOOTH",
"272 451 OFFCURVE",
"291 422 OFFCURVE",
"292 383 CURVE SMOOTH",
"296 245 LINE",
"292 122 LINE SMOOTH",
"290 65 OFFCURVE",
"260 32 OFFCURVE",
"221 32 CURVE SMOOTH",
"211 32 OFFCURVE",
"201 34 OFFCURVE",
"191 38 CURVE"
);
}
);
userData = {
assembly = "PUSHW[ ]	/* 4 values pushed */\01239 5 9 4 \012CALL[ ]	/* CallFunction */\012PUSHW[ ]	/* 1 value pushed */\01239 \012SRP0[ ]	/* SetRefPoint0 */\012PUSHW[ ]	/* 1 value pushed */\01211 \012MDRP[10000]	/* MoveDirectRelPt */\012PUSHW[ ]	/* 3 values pushed */\01268 9 39 \012SRP1[ ]	/* SetRefPoint1 */\012SRP2[ ]	/* SetRefPoint2 */\012IP[ ]	/* InterpolatePts */\012PUSHW[ ]	/* 3 values pushed */\01271 9 39 \012SRP1[ ]	/* SetRefPoint1 */\012SRP2[ ]	/* SetRefPoint2 */\012IP[ ]	/* InterpolatePts */\012SVTCA[0]	/* SetFreedomAndProjectionVectorToAxis */\012PUSHW[ ]	/* 1 value pushed */\0120 \012RCVT[ ]	/* ReadCVT */\012IF[ ]	/* If */\012PUSHW[ ]	/* 1 value pushed */\0120 \012MDAP[1]	/* MoveDirectAbsPt */\012ELSE[ ]	/* Else */\012PUSHW[ ]	/* 2 values pushed */\0120 7 \012MIAP[0]	/* MoveIndirectAbsPt */\012EIF[ ]	/* EndIf */\012PUSHW[ ]	/* 1 value pushed */\0120 \012RCVT[ ]	/* ReadCVT */\012IF[ ]	/* If */\012PUSHW[ ]	/* 1 value pushed */\0128 \012MDAP[1]	/* MoveDirectAbsPt */\012ELSE[ ]	/* Else */\012PUSHW[ ]	/* 2 values pushed */\0128 7 \012MIAP[0]	/* MoveIndirectAbsPt */\012EIF[ ]	/* EndIf */\012PUSHW[ ]	/* 1 value pushed */\0120 \012SRP0[ ]	/* SetRefPoint0 */\012PUSHW[ ]	/* 2 values pushed */\01228 1 \012MIRP[10100]	/* MoveIndirectRelPt */\012NPUSHW[ ]	/* 15 values pushed */\0127 28 23 28 39 28 55 28 71 28 87 28 103 28 7 \012DELTAP1[ ]	/* DeltaExceptionP1 */\012NPUSHW[ ]	/* 5 values pushed */\012118 28 134 28 2 \012DELTAP1[ ]	/* DeltaExceptionP1 */\012PUSHW[ ]	/* 3 values pushed */\01255 0 28 \012SRP1[ ]	/* SetRefPoint1 */\012SRP2[ ]	/* SetRefPoint2 */\012IP[ ]	/* InterpolatePts */\012PUSHW[ ]	/* 3 values pushed */\01268 0 28 \012SRP1[ ]	/* SetRefPoint1 */\012SRP2[ ]	/* SetRefPoint2 */\012IP[ ]	/* InterpolatePts */\012IUP[0]	/* InterpolateUntPts */\012IUP[1]	/* InterpolateUntPts */";
};
width = 390;
},
{
associatedMasterId = "E9D5C8C2-E643-4C1D-A564-A66CB2499AF2";
background = {
paths = (
{
closed = 1;
nodes = (
"311 -7 OFFCURVE",
"371 3 OFFCURVE",
"371 154 CURVE SMOOTH",
"371 389 LINE SMOOTH",
"371 487 OFFCURVE",
"312 503 OFFCURVE",
"263 503 CURVE SMOOTH",
"213 503 OFFCURVE",
"193 477 OFFCURVE",
"181 458 CURVE",
"181 630 LINE",
"25 630 LINE",
"25 0 LINE",
"135 0 LINE",
"138 43 LINE",
"146 26 OFFCURVE",
"177 -7 OFFCURVE",
"235 -7 CURVE SMOOTH"
);
},
{
closed = 1;
nodes = (
"185 98 OFFCURVE",
"181 110 OFFCURVE",
"181 133 CURVE SMOOTH",
"181 376 LINE SMOOTH",
"181 399 OFFCURVE",
"188 406 OFFCURVE",
"198 406 CURVE SMOOTH",
"208 406 OFFCURVE",
"215 399 OFFCURVE",
"215 376 CURVE SMOOTH",
"215 133 LINE SMOOTH",
"215 110 OFFCURVE",
"213 98 OFFCURVE",
"198 98 CURVE SMOOTH"
);
}
);
};
layerId = "8A3706BD-364F-4FE3-9C2E-7E87DF0DB4CC";
name = "Regular Backup";
paths = (
{
closed = 1;
nodes = (
"311 -7 OFFCURVE",
"371 3 OFFCURVE",
"371 154 CURVE SMOOTH",
"371 389 LINE SMOOTH",
"371 487 OFFCURVE",
"312 503 OFFCURVE",
"263 503 CURVE SMOOTH",
"213 503 OFFCURVE",
"193 477 OFFCURVE",
"181 458 CURVE",
"181 630 LINE",
"25 630 LINE",
"25 0 LINE",
"135 0 LINE",
"138 43 LINE",
"146 26 OFFCURVE",
"177 -7 OFFCURVE",
"235 -7 CURVE SMOOTH"
);
},
{
closed = 1;
nodes = (
"185 98 OFFCURVE",
"181 110 OFFCURVE",
"181 133 CURVE SMOOTH",
"181 376 LINE SMOOTH",
"181 399 OFFCURVE",
"188 406 OFFCURVE",
"198 406 CURVE SMOOTH",
"208 406 OFFCURVE",
"215 399 OFFCURVE",
"215 376 CURVE SMOOTH",
"215 133 LINE SMOOTH",
"215 110 OFFCURVE",
"213 98 OFFCURVE",
"198 98 CURVE SMOOTH"
);
}
);
width = 391;
}
);
note = b;
rightKerningGroup = a;
unicode = 0062;
},
{
glyphname = c;
lastChange = "2021-11-26 10:45:51 +0000";
layers = (
{
anchors = (
{
name = bottom;
position = "{195, 0}";
},
{
name = top;
position = "{195, 495}";
}
);
layerId = "E9D5C8C2-E643-4C1D-A564-A66CB2499AF2";
paths = (
{
closed = 1;
nodes = (
"314 -12 OFFCURVE",
"368 18 OFFCURVE",
"368 167 CURVE SMOOTH",
"368 213 LINE",
"212 213 LINE",
"212 98 LINE SMOOTH",
"212 75 OFFCURVE",
"206 68 OFFCURVE",
"195 68 CURVE SMOOTH",
"184 68 OFFCURVE",
"178 75 OFFCURVE",
"178 98 CURVE SMOOTH",
"178 393 LINE SMOOTH",
"178 416 OFFCURVE",
"184 423 OFFCURVE",
"195 423 CURVE SMOOTH",
"206 423 OFFCURVE",
"212 416 OFFCURVE",
"212 393 CURVE SMOOTH",
"212 294 LINE",
"368 294 LINE",
"368 373 LINE SMOOTH",
"368 472 OFFCURVE",
"306 503 OFFCURVE",
"195 503 CURVE SMOOTH",
"84 503 OFFCURVE",
"22 472 OFFCURVE",
"22 373 CURVE SMOOTH",
"22 166 LINE SMOOTH",
"22 18 OFFCURVE",
"77 -12 OFFCURVE",
"195 -12 CURVE SMOOTH"
);
},
{
closed = 1;
nodes = (
"214 35 LINE",
"261 35 OFFCURVE",
"284 72 OFFCURVE",
"285 113 CURVE SMOOTH",
"285 185 LINE",
"293 185 LINE",
"293 113 LINE SMOOTH",
"292 69 OFFCURVE",
"262 33 OFFCURVE",
"214 33 CURVE"
);
},
{
closed = 1;
nodes = (
"128 33 OFFCURVE",
"93 61 OFFCURVE",
"93 103 CURVE SMOOTH",
"90 245 LINE",
"93 383 LINE SMOOTH",
"94 432 OFFCURVE",
"128 457 OFFCURVE",
"175 457 CURVE",
"175 455 LINE",
"138 455 OFFCURVE",
"101 428 OFFCURVE",
"101 389 CURVE SMOOTH",
"104 245 LINE",
"101 102 LINE SMOOTH",
"101 63 OFFCURVE",
"128 35 OFFCURVE",
"158 35 CURVE",
"158 33 LINE"
);
},
{
closed = 1;
nodes = (
"285 382 LINE SMOOTH",
"284 423 OFFCURVE",
"269 456 OFFCURVE",
"222 456 CURVE",
"222 458 LINE",
"270 458 OFFCURVE",
"292 426 OFFCURVE",
"293 382 CURVE SMOOTH",
"293 334 LINE",
"285 334 LINE"
);
}
);
width = 390;
},
{
anchors = (
{
name = bottom;
position = "{191, 0}";
},
{
name = top;
position = "{191, 495}";
}
);
associatedMasterId = "E9D5C8C2-E643-4C1D-A564-A66CB2499AF2";
background = {
paths = (
{
closed = 1;
nodes = (
"299 -8 OFFCURVE",
"366 11 OFFCURVE",
"366 167 CURVE SMOOTH",
"366 213 LINE",
"210 213 LINE",
"210 112 LINE SMOOTH",
"210 89 OFFCURVE",
"203 82 OFFCURVE",
"193 82 CURVE SMOOTH",
"183 82 OFFCURVE",
"176 89 OFFCURVE",
"176 112 CURVE SMOOTH",
"176 383 LINE SMOOTH",
"176 406 OFFCURVE",
"183 413 OFFCURVE",
"193 413 CURVE SMOOTH",
"203 413 OFFCURVE",
"210 406 OFFCURVE",
"210 383 CURVE SMOOTH",
"210 294 LINE",
"366 294 LINE",
"366 373 LINE SMOOTH",
"366 472 OFFCURVE",
"304 503 OFFCURVE",
"193 503 CURVE SMOOTH",
"82 503 OFFCURVE",
"20 470 OFFCURVE",
"20 363 CURVE SMOOTH",
"20 166 LINE SMOOTH",
"20 11 OFFCURVE",
"87 -8 OFFCURVE",
"193 -8 CURVE SMOOTH"
);
}
);
};
layerId = "8A3706BD-364F-4FE3-9C2E-7E87DF0DB4CC";
name = "Regular Backup";
paths = (
{
closed = 1;
nodes = (
"299 -8 OFFCURVE",
"366 11 OFFCURVE",
"366 167 CURVE SMOOTH",
"366 213 LINE",
"210 213 LINE",
"210 112 LINE SMOOTH",
"210 89 OFFCURVE",
"203 82 OFFCURVE",
"193 82 CURVE SMOOTH",
"183 82 OFFCURVE",
"176 89 OFFCURVE",
"176 112 CURVE SMOOTH",
"176 383 LINE SMOOTH",
"176 406 OFFCURVE",
"183 413 OFFCURVE",
"193 413 CURVE SMOOTH",
"203 413 OFFCURVE",
"210 406 OFFCURVE",
"210 383 CURVE SMOOTH",
"210 294 LINE",
"366 294 LINE",
"366 373 LINE SMOOTH",
"366 472 OFFCURVE",
"304 503 OFFCURVE",
"193 503 CURVE SMOOTH",
"82 503 OFFCURVE",
"20 470 OFFCURVE",
"20 363 CURVE SMOOTH",
"20 166 LINE SMOOTH",
"20 11 OFFCURVE",
"87 -8 OFFCURVE",
"193 -8 CURVE SMOOTH"
);
}
);
width = 381;
}
);
note = c;
unicode = 0063;
},
{
glyphname = d;
lastChange = "2021-11-26 10:46:02 +0000";
layers = (
{
anchors = (
{
name = bottom;
position = "{194, 0}";
},
{
name = center;
position = "{192, -74}";
},
{
name = top;
position = "{288, 630}";
},
{
name = topright;
position = "{402, 469}";
}
);
layerId = "E9D5C8C2-E643-4C1D-A564-A66CB2499AF2";
paths = (
{
closed = 1;
nodes = (
"208 -7 OFFCURVE",
"232 25 OFFCURVE",
"245 47 CURVE",
"261 0 LINE",
"366 0 LINE",
"366 630 LINE",
"210 630 LINE",
"210 460 LINE",
"198 479 OFFCURVE",
"178 500 OFFCURVE",
"125 500 CURVE SMOOTH",
"75 500 OFFCURVE",
"20 476 OFFCURVE",
"20 391 CURVE SMOOTH",
"20 154 LINE SMOOTH",
"20 18 OFFCURVE",
"64 -7 OFFCURVE",
"156 -7 CURVE SMOOTH"
);
},
{
closed = 1;
nodes = (
"187 34 OFFCURVE",
"177 32 OFFCURVE",
"167 32 CURVE SMOOTH",
"128 32 OFFCURVE",
"98 65 OFFCURVE",
"96 122 CURVE SMOOTH",
"92 245 LINE",
"96 383 LINE SMOOTH",
"97 422 OFFCURVE",
"116 451 OFFCURVE",
"153 451 CURVE SMOOTH",
"161 451 OFFCURVE",
"171 450 OFFCURVE",
"182 446 CURVE",
"182 444 LINE",
"172 447 OFFCURVE",
"164 449 OFFCURVE",
"156 449 CURVE SMOOTH",
"122 449 OFFCURVE",
"103 420 OFFCURVE",
"104 383 CURVE SMOOTH",
"107 245 LINE",
"104 125 LINE SMOOTH",
"102 70 OFFCURVE",
"132 35 OFFCURVE",
"170 35 CURVE SMOOTH",
"179 35 OFFCURVE",
"188 36 OFFCURVE",
"197 40 CURVE",
"197 38 LINE"
);
},
{
closed = 1;
nodes = (
"182 80 OFFCURVE",
"176 87 OFFCURVE",
"176 110 CURVE SMOOTH",
"176 378 LINE SMOOTH",
"176 401 OFFCURVE",
"182 408 OFFCURVE",
"193 408 CURVE SMOOTH",
"197 408 OFFCURVE",
"201 407 OFFCURVE",
"205 406 CURVE SMOOTH",
"210 405 LINE",
"210 110 LINE SMOOTH",
"210 87 OFFCURVE",
"204 80 OFFCURVE",
"193 80 CURVE SMOOTH"
);
},
{
closed = 1;
nodes = (
"282 333 LINE",
"286 591 LINE",
"290 591 LINE",
"295 333 LINE",
"291 47 LINE",
"287 47 LINE"
);
}
);
userData = {
assembly = "SVTCA[0]	/* SetFreedomAndProjectionVectorToAxis */\012PUSHW[ ]	/* 1 value pushed */\0120 \012RCVT[ ]	/* ReadCVT */\012IF[ ]	/* If */\012PUSHW[ ]	/* 1 value pushed */\01211 \012MDAP[1]	/* MoveDirectAbsPt */\012ELSE[ ]	/* Else */\012PUSHW[ ]	/* 2 values pushed */\01211 11 \012MIAP[0]	/* MoveIndirectAbsPt */\012EIF[ ]	/* EndIf */\012PUSHW[ ]	/* 1 value pushed */\0120 \012RCVT[ ]	/* ReadCVT */\012IF[ ]	/* If */\012PUSHW[ ]	/* 1 value pushed */\0120 \012MDAP[1]	/* MoveDirectAbsPt */\012ELSE[ ]	/* Else */\012PUSHW[ ]	/* 2 values pushed */\0120 7 \012MIAP[0]	/* MoveIndirectAbsPt */\012EIF[ ]	/* EndIf */\012PUSHW[ ]	/* 1 value pushed */\0120 \012RCVT[ ]	/* ReadCVT */\012IF[ ]	/* If */\012PUSHW[ ]	/* 1 value pushed */\01217 \012MDAP[1]	/* MoveDirectAbsPt */\012ELSE[ ]	/* Else */\012PUSHW[ ]	/* 2 values pushed */\01217 7 \012MIAP[0]	/* MoveIndirectAbsPt */\012EIF[ ]	/* EndIf */\012PUSHW[ ]	/* 1 value pushed */\01211 \012SRP0[ ]	/* SetRefPoint0 */\012PUSHW[ ]	/* 2 values pushed */\01232 1 \012MIRP[10100]	/* MoveIndirectRelPt */\012NPUSHW[ ]	/* 5 values pushed */\012121 32 137 32 2 \012DELTAP1[ ]	/* DeltaExceptionP1 */\012NPUSHW[ ]	/* 15 values pushed */\0128 32 24 32 40 32 56 32 72 32 88 32 104 32 7 \012DELTAP1[ ]	/* DeltaExceptionP1 */\012PUSHW[ ]	/* 3 values pushed */\01214 11 32 \012SRP1[ ]	/* SetRefPoint1 */\012SRP2[ ]	/* SetRefPoint2 */\012IP[ ]	/* InterpolatePts */\012PUSHW[ ]	/* 1 value pushed */\0120 \012SRP0[ ]	/* SetRefPoint0 */\012PUSHW[ ]	/* 2 values pushed */\01224 1 \012MIRP[10100]	/* MoveIndirectRelPt */\012NPUSHW[ ]	/* 15 values pushed */\0127 24 23 24 39 24 55 24 71 24 87 24 103 24 7 \012DELTAP1[ ]	/* DeltaExceptionP1 */\012NPUSHW[ ]	/* 5 values pushed */\012118 24 134 24 2 \012DELTAP1[ ]	/* DeltaExceptionP1 */\012PUSHW[ ]	/* 3 values pushed */\01243 0 24 \012SRP1[ ]	/* SetRefPoint1 */\012SRP2[ ]	/* SetRefPoint2 */\012IP[ ]	/* InterpolatePts */\012PUSHW[ ]	/* 3 values pushed */\01256 0 24 \012SRP1[ ]	/* SetRefPoint1 */\012SRP2[ ]	/* SetRefPoint2 */\012IP[ ]	/* InterpolatePts */\012IUP[0]	/* InterpolateUntPts */\012IUP[1]	/* InterpolateUntPts */";
};
width = 388;
},
{
anchors = (
{
name = bottom;
position = "{196, 0}";
},
{
name = center;
position = "{196, 248}";
},
{
name = top;
position = "{196, 630}";
},
{
name = topright;
position = "{369, 477}";
}
);
associatedMasterId = "E9D5C8C2-E643-4C1D-A564-A66CB2499AF2";
background = {
paths = (
{
closed = 1;
nodes = (
"214 -7 OFFCURVE",
"237 33 OFFCURVE",
"245 47 CURVE",
"261 0 LINE",
"366 0 LINE",
"366 630 LINE",
"210 630 LINE",
"210 460 LINE",
"198 479 OFFCURVE",
"178 500 OFFCURVE",
"125 500 CURVE SMOOTH",
"91 500 OFFCURVE",
"20 489 OFFCURVE",
"20 391 CURVE SMOOTH",
"20 154 LINE SMOOTH",
"20 3 OFFCURVE",
"81 -7 OFFCURVE",
"156 -7 CURVE SMOOTH"
);
},
{
closed = 1;
nodes = (
"183 80 OFFCURVE",
"176 87 OFFCURVE",
"176 110 CURVE SMOOTH",
"176 378 LINE SMOOTH",
"176 401 OFFCURVE",
"183 408 OFFCURVE",
"193 408 CURVE SMOOTH",
"202 408 OFFCURVE",
"210 405 OFFCURVE",
"210 405 CURVE",
"210 110 LINE SMOOTH",
"210 87 OFFCURVE",
"203 80 OFFCURVE",
"193 80 CURVE SMOOTH"
);
}
);
};
layerId = "8A3706BD-364F-4FE3-9C2E-7E87DF0DB4CC";
name = "Regular Backup";
paths = (
{
closed = 1;
nodes = (
"214 -7 OFFCURVE",
"237 33 OFFCURVE",
"245 47 CURVE",
"261 0 LINE",
"366 0 LINE",
"366 630 LINE",
"210 630 LINE",
"210 460 LINE",
"198 479 OFFCURVE",
"178 500 OFFCURVE",
"125 500 CURVE SMOOTH",
"91 500 OFFCURVE",
"20 489 OFFCURVE",
"20 391 CURVE SMOOTH",
"20 154 LINE SMOOTH",
"20 3 OFFCURVE",
"81 -7 OFFCURVE",
"156 -7 CURVE SMOOTH"
);
},
{
closed = 1;
nodes = (
"183 80 OFFCURVE",
"176 87 OFFCURVE",
"176 110 CURVE SMOOTH",
"176 378 LINE SMOOTH",
"176 401 OFFCURVE",
"183 408 OFFCURVE",
"193 408 CURVE SMOOTH",
"202 408 OFFCURVE",
"210 405 OFFCURVE",
"210 405 CURVE",
"210 110 LINE SMOOTH",
"210 87 OFFCURVE",
"203 80 OFFCURVE",
"193 80 CURVE SMOOTH"
);
}
);
width = 391;
}
);
note = d;
unicode = 0064;
},
{
glyphname = eth;
lastChange = "2021-11-26 10:46:02 +0000";
layers = (
{
layerId = "E9D5C8C2-E643-4C1D-A564-A66CB2499AF2";
paths = (
{
closed = 1;
nodes = (
"307 -12 OFFCURVE",
"361 18 OFFCURVE",
"361 167 CURVE SMOOTH",
"361 358 LINE SMOOTH",
"360 470 OFFCURVE",
"350 542 OFFCURVE",
"329 587 CURVE SMOOTH",
"308 631 OFFCURVE",
"275 650 OFFCURVE",
"230 657 CURVE",
"257 707 LINE",
"191 707 LINE",
"166 662 LINE",
"161 662 LINE SMOOTH",
"120 662 OFFCURVE",
"91 661 OFFCURVE",
"75 658 CURVE SMOOTH",
"58 655 OFFCURVE",
"50 653 OFFCURVE",
"51 652 CURVE",
"51 553 LINE",
"68 556 LINE SMOOTH",
"79 559 OFFCURVE",
"94 560 OFFCURVE",
"111 561 CURVE",
"78 500 LINE",
"144 500 LINE",
"172 551 LINE",
"192 535 OFFCURVE",
"200 506 OFFCURVE",
"203 479 CURVE",
"188 479 LINE SMOOTH",
"77 479 OFFCURVE",
"15 448 OFFCURVE",
"15 349 CURVE SMOOTH",
"15 166 LINE SMOOTH",
"15 18 OFFCURVE",
"70 -12 OFFCURVE",
"188 -12 CURVE SMOOTH"
);
},
{
closed = 1;
nodes = (
"125 23 OFFCURVE",
"91 46 OFFCURVE",
"88 122 CURVE SMOOTH",
"84 245 LINE",
"86 363 LINE SMOOTH",
"87 405 OFFCURVE",
"106 436 OFFCURVE",
"147 436 CURVE SMOOTH",
"153 436 OFFCURVE",
"160 436 OFFCURVE",
"168 434 CURVE",
"168 432 LINE",
"162 433 OFFCURVE",
"156 434 OFFCURVE",
"150 434 CURVE SMOOTH",
"110 434 OFFCURVE",
"94 403 OFFCURVE",
"94 363 CURVE SMOOTH",
"99 245 LINE",
"96 125 LINE SMOOTH",
"93 54 OFFCURVE",
"125 25 OFFCURVE",
"185 25 CURVE",
"185 23 LINE"
);
},
{
closed = 1;
nodes = (
"177 68 OFFCURVE",
"171 75 OFFCURVE",
"171 98 CURVE SMOOTH",
"171 369 LINE SMOOTH",
"171 392 OFFCURVE",
"177 399 OFFCURVE",
"188 399 CURVE SMOOTH",
"199 399 OFFCURVE",
"205 392 OFFCURVE",
"205 369 CURVE SMOOTH",
"205 98 LINE SMOOTH",
"205 75 OFFCURVE",
"199 68 OFFCURVE",
"188 68 CURVE SMOOTH"
);
},
{
closed = 1;
nodes = (
"185 25 LINE",
"254 25 OFFCURVE",
"278 54 OFFCURVE",
"278 105 CURVE SMOOTH",
"275 300 LINE",
"277 491 LINE SMOOTH",
"277 547 OFFCURVE",
"248 612 OFFCURVE",
"186 612 CURVE",
"186 614 LINE",
"255 614 OFFCURVE",
"278 551 OFFCURVE",
"281 494 CURVE SMOOTH",
"287 300 LINE",
"282 105 LINE SMOOTH",
"282 52 OFFCURVE",
"257 23 OFFCURVE",
"185 23 CURVE"
);
}
);
userData = {
assembly = "SVTCA[0]	/* SetFreedomAndProjectionVectorToAxis */\012PUSHW[ ]	/* 4 values pushed */\01213 2 14 4 \012CALL[ ]	/* CallFunction */\012PUSHW[ ]	/* 1 value pushed */\01214 \012SRP0[ ]	/* SetRefPoint0 */\012PUSHW[ ]	/* 1 value pushed */\01210 \012MDRP[10000]	/* MoveDirectRelPt */\012PUSHW[ ]	/* 1 value pushed */\01210 \012MDAP[1]	/* MoveDirectAbsPt */\012PUSHW[ ]	/* 2 values pushed */\0120 3 \012MIRP[10100]	/* MoveIndirectRelPt */\012PUSHW[ ]	/* 1 value pushed */\01210 \012SRP0[ ]	/* SetRefPoint0 */\012PUSHW[ ]	/* 2 values pushed */\01239 4 \012MIRP[10100]	/* MoveIndirectRelPt */\012IUP[0]	/* InterpolateUntPts */\012IUP[1]	/* InterpolateUntPts */";
};
width = 400;
},
{
associatedMasterId = "E9D5C8C2-E643-4C1D-A564-A66CB2499AF2";
background = {
paths = (
{
closed = 1;
nodes = (
"300 -8 OFFCURVE",
"366 11 OFFCURVE",
"366 171 CURVE SMOOTH",
"366 358 LINE SMOOTH",
"366 590 OFFCURVE",
"334 662 OFFCURVE",
"172 662 CURVE SMOOTH",
"114 662 OFFCURVE",
"82 657 OFFCURVE",
"56 651 CURVE",
"56 553 LINE",
"93 559 OFFCURVE",
"115 562 OFFCURVE",
"143 562 CURVE SMOOTH",
"190 562 OFFCURVE",
"208 521 OFFCURVE",
"208 479 CURVE",
"197 479 OFFCURVE",
"187 479 OFFCURVE",
"176 479 CURVE SMOOTH",
"82 479 OFFCURVE",
"20 448 OFFCURVE",
"20 349 CURVE SMOOTH",
"20 170 LINE SMOOTH",
"20 11 OFFCURVE",
"86 -8 OFFCURVE",
"193 -8 CURVE SMOOTH"
);
},
{
closed = 1;
nodes = (
"182 72 OFFCURVE",
"176 79 OFFCURVE",
"176 102 CURVE SMOOTH",
"176 369 LINE SMOOTH",
"176 392 OFFCURVE",
"182 399 OFFCURVE",
"193 399 CURVE SMOOTH",
"204 399 OFFCURVE",
"210 392 OFFCURVE",
"210 369 CURVE SMOOTH",
"210 102 LINE SMOOTH",
"210 79 OFFCURVE",
"204 72 OFFCURVE",
"193 72 CURVE SMOOTH"
);
},
{
closed = 1;
nodes = (
"336 651 LINE",
"301 691 LINE",
"100 528 LINE",
"133 487 LINE"
);
}
);
};
layerId = "8A3706BD-364F-4FE3-9C2E-7E87DF0DB4CC";
name = "Regular Backup";
paths = (
{
closed = 1;
nodes = (
"300 -8 OFFCURVE",
"366 11 OFFCURVE",
"366 171 CURVE SMOOTH",
"366 358 LINE SMOOTH",
"366 590 OFFCURVE",
"334 662 OFFCURVE",
"172 662 CURVE SMOOTH",
"114 662 OFFCURVE",
"82 657 OFFCURVE",
"56 651 CURVE",
"56 553 LINE",
"93 559 OFFCURVE",
"115 562 OFFCURVE",
"143 562 CURVE SMOOTH",
"190 562 OFFCURVE",
"208 521 OFFCURVE",
"208 479 CURVE",
"197 479 OFFCURVE",
"187 479 OFFCURVE",
"176 479 CURVE SMOOTH",
"82 479 OFFCURVE",
"20 448 OFFCURVE",
"20 349 CURVE SMOOTH",
"20 170 LINE SMOOTH",
"20 11 OFFCURVE",
"86 -8 OFFCURVE",
"193 -8 CURVE SMOOTH"
);
},
{
closed = 1;
nodes = (
"182 72 OFFCURVE",
"176 79 OFFCURVE",
"176 102 CURVE SMOOTH",
"176 369 LINE SMOOTH",
"176 392 OFFCURVE",
"182 399 OFFCURVE",
"193 399 CURVE SMOOTH",
"204 399 OFFCURVE",
"210 392 OFFCURVE",
"210 369 CURVE SMOOTH",
"210 102 LINE SMOOTH",
"210 79 OFFCURVE",
"204 72 OFFCURVE",
"193 72 CURVE SMOOTH"
);
},
{
closed = 1;
nodes = (
"336 651 LINE",
"301 691 LINE",
"100 528 LINE",
"133 487 LINE"
);
}
);
width = 386;
}
);
note = eth;
rightKerningGroup = a;
unicode = 00F0;
},
{
glyphname = dcroat;
lastChange = "2021-11-26 04:45:04 +0000";
layers = (
{
components = (
{
name = d;
}
);
layerId = "E9D5C8C2-E643-4C1D-A564-A66CB2499AF2";
paths = (
{
closed = 1;
nodes = (
"231 527 LINE",
"231 582 LINE",
"122 582 LINE",
"122 527 LINE"
);
},
{
closed = 1;
nodes = (
"400 527 LINE",
"400 582 LINE",
"311 582 LINE",
"311 527 LINE"
);
}
);
width = 391;
},
{
associatedMasterId = "E9D5C8C2-E643-4C1D-A564-A66CB2499AF2";
background = {
components = (
{
name = d;
},
{
name = hyphen;
transform = "{1.16868, 0, 0, 0.71625, 107, 337}";
}
);
};
components = (
{
name = d;
}
);
layerId = "8A3706BD-364F-4FE3-9C2E-7E87DF0DB4CC";
name = "Regular Backup";
paths = (
{
closed = 1;
nodes = (
"390 527 LINE",
"390 582 LINE",
"142 582 LINE",
"142 527 LINE"
);
}
);
width = 391;
}
);
unicode = 0111;
},
{
glyphname = e;
lastChange = "2021-11-26 10:45:51 +0000";
layers = (
{
anchors = (
{
name = bottom;
position = "{195, 0}";
},
{
name = ogonek;
position = "{255, 2}";
},
{
name = top;
position = "{195, 495}";
}
);
layerId = "E9D5C8C2-E643-4C1D-A564-A66CB2499AF2";
paths = (
{
closed = 1;
nodes = (
"314 -12 OFFCURVE",
"368 18 OFFCURVE",
"368 167 CURVE SMOOTH",
"368 188 LINE",
"212 188 LINE",
"212 98 LINE SMOOTH",
"212 75 OFFCURVE",
"206 68 OFFCURVE",
"195 68 CURVE SMOOTH",
"184 68 OFFCURVE",
"178 75 OFFCURVE",
"178 98 CURVE SMOOTH",
"178 233 LINE",
"368 233 LINE",
"368 373 LINE SMOOTH",
"368 472 OFFCURVE",
"306 503 OFFCURVE",
"195 503 CURVE SMOOTH",
"84 503 OFFCURVE",
"22 472 OFFCURVE",
"22 373 CURVE SMOOTH",
"22 166 LINE SMOOTH",
"22 18 OFFCURVE",
"77 -12 OFFCURVE",
"195 -12 CURVE SMOOTH"
);
},
{
closed = 1;
nodes = (
"214 35 LINE",
"261 35 OFFCURVE",
"285 72 OFFCURVE",
"285 113 CURVE SMOOTH",
"285 164 LINE",
"293 164 LINE",
"293 113 LINE",
"293 69 OFFCURVE",
"262 33 OFFCURVE",
"214 33 CURVE"
);
},
{
closed = 1;
nodes = (
"128 33 OFFCURVE",
"94 61 OFFCURVE",
"93 103 CURVE SMOOTH",
"90 245 LINE",
"93 383 LINE SMOOTH",
"94 432 OFFCURVE",
"128 457 OFFCURVE",
"175 457 CURVE",
"175 455 LINE",
"138 455 OFFCURVE",
"100 428 OFFCURVE",
"101 389 CURVE SMOOTH",
"104 245 LINE",
"101 102 LINE SMOOTH",
"100 63 OFFCURVE",
"128 35 OFFCURVE",
"158 35 CURVE",
"158 33 LINE"
);
},
{
closed = 1;
nodes = (
"178 393 LINE SMOOTH",
"178 416 OFFCURVE",
"184 423 OFFCURVE",
"195 423 CURVE SMOOTH",
"206 423 OFFCURVE",
"212 416 OFFCURVE",
"212 393 CURVE SMOOTH",
"212 300 LINE",
"178 300 LINE"
);
},
{
closed = 1;
nodes = (
"285 382 LINE SMOOTH",
"285 423 OFFCURVE",
"269 456 OFFCURVE",
"222 456 CURVE",
"222 458 LINE",
"270 458 OFFCURVE",
"293 426 OFFCURVE",
"293 382 CURVE SMOOTH",
"293 267 LINE",
"285 267 LINE"
);
}
);
width = 390;
},
{
anchors = (
{
name = bottom;
position = "{191, 0}";
},
{
name = ogonek;
position = "{264, 0}";
},
{
name = top;
position = "{191, 495}";
}
);
associatedMasterId = "E9D5C8C2-E643-4C1D-A564-A66CB2499AF2";
background = {
paths = (
{
closed = 1;
nodes = (
"299 -8 OFFCURVE",
"366 11 OFFCURVE",
"366 171 CURVE SMOOTH",
"366 192 LINE",
"210 192 LINE",
"210 102 LINE SMOOTH",
"210 79 OFFCURVE",
"203 72 OFFCURVE",
"193 72 CURVE SMOOTH",
"183 72 OFFCURVE",
"176 79 OFFCURVE",
"176 102 CURVE SMOOTH",
"176 233 LINE",
"366 233 LINE",
"366 373 LINE SMOOTH",
"366 472 OFFCURVE",
"304 503 OFFCURVE",
"193 503 CURVE SMOOTH",
"82 503 OFFCURVE",
"20 472 OFFCURVE",
"20 373 CURVE SMOOTH",
"20 170 LINE SMOOTH",
"20 11 OFFCURVE",
"87 -8 OFFCURVE",
"193 -8 CURVE SMOOTH"
);
},
{
closed = 1;
nodes = (
"176 393 LINE SMOOTH",
"176 416 OFFCURVE",
"183 423 OFFCURVE",
"193 423 CURVE SMOOTH",
"203 423 OFFCURVE",
"210 416 OFFCURVE",
"210 393 CURVE SMOOTH",
"210 300 LINE",
"176 300 LINE"
);
}
);
};
layerId = "8A3706BD-364F-4FE3-9C2E-7E87DF0DB4CC";
name = "Regular Backup";
paths = (
{
closed = 1;
nodes = (
"299 -8 OFFCURVE",
"366 11 OFFCURVE",
"366 171 CURVE SMOOTH",
"366 192 LINE",
"210 192 LINE",
"210 102 LINE SMOOTH",
"210 79 OFFCURVE",
"203 72 OFFCURVE",
"193 72 CURVE SMOOTH",
"183 72 OFFCURVE",
"176 79 OFFCURVE",
"176 102 CURVE SMOOTH",
"176 233 LINE",
"366 233 LINE",
"366 373 LINE SMOOTH",
"366 472 OFFCURVE",
"304 503 OFFCURVE",
"193 503 CURVE SMOOTH",
"82 503 OFFCURVE",
"20 472 OFFCURVE",
"20 373 CURVE SMOOTH",
"20 170 LINE SMOOTH",
"20 11 OFFCURVE",
"87 -8 OFFCURVE",
"193 -8 CURVE SMOOTH"
);
},
{
closed = 1;
nodes = (
"176 393 LINE SMOOTH",
"176 416 OFFCURVE",
"183 423 OFFCURVE",
"193 423 CURVE SMOOTH",
"203 423 OFFCURVE",
"210 416 OFFCURVE",
"210 393 CURVE SMOOTH",
"210 300 LINE",
"176 300 LINE"
);
}
);
width = 381;
}
);
note = e;
rightKerningGroup = e;
unicode = 0065;
},
{
glyphname = f;
lastChange = "2021-11-26 10:45:51 +0000";
layers = (
{
layerId = "E9D5C8C2-E643-4C1D-A564-A66CB2499AF2";
paths = (
{
closed = 1;
nodes = (
"203 0 LINE",
"203 389 LINE",
"283 389 LINE",
"283 476 LINE",
"203 476 LINE",
"203 513 LINE SMOOTH",
"203 533 OFFCURVE",
"207 557 OFFCURVE",
"230 557 CURVE SMOOTH",
"243 557 OFFCURVE",
"255 556 OFFCURVE",
"266 555 CURVE SMOOTH",
"272 554 OFFCURVE",
"278 554 OFFCURVE",
"283 554 CURVE",
"283 624 LINE",
"271 624 OFFCURVE",
"201 630 OFFCURVE",
"171 630 CURVE SMOOTH",
"101 630 OFFCURVE",
"47 614 OFFCURVE",
"47 512 CURVE SMOOTH",
"47 476 LINE",
"15 476 LINE",
"15 389 LINE",
"47 389 LINE",
"47 0 LINE"
);
},
{
closed = 1;
nodes = (
"117 314 LINE",
"118 430 LINE",
"51 433 LINE",
"51 435 LINE",
"118 437 LINE",
"120 526 LINE SMOOTH",
"120 561 OFFCURVE",
"140 597 OFFCURVE",
"183 597 CURVE",
"183 596 LINE",
"148 593 OFFCURVE",
"126 570 OFFCURVE",
"126 523 CURVE SMOOTH",
"127 437 LINE",
"240 435 LINE",
"240 433 LINE",
"127 430 LINE",
"130 314 LINE",
"126 47 LINE",
"122 47 LINE"
);
}
);
userData = {
assembly = "SVTCA[0]	/* SetFreedomAndProjectionVectorToAxis */\012PUSHW[ ]	/* 1 value pushed */\0120 \012RCVT[ ]	/* ReadCVT */\012IF[ ]	/* If */\012PUSHW[ ]	/* 1 value pushed */\01224 \012MDAP[1]	/* MoveDirectAbsPt */\012ELSE[ ]	/* Else */\012PUSHW[ ]	/* 2 values pushed */\01224 7 \012MIAP[0]	/* MoveIndirectAbsPt */\012EIF[ ]	/* EndIf */\012PUSHW[ ]	/* 4 values pushed */\01235 3 17 4 \012CALL[ ]	/* CallFunction */\012PUSHW[ ]	/* 3 values pushed */\01214 17 35 \012SRP1[ ]	/* SetRefPoint1 */\012SRP2[ ]	/* SetRefPoint2 */\012IP[ ]	/* InterpolatePts */\012IUP[0]	/* InterpolateUntPts */\012IUP[1]	/* InterpolateUntPts */";
};
width = 290;
},
{
associatedMasterId = "E9D5C8C2-E643-4C1D-A564-A66CB2499AF2";
background = {
paths = (
{
closed = 1;
nodes = (
"198 0 LINE",
"198 389 LINE",
"278 389 LINE",
"278 476 LINE",
"198 476 LINE",
"198 513 LINE SMOOTH",
"198 533 OFFCURVE",
"203 557 OFFCURVE",
"225 557 CURVE SMOOTH",
"251 557 OFFCURVE",
"278 554 OFFCURVE",
"278 554 CURVE",
"278 624 LINE",
"269 624 OFFCURVE",
"211 630 OFFCURVE",
"166 630 CURVE SMOOTH",
"111 630 OFFCURVE",
"42 624 OFFCURVE",
"42 512 CURVE SMOOTH",
"42 476 LINE",
"10 476 LINE",
"10 389 LINE",
"42 389 LINE",
"42 0 LINE"
);
}
);
};
layerId = "8A3706BD-364F-4FE3-9C2E-7E87DF0DB4CC";
name = "Regular Backup";
paths = (
{
closed = 1;
nodes = (
"198 0 LINE",
"198 389 LINE",
"278 389 LINE",
"278 476 LINE",
"198 476 LINE",
"198 513 LINE SMOOTH",
"198 533 OFFCURVE",
"203 557 OFFCURVE",
"225 557 CURVE SMOOTH",
"251 557 OFFCURVE",
"278 554 OFFCURVE",
"278 554 CURVE",
"278 624 LINE",
"269 624 OFFCURVE",
"211 630 OFFCURVE",
"166 630 CURVE SMOOTH",
"111 630 OFFCURVE",
"42 624 OFFCURVE",
"42 512 CURVE SMOOTH",
"42 476 LINE",
"10 476 LINE",
"10 389 LINE",
"42 389 LINE",
"42 0 LINE"
);
}
);
width = 288;
}
);
note = f;
unicode = 0066;
},
{
glyphname = g;
lastChange = "2021-11-26 10:46:02 +0000";
layers = (
{
anchors = (
{
name = bottom;
position = "{195, -110}";
},
{
name = top;
position = "{195, 495}";
}
);
layerId = "E9D5C8C2-E643-4C1D-A564-A66CB2499AF2";
paths = (
{
closed = 1;
nodes = (
"353 -114 OFFCURVE",
"368 -5 OFFCURVE",
"368 106 CURVE SMOOTH",
"368 495 LINE",
"228 495 LINE",
"212 460 LINE",
"200 479 OFFCURVE",
"180 500 OFFCURVE",
"127 500 CURVE SMOOTH",
"77 500 OFFCURVE",
"22 476 OFFCURVE",
"22 391 CURVE SMOOTH",
"22 196 LINE SMOOTH",
"22 64 OFFCURVE",
"50 31 OFFCURVE",
"124 31 CURVE SMOOTH",
"188 31 OFFCURVE",
"192 55 OFFCURVE",
"212 89 CURVE",
"212 24 LINE SMOOTH",
"212 -19 OFFCURVE",
"181 -28 OFFCURVE",
"146 -28 CURVE SMOOTH",
"135 -28 OFFCURVE",
"120 -27 OFFCURVE",
"107 -24 CURVE SMOOTH",
"84 -19 LINE",
"84 -99 LINE",
"109 -106 OFFCURVE",
"157 -114 OFFCURVE",
"204 -114 CURVE SMOOTH"
);
},
{
closed = 1;
nodes = (
"167 78 OFFCURVE",
"155 75 OFFCURVE",
"143 75 CURVE SMOOTH",
"115 75 OFFCURVE",
"96 98 OFFCURVE",
"94 140 CURVE SMOOTH",
"91 268 LINE",
"95 377 LINE SMOOTH",
"96 428 OFFCURVE",
"120 450 OFFCURVE",
"153 450 CURVE SMOOTH",
"165 450 OFFCURVE",
"179 447 OFFCURVE",
"194 441 CURVE",
"194 439 LINE",
"181 444 OFFCURVE",
"169 447 OFFCURVE",
"158 447 CURVE SMOOTH",
"124 447 OFFCURVE",
"101 424 OFFCURVE",
"103 374 CURVE SMOOTH",
"105 268 LINE",
"103 140 LINE SMOOTH",
"103 100 OFFCURVE",
"120 78 OFFCURVE",
"147 78 CURVE SMOOTH",
"157 78 OFFCURVE",
"169 81 OFFCURVE",
"181 88 CURVE",
"181 86 LINE"
);
},
{
closed = 1;
nodes = (
"214 -60 LINE",
"265 -60 OFFCURVE",
"287 -23 OFFCURVE",
"286 25 CURVE SMOOTH",
"283 204 LINE",
"287 471 LINE",
"291 471 LINE",
"296 204 LINE",
"293 21 LINE SMOOTH",
"293 -20 OFFCURVE",
"268 -66 OFFCURVE",
"214 -61 CURVE"
);
},
{
closed = 1;
nodes = (
"184 122 OFFCURVE",
"178 129 OFFCURVE",
"178 152 CURVE SMOOTH",
"178 378 LINE SMOOTH",
"178 401 OFFCURVE",
"184 408 OFFCURVE",
"195 408 CURVE SMOOTH",
"199 408 OFFCURVE",
"203 407 OFFCURVE",
"207 406 CURVE SMOOTH",
"212 405 LINE",
"212 152 LINE SMOOTH",
"212 129 OFFCURVE",
"206 122 OFFCURVE",
"195 122 CURVE SMOOTH"
);
}
);
userData = {
assembly = "SVTCA[0]	/* SetFreedomAndProjectionVectorToAxis */\012PUSHW[ ]	/* 1 value pushed */\0120 \012RCVT[ ]	/* ReadCVT */\012IF[ ]	/* If */\012PUSHW[ ]	/* 1 value pushed */\01216 \012MDAP[1]	/* MoveDirectAbsPt */\012ELSE[ ]	/* Else */\012PUSHW[ ]	/* 2 values pushed */\01216 11 \012MIAP[0]	/* MoveIndirectAbsPt */\012EIF[ ]	/* EndIf */\012PUSHW[ ]	/* 1 value pushed */\0120 \012RCVT[ ]	/* ReadCVT */\012IF[ ]	/* If */\012PUSHW[ ]	/* 1 value pushed */\01220 \012MDAP[1]	/* MoveDirectAbsPt */\012ELSE[ ]	/* Else */\012PUSHW[ ]	/* 2 values pushed */\01220 11 \012MIAP[0]	/* MoveIndirectAbsPt */\012EIF[ ]	/* EndIf */\012PUSHW[ ]	/* 2 values pushed */\01248 1 \012MIRP[10100]	/* MoveIndirectRelPt */\012NPUSHW[ ]	/* 5 values pushed */\012121 48 137 48 2 \012DELTAP1[ ]	/* DeltaExceptionP1 */\012NPUSHW[ ]	/* 15 values pushed */\0128 48 24 48 40 48 56 48 72 48 88 48 104 48 7 \012DELTAP1[ ]	/* DeltaExceptionP1 */\012PUSHW[ ]	/* 3 values pushed */\01268 20 48 \012SRP1[ ]	/* SetRefPoint1 */\012SRP2[ ]	/* SetRefPoint2 */\012IP[ ]	/* InterpolatePts */\012PUSHW[ ]	/* 3 values pushed */\01281 20 48 \012SRP1[ ]	/* SetRefPoint1 */\012SRP2[ ]	/* SetRefPoint2 */\012IP[ ]	/* InterpolatePts */\012IUP[0]	/* InterpolateUntPts */\012IUP[1]	/* InterpolateUntPts */";
};
width = 390;
},
{
anchors = (
{
name = bottom;
position = "{196, -116}";
},
{
name = top;
position = "{196, 495}";
}
);
associatedMasterId = "E9D5C8C2-E643-4C1D-A564-A66CB2499AF2";
background = {
paths = (
{
closed = 1;
nodes = (
"364 -121 OFFCURVE",
"366 11 OFFCURVE",
"366 99 CURVE SMOOTH",
"366 495 LINE",
"226 495 LINE",
"210 460 LINE",
"197 499 OFFCURVE",
"166 500 OFFCURVE",
"125 500 CURVE SMOOTH",
"91 500 OFFCURVE",
"20 489 OFFCURVE",
"20 391 CURVE SMOOTH",
"20 196 LINE SMOOTH",
"20 45 OFFCURVE",
"62 31 OFFCURVE",
"122 31 CURVE SMOOTH",
"195 31 OFFCURVE",
"202 75 OFFCURVE",
"210 89 CURVE",
"210 16 LINE SMOOTH",
"210 -26 OFFCURVE",
"175 -35 OFFCURVE",
"144 -35 CURVE SMOOTH",
"120 -35 OFFCURVE",
"74 -32 OFFCURVE",
"54 -28 CURVE",
"54 -109 LINE",
"62 -112 OFFCURVE",
"156 -121 OFFCURVE",
"202 -121 CURVE SMOOTH"
);
},
{
closed = 1;
nodes = (
"183 122 OFFCURVE",
"176 129 OFFCURVE",
"176 153 CURVE SMOOTH",
"176 378 LINE SMOOTH",
"176 401 OFFCURVE",
"183 408 OFFCURVE",
"193 408 CURVE SMOOTH",
"202 408 OFFCURVE",
"206 406 OFFCURVE",
"210 405 CURVE",
"210 152 LINE SMOOTH",
"210 129 OFFCURVE",
"203 122 OFFCURVE",
"193 122 CURVE SMOOTH"
);
}
);
};
layerId = "8A3706BD-364F-4FE3-9C2E-7E87DF0DB4CC";
name = "Regular Backup";
paths = (
{
closed = 1;
nodes = (
"364 -121 OFFCURVE",
"366 11 OFFCURVE",
"366 99 CURVE SMOOTH",
"366 495 LINE",
"226 495 LINE",
"210 460 LINE",
"197 499 OFFCURVE",
"166 500 OFFCURVE",
"125 500 CURVE SMOOTH",
"91 500 OFFCURVE",
"20 489 OFFCURVE",
"20 391 CURVE SMOOTH",
"20 196 LINE SMOOTH",
"20 45 OFFCURVE",
"62 31 OFFCURVE",
"122 31 CURVE SMOOTH",
"195 31 OFFCURVE",
"202 75 OFFCURVE",
"210 89 CURVE",
"210 16 LINE SMOOTH",
"210 -26 OFFCURVE",
"175 -35 OFFCURVE",
"144 -35 CURVE SMOOTH",
"120 -35 OFFCURVE",
"74 -32 OFFCURVE",
"54 -28 CURVE",
"54 -109 LINE",
"62 -112 OFFCURVE",
"156 -121 OFFCURVE",
"202 -121 CURVE SMOOTH"
);
},
{
closed = 1;
nodes = (
"183 122 OFFCURVE",
"176 129 OFFCURVE",
"176 153 CURVE SMOOTH",
"176 378 LINE SMOOTH",
"176 401 OFFCURVE",
"183 408 OFFCURVE",
"193 408 CURVE SMOOTH",
"202 408 OFFCURVE",
"206 406 OFFCURVE",
"210 405 CURVE",
"210 152 LINE SMOOTH",
"210 129 OFFCURVE",
"203 122 OFFCURVE",
"193 122 CURVE SMOOTH"
);
}
);
width = 391;
}
);
note = g;
unicode = 0067;
},
{
glyphname = h;
lastChange = "2021-11-26 10:45:51 +0000";
layers = (
{
anchors = (
{
name = bottom;
position = "{195, 0}";
},
{
name = center;
position = "{195, 315}";
},
{
name = top;
position = "{94, 630}";
}
);
layerId = "E9D5C8C2-E643-4C1D-A564-A66CB2499AF2";
paths = (
{
closed = 1;
nodes = (
"178 0 LINE",
"178 395 LINE",
"182 398 OFFCURVE",
"190 398 OFFCURVE",
"195 398 CURVE SMOOTH",
"206 398 OFFCURVE",
"212 389 OFFCURVE",
"212 370 CURVE SMOOTH",
"212 0 LINE",
"368 0 LINE",
"368 371 LINE SMOOTH",
"368 458 OFFCURVE",
"346 502 OFFCURVE",
"258 502 CURVE SMOOTH",
"215 502 OFFCURVE",
"174 477 OFFCURVE",
"167 430 CURVE",
"167 630 LINE",
"22 630 LINE",
"22 0 LINE"
);
},
{
closed = 1;
nodes = (
"90 333 LINE",
"95 591 LINE",
"99 591 LINE",
"103 333 LINE",
"98 47 LINE",
"94 47 LINE"
);
},
{
closed = 1;
nodes = (
"282 245 LINE",
"286 399 LINE SMOOTH",
"286 418 OFFCURVE",
"277 447 OFFCURVE",
"248 447 CURVE SMOOTH",
"233 447 OFFCURVE",
"218 442 OFFCURVE",
"205 432 CURVE",
"205 434 LINE",
"216 443 OFFCURVE",
"233 449 OFFCURVE",
"248 449 CURVE SMOOTH",
"276 449 OFFCURVE",
"291 430 OFFCURVE",
"292 399 CURVE SMOOTH",
"295 245 LINE",
"290 47 LINE",
"286 47 LINE"
);
}
);
userData = {
assembly = "SVTCA[0]	/* SetFreedomAndProjectionVectorToAxis */\012PUSHW[ ]	/* 1 value pushed */\0120 \012RCVT[ ]	/* ReadCVT */\012IF[ ]	/* If */\012PUSHW[ ]	/* 1 value pushed */\01215 \012MDAP[1]	/* MoveDirectAbsPt */\012ELSE[ ]	/* Else */\012PUSHW[ ]	/* 2 values pushed */\01215 11 \012MIAP[0]	/* MoveIndirectAbsPt */\012EIF[ ]	/* EndIf */\012PUSHW[ ]	/* 1 value pushed */\0120 \012RCVT[ ]	/* ReadCVT */\012IF[ ]	/* If */\012PUSHW[ ]	/* 1 value pushed */\0120 \012MDAP[1]	/* MoveDirectAbsPt */\012ELSE[ ]	/* Else */\012PUSHW[ ]	/* 2 values pushed */\0120 7 \012MIAP[0]	/* MoveIndirectAbsPt */\012EIF[ ]	/* EndIf */\012PUSHW[ ]	/* 1 value pushed */\0120 \012RCVT[ ]	/* ReadCVT */\012IF[ ]	/* If */\012PUSHW[ ]	/* 1 value pushed */\0128 \012MDAP[1]	/* MoveDirectAbsPt */\012ELSE[ ]	/* Else */\012PUSHW[ ]	/* 2 values pushed */\0128 7 \012MIAP[0]	/* MoveIndirectAbsPt */\012EIF[ ]	/* EndIf */\012PUSHW[ ]	/* 1 value pushed */\01215 \012SRP0[ ]	/* SetRefPoint0 */\012PUSHW[ ]	/* 2 values pushed */\0124 3 \012MIRP[10100]	/* MoveIndirectRelPt */\012NPUSHW[ ]	/* 9 values pushed */\0128 4 24 4 40 4 56 4 4 \012DELTAP1[ ]	/* DeltaExceptionP1 */\012PUSHW[ ]	/* 3 values pushed */\01212 15 4 \012SRP1[ ]	/* SetRefPoint1 */\012SRP2[ ]	/* SetRefPoint2 */\012IP[ ]	/* InterpolatePts */\012PUSHW[ ]	/* 3 values pushed */\01221 0 15 \012SRP1[ ]	/* SetRefPoint1 */\012SRP2[ ]	/* SetRefPoint2 */\012IP[ ]	/* InterpolatePts */\012PUSHW[ ]	/* 3 values pushed */\01225 15 4 \012SRP1[ ]	/* SetRefPoint1 */\012SRP2[ ]	/* SetRefPoint2 */\012IP[ ]	/* InterpolatePts */\012PUSHW[ ]	/* 3 values pushed */\01233 0 15 \012SRP1[ ]	/* SetRefPoint1 */\012SRP2[ ]	/* SetRefPoint2 */\012IP[ ]	/* InterpolatePts */\012IUP[0]	/* InterpolateUntPts */\012IUP[1]	/* InterpolateUntPts */";
};
width = 390;
},
{
anchors = (
{
name = bottom;
position = "{196, 0}";
},
{
name = center;
position = "{97, 550}";
},
{
name = top;
position = "{95, 630}";
}
);
associatedMasterId = "E9D5C8C2-E643-4C1D-A564-A66CB2499AF2";
background = {
paths = (
{
closed = 1;
nodes = (
"181 0 LINE",
"181 370 LINE SMOOTH",
"181 375 OFFCURVE",
"187 378 OFFCURVE",
"196 378 CURVE SMOOTH",
"209 378 OFFCURVE",
"215 368 OFFCURVE",
"215 350 CURVE SMOOTH",
"215 0 LINE",
"371 0 LINE",
"371 371 LINE SMOOTH",
"371 457 OFFCURVE",
"349 502 OFFCURVE",
"261 502 CURVE SMOOTH",
"218 502 OFFCURVE",
"177 477 OFFCURVE",
"170 430 CURVE",
"170 630 LINE",
"25 630 LINE",
"25 0 LINE"
);
}
);
};
layerId = "8A3706BD-364F-4FE3-9C2E-7E87DF0DB4CC";
name = "Regular Backup";
paths = (
{
closed = 1;
nodes = (
"181 0 LINE",
"181 370 LINE SMOOTH",
"181 375 OFFCURVE",
"187 378 OFFCURVE",
"196 378 CURVE SMOOTH",
"209 378 OFFCURVE",
"215 368 OFFCURVE",
"215 350 CURVE SMOOTH",
"215 0 LINE",
"371 0 LINE",
"371 371 LINE SMOOTH",
"371 457 OFFCURVE",
"349 502 OFFCURVE",
"261 502 CURVE SMOOTH",
"218 502 OFFCURVE",
"177 477 OFFCURVE",
"170 430 CURVE",
"170 630 LINE",
"25 630 LINE",
"25 0 LINE"
);
}
);
width = 391;
}
);
note = h;
rightKerningGroup = a;
unicode = 0068;
},
{
glyphname = hbar;
lastChange = "2021-11-26 04:45:04 +0000";
layers = (
{
components = (
{
name = h;
}
);
layerId = "E9D5C8C2-E643-4C1D-A564-A66CB2499AF2";
paths = (
{
closed = 1;
nodes = (
"80 527 LINE",
"80 582 LINE",
"-29 582 LINE",
"-29 527 LINE"
);
},
{
closed = 1;
nodes = (
"249 527 LINE",
"249 582 LINE",
"160 582 LINE",
"160 527 LINE"
);
}
);
width = 390;
},
{
associatedMasterId = "E9D5C8C2-E643-4C1D-A564-A66CB2499AF2";
background = {
components = (
{
name = h;
},
{
name = hyphen;
transform = "{1.12767, 0, 0, 0.72135, -39, 347}";
}
);
};
components = (
{
name = h;
},
{
name = strokeshortcomb;
transform = "{1, 0, 0, 1, -14, 310}";
}
);
layerId = "8A3706BD-364F-4FE3-9C2E-7E87DF0DB4CC";
name = "Regular Backup";
width = 391;
}
);
unicode = 0127;
},
{
glyphname = i;
lastChange = "2021-11-26 10:45:51 +0000";
layers = (
{
anchors = (
{
name = bottom;
position = "{103, 0}";
}
);
layerId = "E9D5C8C2-E643-4C1D-A564-A66CB2499AF2";
paths = (
{
closed = 1;
nodes = (
"181 0 LINE",
"181 495 LINE",
"25 495 LINE",
"25 0 LINE"
);
},
{
closed = 1;
nodes = (
"96 240 LINE",
"101 429 LINE",
"105 429 LINE",
"109 240 LINE",
"104 47 LINE",
"100 47 LINE"
);
},
{
closed = 1;
nodes = (
"145 548 OFFCURVE",
"180 581 OFFCURVE",
"180 621 CURVE SMOOTH",
"180 662 OFFCURVE",
"145 695 OFFCURVE",
"102 695 CURVE SMOOTH",
"59 695 OFFCURVE",
"26 662 OFFCURVE",
"26 621 CURVE SMOOTH",
"26 581 OFFCURVE",
"59 548 OFFCURVE",
"102 548 CURVE SMOOTH"
);
},
{
closed = 1;
nodes = (
"78 584 OFFCURVE",
"66 596 OFFCURVE",
"66 621 CURVE SMOOTH",
"66 646 OFFCURVE",
"78 658 OFFCURVE",
"103 658 CURVE SMOOTH",
"128 658 OFFCURVE",
"140 646 OFFCURVE",
"140 621 CURVE SMOOTH",
"140 596 OFFCURVE",
"128 584 OFFCURVE",
"103 584 CURVE SMOOTH"
);
},
{
closed = 1;
nodes = (
"122 586 OFFCURVE",
"134 602 OFFCURVE",
"134 621 CURVE SMOOTH",
"134 641 OFFCURVE",
"122 655 OFFCURVE",
"103 655 CURVE SMOOTH",
"84 655 OFFCURVE",
"71 641 OFFCURVE",
"71 621 CURVE SMOOTH",
"71 602 OFFCURVE",
"84 586 OFFCURVE",
"103 586 CURVE SMOOTH"
);
}
);
userData = {
assembly = "SVTCA[0]	/* SetFreedomAndProjectionVectorToAxis */\012PUSHW[ ]	/* 1 value pushed */\0120 \012RCVT[ ]	/* ReadCVT */\012IF[ ]	/* If */\012PUSHW[ ]	/* 1 value pushed */\0121 \012MDAP[1]	/* MoveDirectAbsPt */\012ELSE[ ]	/* Else */\012PUSHW[ ]	/* 2 values pushed */\0121 11 \012MIAP[0]	/* MoveIndirectAbsPt */\012EIF[ ]	/* EndIf */\012PUSHW[ ]	/* 1 value pushed */\0120 \012RCVT[ ]	/* ReadCVT */\012IF[ ]	/* If */\012PUSHW[ ]	/* 1 value pushed */\0120 \012MDAP[1]	/* MoveDirectAbsPt */\012ELSE[ ]	/* Else */\012PUSHW[ ]	/* 2 values pushed */\0120 7 \012MIAP[0]	/* MoveIndirectAbsPt */\012EIF[ ]	/* EndIf */\012PUSHW[ ]	/* 3 values pushed */\01218 0 1 \012SRP1[ ]	/* SetRefPoint1 */\012SRP2[ ]	/* SetRefPoint2 */\012IP[ ]	/* InterpolatePts */\012PUSHW[ ]	/* 3 values pushed */\01221 0 1 \012SRP1[ ]	/* SetRefPoint1 */\012SRP2[ ]	/* SetRefPoint2 */\012IP[ ]	/* InterpolatePts */\012IUP[0]	/* InterpolateUntPts */\012IUP[1]	/* InterpolateUntPts */";
};
width = 206;
},
{
anchors = (
{
name = bottom;
position = "{103, 0}";
}
);
associatedMasterId = "E9D5C8C2-E643-4C1D-A564-A66CB2499AF2";
background = {
paths = (
{
closed = 1;
nodes = (
"181 0 LINE",
"181 495 LINE",
"25 495 LINE",
"25 0 LINE"
);
},
{
closed = 1;
nodes = (
"145 548 OFFCURVE",
"180 581 OFFCURVE",
"180 621 CURVE SMOOTH",
"180 662 OFFCURVE",
"145 695 OFFCURVE",
"102 695 CURVE SMOOTH",
"60 695 OFFCURVE",
"26 662 OFFCURVE",
"26 621 CURVE SMOOTH",
"26 581 OFFCURVE",
"60 548 OFFCURVE",
"102 548 CURVE SMOOTH"
);
}
);
};
components = (
{
name = idotless;
},
{
name = dotaccentcomb;
transform = "{1, 0, 0, 1, 26, 0}";
}
);
layerId = "8A3706BD-364F-4FE3-9C2E-7E87DF0DB4CC";
name = "Regular Backup";
width = 206;
}
);
note = i;
rightKerningGroup = a;
unicode = 0069;
},
{
glyphname = idotless;
lastChange = "2021-11-26 05:50:07 +0000";
layers = (
{
anchors = (
{
name = bottom;
position = "{103, 0}";
},
{
name = ogonek;
position = "{181, 0}";
},
{
name = top;
position = "{103, 495}";
}
);
layerId = "E9D5C8C2-E643-4C1D-A564-A66CB2499AF2";
paths = (
{
closed = 1;
nodes = (
"181 0 LINE",
"181 495 LINE",
"25 495 LINE",
"25 0 LINE"
);
},
{
closed = 1;
nodes = (
"99 240 LINE",
"104 429 LINE",
"108 429 LINE",
"112 240 LINE",
"107 47 LINE",
"103 47 LINE"
);
}
);
width = 206;
},
{
anchors = (
{
name = bottom;
position = "{103, 0}";
},
{
name = ogonek;
position = "{181, 0}";
},
{
name = top;
position = "{103, 495}";
}
);
associatedMasterId = "E9D5C8C2-E643-4C1D-A564-A66CB2499AF2";
background = {
paths = (
{
closed = 1;
nodes = (
"181 0 LINE",
"181 495 LINE",
"25 495 LINE",
"25 0 LINE"
);
}
);
};
layerId = "8A3706BD-364F-4FE3-9C2E-7E87DF0DB4CC";
name = "Regular Backup";
paths = (
{
closed = 1;
nodes = (
"181 0 LINE",
"181 495 LINE",
"25 495 LINE",
"25 0 LINE"
);
}
);
width = 206;
}
);
leftKerningGroup = i;
unicode = 0131;
},
{
glyphname = j;
lastChange = "2021-11-26 10:46:02 +0000";
layers = (
{
layerId = "E9D5C8C2-E643-4C1D-A564-A66CB2499AF2";
paths = (
{
closed = 1;
nodes = (
"8 -113 OFFCURVE",
"30 -116 OFFCURVE",
"51 -116 CURVE SMOOTH",
"149 -116 OFFCURVE",
"221 -66 OFFCURVE",
"221 66 CURVE SMOOTH",
"221 495 LINE",
"65 495 LINE",
"65 9 LINE SMOOTH",
"65 -11 OFFCURVE",
"44 -32 OFFCURVE",
"21 -32 CURVE SMOOTH",
"-15 -32 LINE",
"-15 -109 LINE"
);
},
{
closed = 1;
nodes = (
"68 -60 LINE",
"119 -60 OFFCURVE",
"141 -23 OFFCURVE",
"140 25 CURVE SMOOTH",
"137 204 LINE",
"141 471 LINE",
"145 471 LINE",
"150 204 LINE",
"147 21 LINE SMOOTH",
"147 -20 OFFCURVE",
"122 -66 OFFCURVE",
"68 -61 CURVE"
);
},
{
closed = 1;
nodes = (
"185 548 OFFCURVE",
"220 581 OFFCURVE",
"220 621 CURVE SMOOTH",
"220 662 OFFCURVE",
"185 695 OFFCURVE",
"142 695 CURVE SMOOTH",
"99 695 OFFCURVE",
"66 662 OFFCURVE",
"66 621 CURVE SMOOTH",
"66 581 OFFCURVE",
"99 548 OFFCURVE",
"142 548 CURVE SMOOTH"
);
},
{
closed = 1;
nodes = (
"118 584 OFFCURVE",
"106 596 OFFCURVE",
"106 621 CURVE SMOOTH",
"106 646 OFFCURVE",
"118 658 OFFCURVE",
"143 658 CURVE SMOOTH",
"168 658 OFFCURVE",
"180 646 OFFCURVE",
"180 621 CURVE SMOOTH",
"180 596 OFFCURVE",
"168 584 OFFCURVE",
"143 584 CURVE SMOOTH"
);
},
{
closed = 1;
nodes = (
"162 586 OFFCURVE",
"174 602 OFFCURVE",
"174 621 CURVE SMOOTH",
"174 641 OFFCURVE",
"162 655 OFFCURVE",
"143 655 CURVE SMOOTH",
"124 655 OFFCURVE",
"111 641 OFFCURVE",
"111 621 CURVE SMOOTH",
"111 602 OFFCURVE",
"124 586 OFFCURVE",
"143 586 CURVE SMOOTH"
);
}
);
userData = {
assembly = "PUSHW[ ]	/* 4 values pushed */\01233 5 27 4 \012CALL[ ]	/* CallFunction */\012NPUSHW[ ]	/* 9 values pushed */\0129 27 25 27 41 27 57 27 4 \012DELTAP1[ ]	/* DeltaExceptionP1 */\012PUSHW[ ]	/* 1 value pushed */\01227 \012SRP0[ ]	/* SetRefPoint0 */\012PUSHW[ ]	/* 1 value pushed */\0120 \012MDRP[10000]	/* MoveDirectRelPt */\012PUSHW[ ]	/* 1 value pushed */\0120 \012MDAP[1]	/* MoveDirectAbsPt */\012PUSHW[ ]	/* 1 value pushed */\01233 \012SRP0[ ]	/* SetRefPoint0 */\012PUSHW[ ]	/* 1 value pushed */\0121 \012MDRP[10000]	/* MoveDirectRelPt */\012PUSHW[ ]	/* 1 value pushed */\0121 \012MDAP[1]	/* MoveDirectAbsPt */\012PUSHW[ ]	/* 3 values pushed */\01215 27 33 \012SRP1[ ]	/* SetRefPoint1 */\012SRP2[ ]	/* SetRefPoint2 */\012IP[ ]	/* InterpolatePts */\012PUSHW[ ]	/* 3 values pushed */\01221 27 33 \012SRP1[ ]	/* SetRefPoint1 */\012SRP2[ ]	/* SetRefPoint2 */\012IP[ ]	/* InterpolatePts */\012PUSHW[ ]	/* 1 value pushed */\01233 \012SRP0[ ]	/* SetRefPoint0 */\012PUSHW[ ]	/* 1 value pushed */\01260 \012MDRP[11100]	/* MoveDirectRelPt */\012SVTCA[0]	/* SetFreedomAndProjectionVectorToAxis */\012PUSHW[ ]	/* 1 value pushed */\0120 \012RCVT[ ]	/* ReadCVT */\012IF[ ]	/* If */\012PUSHW[ ]	/* 1 value pushed */\0120 \012MDAP[1]	/* MoveDirectAbsPt */\012ELSE[ ]	/* Else */\012PUSHW[ ]	/* 2 values pushed */\0120 11 \012MIAP[0]	/* MoveIndirectAbsPt */\012EIF[ ]	/* EndIf */\012IUP[0]	/* InterpolateUntPts */\012IUP[1]	/* InterpolateUntPts */";
};
width = 246;
},
{
associatedMasterId = "E9D5C8C2-E643-4C1D-A564-A66CB2499AF2";
background = {
paths = (
{
closed = 1;
nodes = (
"87 -123 OFFCURVE",
"185 -90 OFFCURVE",
"185 69 CURVE SMOOTH",
"185 495 LINE",
"29 495 LINE",
"29 20 LINE SMOOTH",
"29 0 OFFCURVE",
"15 -23 OFFCURVE",
"-15 -26 CURVE SMOOTH",
"-25 -27 OFFCURVE",
"-48 -28 OFFCURVE",
"-62 -28 CURVE",
"-62 -109 LINE",
"-55 -110 OFFCURVE",
"-27 -112 OFFCURVE",
"-16 -113 CURVE SMOOTH"
);
},
{
closed = 1;
nodes = (
"149 548 OFFCURVE",
"184 581 OFFCURVE",
"184 621 CURVE SMOOTH",
"184 662 OFFCURVE",
"149 695 OFFCURVE",
"106 695 CURVE SMOOTH",
"64 695 OFFCURVE",
"30 662 OFFCURVE",
"30 621 CURVE SMOOTH",
"30 581 OFFCURVE",
"64 548 OFFCURVE",
"106 548 CURVE SMOOTH"
);
}
);
};
components = (
{
name = jdotless;
},
{
name = dotaccentcomb;
transform = "{1, 0, 0, 1, 24, 0}";
}
);
layerId = "8A3706BD-364F-4FE3-9C2E-7E87DF0DB4CC";
name = "Regular Backup";
width = 202;
}
);
note = j;
rightKerningGroup = a;
unicode = 006A;
},
{
glyphname = jdotless;
lastChange = "2021-11-26 10:46:02 +0000";
layers = (
{
anchors = (
{
name = bottom;
position = "{123, -110}";
},
{
name = top;
position = "{143, 495}";
}
);
layerId = "E9D5C8C2-E643-4C1D-A564-A66CB2499AF2";
paths = (
{
closed = 1;
nodes = (
"8 -113 OFFCURVE",
"30 -116 OFFCURVE",
"51 -116 CURVE SMOOTH",
"149 -116 OFFCURVE",
"221 -66 OFFCURVE",
"221 66 CURVE SMOOTH",
"221 495 LINE",
"65 495 LINE",
"65 9 LINE SMOOTH",
"65 -11 OFFCURVE",
"44 -32 OFFCURVE",
"21 -32 CURVE SMOOTH",
"-15 -32 LINE",
"-15 -109 LINE"
);
},
{
closed = 1;
nodes = (
"68 -60 LINE",
"119 -60 OFFCURVE",
"141 -23 OFFCURVE",
"140 25 CURVE SMOOTH",
"137 204 LINE",
"141 471 LINE",
"145 471 LINE",
"150 204 LINE",
"147 21 LINE SMOOTH",
"146 -20 OFFCURVE",
"122 -66 OFFCURVE",
"68 -61 CURVE"
);
}
);
width = 246;
},
{
anchors = (
{
name = bottom;
position = "{101, -116}";
},
{
name = top;
position = "{101, 495}";
}
);
associatedMasterId = "E9D5C8C2-E643-4C1D-A564-A66CB2499AF2";
background = {
paths = (
{
closed = 1;
nodes = (
"83 -123 OFFCURVE",
"181 -90 OFFCURVE",
"181 69 CURVE SMOOTH",
"181 495 LINE",
"25 495 LINE",
"25 20 LINE SMOOTH",
"25 0 OFFCURVE",
"11 -23 OFFCURVE",
"-19 -26 CURVE SMOOTH",
"-29 -27 OFFCURVE",
"-52 -28 OFFCURVE",
"-66 -28 CURVE",
"-66 -109 LINE",
"-59 -110 OFFCURVE",
"-31 -112 OFFCURVE",
"-20 -113 CURVE SMOOTH"
);
},
{
closed = 1;
nodes = (
"145 548 OFFCURVE",
"180 581 OFFCURVE",
"180 621 CURVE SMOOTH",
"180 662 OFFCURVE",
"145 695 OFFCURVE",
"102 695 CURVE SMOOTH",
"60 695 OFFCURVE",
"26 662 OFFCURVE",
"26 621 CURVE SMOOTH",
"26 581 OFFCURVE",
"60 548 OFFCURVE",
"102 548 CURVE SMOOTH"
);
}
);
};
layerId = "8A3706BD-364F-4FE3-9C2E-7E87DF0DB4CC";
name = "Regular Backup";
paths = (
{
closed = 1;
nodes = (
"83 -123 OFFCURVE",
"181 -90 OFFCURVE",
"181 69 CURVE SMOOTH",
"181 495 LINE",
"25 495 LINE",
"25 20 LINE SMOOTH",
"25 0 OFFCURVE",
"11 -23 OFFCURVE",
"-19 -26 CURVE SMOOTH",
"-29 -27 OFFCURVE",
"-52 -28 OFFCURVE",
"-66 -28 CURVE",
"-66 -109 LINE",
"-59 -110 OFFCURVE",
"-31 -112 OFFCURVE",
"-20 -113 CURVE SMOOTH"
);
}
);
width = 202;
}
);
unicode = 0237;
},
{
glyphname = k;
lastChange = "2021-11-26 10:45:51 +0000";
layers = (
{
anchors = (
{
name = bottom;
position = "{210, 0}";
},
{
name = top;
position = "{210, 630}";
}
);
layerId = "E9D5C8C2-E643-4C1D-A564-A66CB2499AF2";
paths = (
{
closed = 1;
nodes = (
"411 0 LINE",
"324 300 LINE",
"414 495 LINE",
"260 495 LINE",
"183 287 LINE",
"239 0 LINE"
);
},
{
closed = 1;
nodes = (
"181 0 LINE",
"181 630 LINE",
"25 630 LINE",
"25 0 LINE"
);
},
{
closed = 1;
nodes = (
"94 333 LINE",
"99 591 LINE",
"103 591 LINE",
"107 333 LINE",
"102 47 LINE",
"98 47 LINE"
);
},
{
closed = 1;
nodes = (
"306 70 OFFCURVE",
"298 94 OFFCURVE",
"291 121 CURVE SMOOTH",
"278 166 OFFCURVE",
"260 225 OFFCURVE",
"241 285 CURVE",
"321 474 LINE",
"326 474 LINE",
"255 285 LINE",
"255 282 OFFCURVE",
"279 193 OFFCURVE",
"287 164 CURVE SMOOTH",
"317 47 LINE",
"313 47 LINE"
);
}
);
userData = {
assembly = "SVTCA[0]	/* SetFreedomAndProjectionVectorToAxis */\012PUSHW[ ]	/* 1 value pushed */\0120 \012RCVT[ ]	/* ReadCVT */\012IF[ ]	/* If */\012PUSHW[ ]	/* 1 value pushed */\0124 \012MDAP[1]	/* MoveDirectAbsPt */\012ELSE[ ]	/* Else */\012PUSHW[ ]	/* 2 values pushed */\0124 11 \012MIAP[0]	/* MoveIndirectAbsPt */\012EIF[ ]	/* EndIf */\012PUSHW[ ]	/* 1 value pushed */\0120 \012RCVT[ ]	/* ReadCVT */\012IF[ ]	/* If */\012PUSHW[ ]	/* 1 value pushed */\0120 \012MDAP[1]	/* MoveDirectAbsPt */\012ELSE[ ]	/* Else */\012PUSHW[ ]	/* 2 values pushed */\0120 7 \012MIAP[0]	/* MoveIndirectAbsPt */\012EIF[ ]	/* EndIf */\012PUSHW[ ]	/* 1 value pushed */\0120 \012RCVT[ ]	/* ReadCVT */\012IF[ ]	/* If */\012PUSHW[ ]	/* 1 value pushed */\0127 \012MDAP[1]	/* MoveDirectAbsPt */\012ELSE[ ]	/* Else */\012PUSHW[ ]	/* 2 values pushed */\0127 7 \012MIAP[0]	/* MoveIndirectAbsPt */\012EIF[ ]	/* EndIf */\012PUSHW[ ]	/* 3 values pushed */\01212 0 4 \012SRP1[ ]	/* SetRefPoint1 */\012SRP2[ ]	/* SetRefPoint2 */\012IP[ ]	/* InterpolatePts */\012PUSHW[ ]	/* 3 values pushed */\01223 0 4 \012SRP1[ ]	/* SetRefPoint1 */\012SRP2[ ]	/* SetRefPoint2 */\012IP[ ]	/* InterpolatePts */\012IUP[0]	/* InterpolateUntPts */\012IUP[1]	/* InterpolateUntPts */";
};
width = 419;
},
{
anchors = (
{
name = bottom;
position = "{208, 0}";
},
{
name = top;
position = "{208, 630}";
}
);
associatedMasterId = "E9D5C8C2-E643-4C1D-A564-A66CB2499AF2";
background = {
paths = (
{
closed = 1;
nodes = (
"411 0 LINE",
"327 283 LINE",
"414 495 LINE",
"260 495 LINE",
"180 286 LINE",
"242 0 LINE"
);
},
{
closed = 1;
nodes = (
"181 0 LINE",
"181 630 LINE",
"25 630 LINE",
"25 0 LINE"
);
}
);
};
layerId = "8A3706BD-364F-4FE3-9C2E-7E87DF0DB4CC";
name = "Regular Backup";
paths = (
{
closed = 1;
nodes = (
"411 0 LINE",
"327 283 LINE",
"414 495 LINE",
"260 495 LINE",
"180 286 LINE",
"242 0 LINE"
);
},
{
closed = 1;
nodes = (
"181 0 LINE",
"181 630 LINE",
"25 630 LINE",
"25 0 LINE"
);
}
);
width = 416;
}
);
note = k;
rightKerningGroup = a;
unicode = 006B;
},
{
glyphname = kgreenlandic;
lastChange = "2021-11-26 10:46:02 +0000";
layers = (
{
layerId = "E9D5C8C2-E643-4C1D-A564-A66CB2499AF2";
paths = (
{
closed = 1;
nodes = (
"182 0 LINE",
"182 140 LINE",
"193 159 LINE",
"237 0 LINE",
"417 0 LINE",
"332 332 LINE",
"337 342 OFFCURVE",
"344 351 OFFCURVE",
"352 359 CURVE SMOOTH",
"367 374 OFFCURVE",
"388 388 OFFCURVE",
"419 392 CURVE",
"419 493 LINE",
"408 495 OFFCURVE",
"397 496 OFFCURVE",
"387 496 CURVE SMOOTH",
"302 496 OFFCURVE",
"227 441 OFFCURVE",
"182 360 CURVE",
"182 548 LINE",
"25 548 LINE",
"25 0 LINE"
);
},
{
closed = 1;
nodes = (
"94 253 LINE",
"99 511 LINE",
"103 511 LINE",
"107 253 LINE",
"102 47 LINE",
"98 47 LINE"
);
},
{
closed = 1;
nodes = (
"226 276 LINE",
"226 336 OFFCURVE",
"299 414 OFFCURVE",
"341 439 CURVE",
"341 436 LINE",
"293 404 OFFCURVE",
"239 333 OFFCURVE",
"239 280 CURVE",
"326 47 LINE",
"322 47 LINE"
);
}
);
userData = {
assembly = "SVTCA[0]	/* SetFreedomAndProjectionVectorToAxis */\012PUSHW[ ]	/* 1 value pushed */\0120 \012RCVT[ ]	/* ReadCVT */\012IF[ ]	/* If */\012PUSHW[ ]	/* 1 value pushed */\01212 \012MDAP[1]	/* MoveDirectAbsPt */\012ELSE[ ]	/* Else */\012PUSHW[ ]	/* 2 values pushed */\01212 7 \012MIAP[0]	/* MoveIndirectAbsPt */\012EIF[ ]	/* EndIf */\012PUSHW[ ]	/* 1 value pushed */\0120 \012RCVT[ ]	/* ReadCVT */\012IF[ ]	/* If */\012PUSHW[ ]	/* 1 value pushed */\01216 \012MDAP[1]	/* MoveDirectAbsPt */\012ELSE[ ]	/* Else */\012PUSHW[ ]	/* 2 values pushed */\01216 7 \012MIAP[0]	/* MoveIndirectAbsPt */\012EIF[ ]	/* EndIf */\012IUP[0]	/* InterpolateUntPts */\012IUP[1]	/* InterpolateUntPts */";
};
width = 446;
},
{
anchors = (
{
name = bottom;
position = "{208, 0}";
},
{
name = top;
position = "{208, 630}";
}
);
associatedMasterId = "E9D5C8C2-E643-4C1D-A564-A66CB2499AF2";
layerId = "8A3706BD-364F-4FE3-9C2E-7E87DF0DB4CC";
name = "Regular Backup";
paths = (
{
closed = 1;
nodes = (
"411 0 LINE",
"327 283 LINE",
"414 495 LINE",
"260 495 LINE",
"180 286 LINE",
"242 0 LINE"
);
},
{
closed = 1;
nodes = (
"181 0 LINE",
"181 550 LINE",
"25 550 LINE",
"25 0 LINE"
);
}
);
width = 416;
}
);
note = kgreenlandic;
unicode = 0138;
},
{
glyphname = l;
lastChange = "2021-11-26 04:45:04 +0000";
layers = (
{
anchors = (
{
name = bottom;
position = "{103, 0}";
},
{
name = center;
position = "{103, 315}";
},
{
name = top;
position = "{103, 630}";
},
{
name = topright;
position = "{208, 471}";
}
);
layerId = "E9D5C8C2-E643-4C1D-A564-A66CB2499AF2";
paths = (
{
closed = 1;
nodes = (
"181 0 LINE",
"181 630 LINE",
"25 630 LINE",
"25 0 LINE"
);
},
{
closed = 1;
nodes = (
"95 333 LINE",
"100 591 LINE",
"104 591 LINE",
"108 333 LINE",
"103 47 LINE",
"99 47 LINE"
);
}
);
userData = {
assembly = "SVTCA[0]	/* SetFreedomAndProjectionVectorToAxis */\012PUSHW[ ]	/* 1 value pushed */\0120 \012RCVT[ ]	/* ReadCVT */\012IF[ ]	/* If */\012PUSHW[ ]	/* 1 value pushed */\0120 \012MDAP[1]	/* MoveDirectAbsPt */\012ELSE[ ]	/* Else */\012PUSHW[ ]	/* 2 values pushed */\0120 7 \012MIAP[0]	/* MoveIndirectAbsPt */\012EIF[ ]	/* EndIf */\012IUP[0]	/* InterpolateUntPts */\012IUP[1]	/* InterpolateUntPts */";
};
width = 206;
},
{
anchors = (
{
name = bottom;
position = "{103, 0}";
},
{
name = center;
position = "{103, 315}";
},
{
name = top;
position = "{103, 630}";
},
{
name = topright;
position = "{176, 495}";
}
);
associatedMasterId = "E9D5C8C2-E643-4C1D-A564-A66CB2499AF2";
background = {
paths = (
{
closed = 1;
nodes = (
"181 0 LINE",
"181 630 LINE",
"25 630 LINE",
"25 0 LINE"
);
}
);
};
layerId = "8A3706BD-364F-4FE3-9C2E-7E87DF0DB4CC";
name = "Regular Backup";
paths = (
{
closed = 1;
nodes = (
"181 0 LINE",
"181 630 LINE",
"25 630 LINE",
"25 0 LINE"
);
}
);
width = 206;
}
);
note = l;
rightKerningGroup = a;
unicode = 006C;
},
{
glyphname = lslash;
lastChange = "2021-11-26 04:45:04 +0000";
layers = (
{
layerId = "E9D5C8C2-E643-4C1D-A564-A66CB2499AF2";
paths = (
{
closed = 1;
nodes = (
"227 0 LINE",
"227 227 LINE",
"285 253 LINE",
"285 316 LINE",
"227 290 LINE",
"227 630 LINE",
"71 630 LINE",
"71 221 LINE",
"15 196 LINE",
"15 132 LINE",
"71 157 LINE",
"71 0 LINE"
);
},
{
closed = 1;
nodes = (
"144 333 LINE",
"149 591 LINE",
"153 591 LINE",
"157 333 LINE",
"152 47 LINE",
"148 47 LINE"
);
}
);
width = 300;
},
{
associatedMasterId = "E9D5C8C2-E643-4C1D-A564-A66CB2499AF2";
background = {
paths = (
{
closed = 1;
nodes = (
"227 0 LINE",
"227 227 LINE",
"285 253 LINE",
"285 316 LINE",
"227 290 LINE",
"227 630 LINE",
"71 630 LINE",
"71 221 LINE",
"15 196 LINE",
"15 132 LINE",
"71 157 LINE",
"71 0 LINE"
);
}
);
};
layerId = "8A3706BD-364F-4FE3-9C2E-7E87DF0DB4CC";
name = "Regular Backup";
paths = (
{
closed = 1;
nodes = (
"227 0 LINE",
"227 227 LINE",
"285 253 LINE",
"285 316 LINE",
"227 290 LINE",
"227 630 LINE",
"71 630 LINE",
"71 221 LINE",
"15 196 LINE",
"15 132 LINE",
"71 157 LINE",
"71 0 LINE"
);
}
);
width = 300;
}
);
note = lslash;
rightKerningGroup = a;
unicode = 0142;
},
{
glyphname = m;
lastChange = "2021-11-26 10:45:51 +0000";
layers = (
{
layerId = "E9D5C8C2-E643-4C1D-A564-A66CB2499AF2";
paths = (
{
closed = 1;
nodes = (
"178 0 LINE",
"178 390 LINE",
"182 393 OFFCURVE",
"190 393 OFFCURVE",
"195 393 CURVE SMOOTH",
"206 393 OFFCURVE",
"212 384 OFFCURVE",
"212 365 CURVE SMOOTH",
"212 0 LINE",
"368 0 LINE",
"368 390 LINE",
"372 393 OFFCURVE",
"380 393 OFFCURVE",
"385 393 CURVE SMOOTH",
"396 393 OFFCURVE",
"402 384 OFFCURVE",
"402 365 CURVE SMOOTH",
"402 0 LINE",
"558 0 LINE",
"558 371 LINE SMOOTH",
"558 458 OFFCURVE",
"536 502 OFFCURVE",
"448 502 CURVE SMOOTH",
"408 502 OFFCURVE",
"375 475 OFFCURVE",
"360 439 CURVE",
"347 480 OFFCURVE",
"318 502 OFFCURVE",
"258 502 CURVE SMOOTH",
"215 502 OFFCURVE",
"179 471 OFFCURVE",
"167 430 CURVE",
"155 495 LINE",
"22 495 LINE",
"22 0 LINE"
);
},
{
closed = 1;
nodes = (
"94 240 LINE",
"99 429 LINE",
"103 429 LINE",
"107 240 LINE",
"102 47 LINE",
"98 47 LINE"
);
},
{
closed = 1;
nodes = (
"279 245 LINE",
"283 399 LINE SMOOTH",
"284 418 OFFCURVE",
"274 447 OFFCURVE",
"245 447 CURVE SMOOTH",
"230 447 OFFCURVE",
"215 442 OFFCURVE",
"202 432 CURVE",
"202 434 LINE",
"213 443 OFFCURVE",
"230 449 OFFCURVE",
"245 449 CURVE SMOOTH",
"273 449 OFFCURVE",
"288 430 OFFCURVE",
"289 399 CURVE SMOOTH",
"292 245 LINE",
"287 47 LINE",
"283 47 LINE"
);
},
{
closed = 1;
nodes = (
"475 245 LINE",
"479 399 LINE SMOOTH",
"480 418 OFFCURVE",
"470 447 OFFCURVE",
"441 447 CURVE SMOOTH",
"426 447 OFFCURVE",
"411 442 OFFCURVE",
"398 432 CURVE",
"398 434 LINE",
"409 443 OFFCURVE",
"426 449 OFFCURVE",
"441 449 CURVE SMOOTH",
"469 449 OFFCURVE",
"484 430 OFFCURVE",
"485 399 CURVE SMOOTH",
"488 245 LINE",
"483 47 LINE",
"479 47 LINE"
);
}
);
userData = {
assembly = "SVTCA[0]	/* SetFreedomAndProjectionVectorToAxis */\012PUSHW[ ]	/* 1 value pushed */\0120 \012RCVT[ ]	/* ReadCVT */\012IF[ ]	/* If */\012PUSHW[ ]	/* 1 value pushed */\01210 \012MDAP[1]	/* MoveDirectAbsPt */\012ELSE[ ]	/* Else */\012PUSHW[ ]	/* 2 values pushed */\01210 11 \012MIAP[0]	/* MoveIndirectAbsPt */\012EIF[ ]	/* EndIf */\012PUSHW[ ]	/* 1 value pushed */\0120 \012RCVT[ ]	/* ReadCVT */\012IF[ ]	/* If */\012PUSHW[ ]	/* 1 value pushed */\01215 \012MDAP[1]	/* MoveDirectAbsPt */\012ELSE[ ]	/* Else */\012PUSHW[ ]	/* 2 values pushed */\01215 11 \012MIAP[0]	/* MoveIndirectAbsPt */\012EIF[ ]	/* EndIf */\012PUSHW[ ]	/* 1 value pushed */\0120 \012RCVT[ ]	/* ReadCVT */\012IF[ ]	/* If */\012PUSHW[ ]	/* 1 value pushed */\01221 \012MDAP[1]	/* MoveDirectAbsPt */\012ELSE[ ]	/* Else */\012PUSHW[ ]	/* 2 values pushed */\01221 11 \012MIAP[0]	/* MoveIndirectAbsPt */\012EIF[ ]	/* EndIf */\012PUSHW[ ]	/* 1 value pushed */\0120 \012RCVT[ ]	/* ReadCVT */\012IF[ ]	/* If */\012PUSHW[ ]	/* 1 value pushed */\0120 \012MDAP[1]	/* MoveDirectAbsPt */\012ELSE[ ]	/* Else */\012PUSHW[ ]	/* 2 values pushed */\0120 7 \012MIAP[0]	/* MoveIndirectAbsPt */\012EIF[ ]	/* EndIf */\012PUSHW[ ]	/* 1 value pushed */\0120 \012RCVT[ ]	/* ReadCVT */\012IF[ ]	/* If */\012PUSHW[ ]	/* 1 value pushed */\0128 \012MDAP[1]	/* MoveDirectAbsPt */\012ELSE[ ]	/* Else */\012PUSHW[ ]	/* 2 values pushed */\0128 7 \012MIAP[0]	/* MoveIndirectAbsPt */\012EIF[ ]	/* EndIf */\012PUSHW[ ]	/* 1 value pushed */\0120 \012RCVT[ ]	/* ReadCVT */\012IF[ ]	/* If */\012PUSHW[ ]	/* 1 value pushed */\01225 \012MDAP[1]	/* MoveDirectAbsPt */\012ELSE[ ]	/* Else */\012PUSHW[ ]	/* 2 values pushed */\01225 7 \012MIAP[0]	/* MoveIndirectAbsPt */\012EIF[ ]	/* EndIf */\012PUSHW[ ]	/* 1 value pushed */\01215 \012SRP0[ ]	/* SetRefPoint0 */\012PUSHW[ ]	/* 2 values pushed */\0124 1 \012MIRP[10100]	/* MoveIndirectRelPt */\012NPUSHW[ ]	/* 5 values pushed */\012121 4 137 4 2 \012DELTAP1[ ]	/* DeltaExceptionP1 */\012NPUSHW[ ]	/* 15 values pushed */\0128 4 24 4 40 4 56 4 72 4 88 4 104 4 7 \012DELTAP1[ ]	/* DeltaExceptionP1 */\012PUSHW[ ]	/* 3 values pushed */\01212 15 4 \012SRP1[ ]	/* SetRefPoint1 */\012SRP2[ ]	/* SetRefPoint2 */\012IP[ ]	/* InterpolatePts */\012PUSHW[ ]	/* 3 values pushed */\01218 15 4 \012SRP1[ ]	/* SetRefPoint1 */\012SRP2[ ]	/* SetRefPoint2 */\012IP[ ]	/* InterpolatePts */\012PUSHW[ ]	/* 1 value pushed */\01229 \012MDRP[10000]	/* MoveDirectRelPt */\012PUSHW[ ]	/* 1 value pushed */\01229 \012MDAP[1]	/* MoveDirectAbsPt */\012PUSHW[ ]	/* 3 values pushed */\01233 15 4 \012SRP1[ ]	/* SetRefPoint1 */\012SRP2[ ]	/* SetRefPoint2 */\012IP[ ]	/* InterpolatePts */\012PUSHW[ ]	/* 3 values pushed */\01241 0 15 \012SRP1[ ]	/* SetRefPoint1 */\012SRP2[ ]	/* SetRefPoint2 */\012IP[ ]	/* InterpolatePts */\012PUSHW[ ]	/* 3 values pushed */\01250 15 4 \012SRP1[ ]	/* SetRefPoint1 */\012SRP2[ ]	/* SetRefPoint2 */\012IP[ ]	/* InterpolatePts */\012PUSHW[ ]	/* 3 values pushed */\01258 0 15 \012SRP1[ ]	/* SetRefPoint1 */\012SRP2[ ]	/* SetRefPoint2 */\012IP[ ]	/* InterpolatePts */\012PUSHW[ ]	/* 3 values pushed */\01269 0 15 \012SRP1[ ]	/* SetRefPoint1 */\012SRP2[ ]	/* SetRefPoint2 */\012IP[ ]	/* InterpolatePts */\012PUSHW[ ]	/* 3 values pushed */\01272 15 4 \012SRP1[ ]	/* SetRefPoint1 */\012SRP2[ ]	/* SetRefPoint2 */\012IP[ ]	/* InterpolatePts */\012IUP[0]	/* InterpolateUntPts */\012IUP[1]	/* InterpolateUntPts */";
};
width = 580;
},
{
associatedMasterId = "E9D5C8C2-E643-4C1D-A564-A66CB2499AF2";
background = {
paths = (
{
closed = 1;
nodes = (
"181 0 LINE",
"181 390 LINE",
"185 392 OFFCURVE",
"193 393 OFFCURVE",
"198 393 CURVE SMOOTH",
"209 393 OFFCURVE",
"215 383 OFFCURVE",
"215 365 CURVE SMOOTH",
"215 0 LINE",
"371 0 LINE",
"371 390 LINE",
"375 392 OFFCURVE",
"383 393 OFFCURVE",
"388 393 CURVE SMOOTH",
"399 393 OFFCURVE",
"405 383 OFFCURVE",
"405 365 CURVE SMOOTH",
"405 0 LINE",
"561 0 LINE",
"561 371 LINE SMOOTH",
"561 457 OFFCURVE",
"539 502 OFFCURVE",
"451 502 CURVE SMOOTH",
"401 502 OFFCURVE",
"360 459 OFFCURVE",
"356 409 CURVE",
"370 408 LINE",
"362 469 OFFCURVE",
"335 502 OFFCURVE",
"261 502 CURVE SMOOTH",
"218 502 OFFCURVE",
"182 471 OFFCURVE",
"170 430 CURVE",
"158 495 LINE",
"25 495 LINE",
"25 0 LINE"
);
}
);
};
layerId = "8A3706BD-364F-4FE3-9C2E-7E87DF0DB4CC";
name = "Regular Backup";
paths = (
{
closed = 1;
nodes = (
"181 0 LINE",
"181 390 LINE",
"185 392 OFFCURVE",
"193 393 OFFCURVE",
"198 393 CURVE SMOOTH",
"209 393 OFFCURVE",
"215 383 OFFCURVE",
"215 365 CURVE SMOOTH",
"215 0 LINE",
"371 0 LINE",
"371 390 LINE",
"375 392 OFFCURVE",
"383 393 OFFCURVE",
"388 393 CURVE SMOOTH",
"399 393 OFFCURVE",
"405 383 OFFCURVE",
"405 365 CURVE SMOOTH",
"405 0 LINE",
"561 0 LINE",
"561 371 LINE SMOOTH",
"561 457 OFFCURVE",
"539 502 OFFCURVE",
"451 502 CURVE SMOOTH",
"401 502 OFFCURVE",
"360 459 OFFCURVE",
"356 409 CURVE",
"370 408 LINE",
"362 469 OFFCURVE",
"335 502 OFFCURVE",
"261 502 CURVE SMOOTH",
"218 502 OFFCURVE",
"182 471 OFFCURVE",
"170 430 CURVE",
"158 495 LINE",
"25 495 LINE",
"25 0 LINE"
);
}
);
width = 581;
}
);
note = m;
rightKerningGroup = a;
unicode = 006D;
},
